<svg xmlns="http://www.w3.org/2000/svg" width="1920" height="1080"><g fill="#212529"><path d="M970.672 547.574c-.561.032-1.111.075-1.648.129-.538.054-1.063.119-1.575.195-.513.077-1.011.166-1.494.267s-.952.214-1.404.34-.889.266-1.308.418c-.418.152-.82.317-1.202.498s-.746.374-1.09.583-.667.432-.97.67-.583.492-.842.763c-.258.27-.494.556-.706.857a6.899 6.899 0 00-.975 2.013c-.111.369-.196.757-.252 1.162s-.086.829-.086 1.271c0 .293.012.576.036.85s.06.538.106.793a7.211 7.211 0 00.409 1.419 6.11 6.11 0 00.651 1.197c.127.18.264.354.408.517a5.86 5.86 0 001.518 1.217 6.694 6.694 0 001.225.539c.217.072.438.135.666.188s.461.099.699.134a9.418 9.418 0 001.481.107 10.268 10.268 0 002.465-.302c.262-.065.52-.141.771-.226s.499-.18.741-.282a9.995 9.995 0 004.574-3.911 9.329 9.329 0 00.93-2.002l.044-.182.04-.184.038-.186.035-.189c.012-.063.021-.127.032-.19.011-.064.021-.128.029-.193.009-.064.019-.129.026-.194.009-.064.018-.13.024-.195s.015-.131.021-.197l.019-.199.016-.2.013-.2.01-.202.007-.202c.002-.067-.076-.135-.076-.202.002-.067-.078-.135-.078-.202v-6.352a49.727 49.727 0 00-3.328.065zm-58.967-20.038c-.144-.925-.325-1.819-.542-2.682s-.47-1.693-.757-2.492c-.288-.799-.61-1.565-.967-2.3s-.748-1.438-1.171-2.108a20.051 20.051 0 00-2.928-3.632 20.346 20.346 0 00-3.671-2.844 22.216 22.216 0 00-2.099-1.123 24.135 24.135 0 00-2.267-.923 26.97 26.97 0 00-2.428-.72c-.835-.206-1.697-.378-2.583-.516s-1.798-.242-2.734-.311a39.13 39.13 0 00-2.877-.104 60.967 60.967 0 00-3.414.095 42.33 42.33 0 00-1.144.082c-.181.015-.356.032-.527.048s-.336.034-.497.053a33.946 33.946 0 00-.908.116 42.554 42.554 0 00-.796.127c-.124.021-.243.043-.357.065s-.425.044-.531.067c-.105.022-.505.045-.505.067v52.921c0 .022.398.044.503.063.104.021.313.039.424.056.111.018.276.034.394.049s.263.028.386.041.26.023.388.034c.127.011.264.021.396.029.132.009.27.017.405.023.135.008.274.014.413.02a28.095 28.095 0 00.848.026c.143.004.288.006.432.008l.435.006c.145.002.291.111.436.113.146 0 .291.111.436.111h.864c1.035 0 2.047-.131 3.036-.196.989-.064 1.954-.221 2.894-.358.94-.138 1.855-.34 2.744-.551a28.116 28.116 0 002.587-.758 25.02 25.02 0 002.422-.974c.779-.359 1.53-.759 2.25-1.192s1.412-.907 2.071-1.416a21.146 21.146 0 003.575-3.513c.53-.661 1.027-1.36 1.489-2.099.462-.737.889-1.514 1.28-2.328a26.12 26.12 0 001.063-2.562 29.42 29.42 0 00.84-2.794c.242-.971.446-1.98.609-3.029.164-1.049.288-2.138.371-3.266.083-1.128.125-2.295.125-3.503.007-1.05-.024-2.069-.093-3.057s-.176-1.944-.32-2.869z"/><path d="M0 0v1080h1920V0H0zm931.492 535.708c-.043.93-.107 1.842-.192 2.735a51.793 51.793 0 01-.745 5.141 46.114 46.114 0 01-1.193 4.706 40.455 40.455 0 01-1.599 4.282 38.198 38.198 0 01-1.964 3.866 37.08 37.08 0 01-1.107 1.78 35.112 35.112 0 01-3.757 4.735 34.557 34.557 0 01-2.817 2.668 34.57 34.57 0 01-3.4 2.48 37.873 37.873 0 01-3.798 2.136c-.666.328-1.346.641-2.042.94s-1.408.585-2.135.856a54.257 54.257 0 01-4.539 1.459c-.785.215-1.585.417-2.399.605s-1.642.362-2.483.523-1.696.308-2.564.441c-.868.133-1.749.253-2.643.359a87.704 87.704 0 01-5.514.477 105.595 105.595 0 01-5.802.158 199.858 199.858 0 01-5.045-.06 177.206 177.206 0 01-4.487-.162 156.335 156.335 0 01-5.154-.335 95.046 95.046 0 01-1.146-.1 85.454 85.454 0 01-1.092-.104 97 97 0 01-1.037-.107c-.337-.035-.665-.072-.984-.109s-.65-.074-.953-.111-.901-.069-.901-.107v-79.439c0-.068.868-.133 1.304-.197a103.452 103.452 0 012.716-.36 124.195 124.195 0 012.869-.312 146.428 146.428 0 014.566-.376 193.465 193.465 0 016.489-.325 181.925 181.925 0 013.376-.083 193.769 193.769 0 013.44-.028c.96 0 1.899.011 2.817.032.918.022 1.817.054 2.696.098a87.975 87.975 0 015.045.393c.804.087 1.59.187 2.358.296a60.127 60.127 0 014.414.796c.704.156 1.391.322 2.064.5s1.332.368 1.976.569c.645.201 1.275.414 1.892.638a40.156 40.156 0 013.551 1.487 37.808 37.808 0 013.273 1.771 36.958 36.958 0 013.032 2.06 32.783 32.783 0 014.381 3.906c.447.479.88.972 1.299 1.48s.824 1.032 1.213 1.571a31.836 31.836 0 012.158 3.418 34.393 34.393 0 012.514 5.83 39.346 39.346 0 011.157 4.364 45.063 45.063 0 01.713 4.756c.08.826.141 1.667.182 2.526a58.99 58.99 0 01-.003 5.477zM991.73 575h-15.406l-.067-.257-.068-.313-.067-.34-.067-.354-.067-.36-.067-.364-.067-.365-.067-.367-.067-.367-.067-.367-.067-.367-.067-.367-.067-.367-.067-.368-.068-.538-.078-.539h-.353c-.24 1-.488.746-.745 1.022-.257.275-.521.627-.794.886s-.553.551-.841.791c-.288.242-.583.495-.886.719s-.613.449-.93.655a19.92 19.92 0 01-.973.597 19.648 19.648 0 01-3.149 1.452 21.337 21.337 0 01-2.275.69 23.501 23.501 0 01-2.402.465 27.42 27.42 0 01-2.512.234c-.427.02-.858.029-1.293.029-.742 0-1.466-.034-2.17-.1s-1.389-.163-2.055-.29a19.755 19.755 0 01-3.749-1.107 18.01 18.01 0 01-3.245-1.731 17.082 17.082 0 01-1.425-1.07 17.177 17.177 0 01-2.44-2.493 17.378 17.378 0 01-1.87-2.885 17.733 17.733 0 01-1.274-3.186 17.625 17.625 0 01-.404-1.676 18.571 18.571 0 01-.327-3.461c0-.953.054-1.874.159-2.765.105-.892.262-1.751.47-2.58s.465-1.628.771-2.396a17.728 17.728 0 012.407-4.24c.494-.646 1.034-1.262 1.617-1.848s1.21-1.141 1.879-1.666c.669-.525 1.38-1.02 2.132-1.485.752-.465 1.544-.9 2.375-1.305.832-.405 1.702-.78 2.609-1.126a37.313 37.313 0 012.833-.947 44.29 44.29 0 013.047-.769 52 52 0 013.252-.592 60.737 60.737 0 013.446-.416c1.181-.109 2.613-.189 3.854-.24s2.027-.072 4.027-.065v-.841c0-.195-.227-.395-.242-.599-.014-.204-.146-.412-.178-.622s-.129-.422-.18-.635c-.053-.213-.143-.428-.217-.642s-.174-.427-.274-.639a6.386 6.386 0 00-.783-1.234 6.47 6.47 0 00-1.165-1.123c-.229-.174-.479-.34-.748-.498s-.559-.306-.869-.444c-.312-.139-.644-.267-.999-.383s-.734-.221-1.139-.312c-.402-.091-.83-.169-1.284-.233s-.933-.113-1.439-.146-1.041-.051-1.604-.051a28.462 28.462 0 00-3.394.204 32.84 32.84 0 00-2.248.342 37.635 37.635 0 00-2.197.484 34.819 34.819 0 00-2.113.607 35.494 35.494 0 00-1.996.709 31.874 31.874 0 00-1.843.792 25.179 25.179 0 00-1.658.856c-.259.146-.508.295-.749.445l-.21-.735-.21-.735-.21-.735-.21-.735-.21-.735-.21-.735-.21-.735-.21-.735-.21-.735-.21-.735-.21-.735-.21-.735-.21-.735-.21-.735-.21-.735-.21-.735a27.586 27.586 0 011.713-.876 33.031 33.031 0 012.069-.892 41.843 41.843 0 012.409-.866 47.917 47.917 0 014.218-1.163 50.007 50.007 0 013.192-.625 54.4 54.4 0 013.479-.457c.603-.06 1.216-.111 1.841-.152a60.697 60.697 0 013.879-.128c1.222 0 2.393.045 3.513.133 1.12.087 2.19.218 3.212.389a30.65 30.65 0 012.92.632c.926.25 1.805.538 2.639.862.833.324 1.622.684 2.367 1.077s1.448.821 2.108 1.28a18.949 18.949 0 013.475 3.113c.501.576.963 1.178 1.389 1.805a20.23 20.23 0 011.171 1.954c.354.674.674 1.371.961 2.088.287.717.541 1.455.764 2.209s.414 1.528.576 2.317.294 1.593.398 2.411c.104.818.221 1.649.271 2.491s.115 1.696.115 2.559v20.394c0 .353-.039.704-.037 1.055.002.35-.016.698-.012 1.045.003.347-.003.691.003 1.034s.008.683.017 1.021c.008.338.015.672.025 1.003.01.331.019.659.031.984.013.324.025.645.04.961s.029.629.046.937.035.61.054.908a82.713 82.713 0 00.207 2.528 44.163 44.163 0 00.177 1.493c.032.235.065.351.1.569.035.219.07.522.108.522h-1.034zm33.27-79.651V575h-19v-85h19.005v5.349zm33 24.861V575h-19v-58h19v3.21zm8.964-28.078l-.915 1.136-.915 1.138-.915 1.139-.915 1.139-.915 1.14-.915 1.14-.915 1.14-.915 1.14-.915 1.14-.915 1.14-.915 1.14-.915 1.14-.915 1.14-.914 1.028-.915 1.028h-12.598l.646-1.028.645-1.084.645-1.112.645-1.126.645-1.132.646-1.137.646-1.139.645-1.139.645-1.139.646-1.14.646-1.14.645-1.14.645-1.14.646-1.14.646-1.132.645-1.132h16.926l-.931 1.132z"/></g></svg>