<svg xmlns="http://www.w3.org/2000/svg" width="1920" height="1080"><g fill="#212529"><path d="M1069.671 547.574c-.562.032-1.111.075-1.648.129-.538.054-1.063.119-1.575.195-.512.077-1.01.166-1.493.267s-.952.214-1.405.34c-.452.126-.889.266-1.307.418-.419.152-.82.317-1.203.498s-.746.374-1.09.583-.668.432-.97.67-.583.492-.842.763a7.35 7.35 0 00-.706.857 6.899 6.899 0 00-.975 2.013c-.111.369-.195.757-.252 1.162s-.086.829-.086 1.271c0 .293.012.576.036.85s.06.538.106.793.104.5.172.737c.068.236.148.464.237.682a6.11 6.11 0 00.651 1.197c.126.18.264.354.408.517a5.86 5.86 0 001.518 1.217 6.853 6.853 0 001.225.539 8.377 8.377 0 001.366.322 9.364 9.364 0 001.481.107 10.286 10.286 0 002.465-.302 9.782 9.782 0 001.512-.508 10.474 10.474 0 001.384-.722c.219-.137.432-.281.638-.434s.406-.311.599-.477a10.125 10.125 0 001.537-1.66 9.814 9.814 0 00.781-1.263 9.172 9.172 0 00.565-1.357c.016-.061.029-.121.044-.182l.04-.184c.014-.062.025-.123.038-.186s.024-.126.035-.189a12.55 12.55 0 00.062-.383c.009-.064.019-.129.026-.194.009-.064.018-.13.024-.195s.015-.131.021-.197c.007-.066.014-.133.019-.199l.016-.2.013-.2.01-.202c.003-.067-.074-.135-.072-.202s-.074-.135-.074-.202v-6.554a49.727 49.727 0 00-3.331.065zm-118.835-5.026a30.129 30.129 0 00-.204-1.607c-.082-.531-.179-1.055-.29-1.571s-.237-1.023-.377-1.521a21.964 21.964 0 00-.468-1.458 18.462 18.462 0 00-.561-1.382c-.202-.446-.42-.878-.655-1.292s-.485-.812-.752-1.189-.551-.736-.852-1.074-.618-.653-.953-.945a9.633 9.633 0 00-1.057-.802 9.195 9.195 0 00-2.434-1.126 9.584 9.584 0 00-1.382-.297 10.79 10.79 0 00-1.495-.102c-.547 0-1.073.035-1.578.103a10.35 10.35 0 00-1.453.301 9.434 9.434 0 00-2.54 1.137 9.987 9.987 0 00-1.095.81c-.346.294-.673.612-.981.952-.309.339-.6.7-.872 1.081-.273.38-.528.78-.767 1.196s-.459.85-.664 1.297c-.204.448-.392.91-.564 1.385s-.328.961-.468 1.458a23.722 23.722 0 00-.376 1.519c-.11.515-.206 1.038-.286 1.565a30.013 30.013 0 00-.319 3.214 33.722 33.722 0 00.01 3.48c.033.609.082 1.207.147 1.793.065.585.146 1.159.244 1.719.097.56.21 1.106.339 1.638s.273 1.048.434 1.549c.161.5.336.985.528 1.453s.399.918.621 1.35c.223.432.461.846.714 1.239s.521.769.805 1.121c.284.353.582.685.896.995s.642.598.985.863a9.645 9.645 0 003.485 1.716c.431.113.875.199 1.335.257.459.059.933.088 1.42.088.442 0 .875-.027 1.297-.082s.834-.136 1.235-.243a9.202 9.202 0 002.273-.946c.355-.207.7-.438 1.031-.692.332-.255.65-.532.957-.833s.6-.623.88-.967c.28-.345.547-.711.8-1.097s.492-.793.717-1.22.436-.873.631-1.338.377-.949.542-1.451.316-1.022.45-1.56a25.874 25.874 0 00.613-3.421c.069-.603.122-1.221.157-1.853a35.046 35.046 0 00-.103-5.21z"/><path d="M0 0v1080h1920V0H0zm897 531.564v39.935c0 .12-.486.243-.877.367-.391.125-.68.252-1.106.38s-.811.257-1.27.387-.905.259-1.396.389a80.763 80.763 0 01-3.087.764 98.768 98.768 0 01-3.399.714 90.392 90.392 0 01-3.639.623 87.749 87.749 0 01-5.774.683 73.31 73.31 0 01-3.973.226 63.58 63.58 0 01-2.001.03c-.922 0-1.829-.015-2.72-.044a72.99 72.99 0 01-5.157-.347c-.829-.086-1.642-.188-2.44-.303s-1.581-.245-2.35-.389a54.893 54.893 0 01-2.26-.475 45.338 45.338 0 01-4.257-1.204 40.595 40.595 0 01-3.914-1.542 36.832 36.832 0 01-3.581-1.875 33.748 33.748 0 01-6.2-4.746 32.477 32.477 0 01-3.824-4.28 34.674 34.674 0 01-3.083-4.949 37.455 37.455 0 01-1.627-3.626 39.618 39.618 0 01-1.272-3.856c-.182-.66-.349-1.33-.5-2.007a44.969 44.969 0 01-.942-6.293 48.661 48.661 0 01-.15-4.388c.007-1.68.091-3.315.247-4.904s.385-3.132.685-4.628a43.028 43.028 0 011.104-4.347c.436-1.401.938-2.755 1.504-4.06s1.196-2.561 1.887-3.768a37.068 37.068 0 014.848-6.636c.921-1.004 1.897-1.957 2.924-2.856s2.106-1.747 3.234-2.542c1.128-.794 2.304-1.535 3.525-2.221s2.488-1.318 3.798-1.895c1.309-.576 2.661-1.098 4.052-1.563s2.822-.874 4.289-1.225c1.467-.352 2.97-.646 4.507-.882s3.106-.415 4.706-.533c1.6-.119 3.23-.179 4.888-.179a81.475 81.475 0 013.799.091 72.085 72.085 0 013.555.258 65.93 65.93 0 013.29.398 59.44 59.44 0 014.396.806 50.162 50.162 0 012.543.639c.397.111.779.225 1.148.34a33.997 33.997 0 012.036.708 20.99 20.99 0 011.673.721l-.24.915-.24.915-.24.915-.24.915-.24.915-.24.915-.24.915-.24.915-.24.915-.24.915-.24.915-.24.915-.24.915-.24.915-.24.915-.24.915a42.283 42.283 0 00-3.568-1.353c-.32-.104-.646-.206-.98-.304a37.827 37.827 0 00-2.09-.555 42.278 42.278 0 00-3.508-.674 44.76 44.76 0 00-1.282-.174 54.403 54.403 0 00-2.755-.263 67.755 67.755 0 00-4.656-.157c-.953 0-1.891.034-2.812.101-.921.068-1.827.169-2.713.304s-1.755.305-2.604.508c-.848.203-1.676.44-2.481.711s-1.589.576-2.349.915c-.759.339-1.495.712-2.205 1.119s-1.393.848-2.049 1.324a21.752 21.752 0 00-3.585 3.262c-.537.612-1.042 1.258-1.513 1.939s-.909 1.396-1.312 2.146-.769 1.534-1.099 2.352-.622 1.671-.875 2.559c-.253.887-.466 1.809-.639 2.766s-.304 1.947-.392 2.973a37.183 37.183 0 00-.133 3.181c0 1.042.041 2.058.121 3.046.08.988.2 1.949.357 2.882.157.933.353 1.837.584 2.713s.5 1.722.803 2.539.642 1.604 1.013 2.361c.372.757.778 1.483 1.215 2.179a22.397 22.397 0 003.001 3.794 22.205 22.205 0 005.798 4.213c.723.366 1.472.697 2.244.993s1.567.556 2.385.78c.818.224 1.658.412 2.518.563s1.741.264 2.642.34 1.82.115 2.758.115a49.643 49.643 0 002.266-.05 48.508 48.508 0 001.391-.083 37.368 37.368 0 001.281-.123c.204-.023.402-.048.595-.074s.381-.055.563-.083c.182-.029.358-.06.529-.091s.335-.064.493-.099a12.516 12.516 0 00.875-.218c.132-.039.258-.079.377-.12s.312-.083.417-.126c.105-.043.374-.087.374-.132V543H867v-14h30v2.564zm72.661 17.548a37.31 37.31 0 01-.511 3.621c-.224 1.163-.5 2.28-.824 3.354a30.175 30.175 0 01-1.117 3.089 28.39 28.39 0 01-1.387 2.826 26.862 26.862 0 01-7.825 8.737c-.78.56-1.586 1.077-2.417 1.555s-1.684.913-2.558 1.309c-.874.396-1.768.75-2.677 1.064s-1.836.589-2.775.823c-.938.234-1.89.43-2.851.585a36.57 36.57 0 01-5.844.465c-1.072 0-2.129-.044-3.169-.132-1.039-.087-2.061-.217-3.062-.39s-1.983-.388-2.942-.645c-.959-.257-1.896-.554-2.809-.893s-1.801-.718-2.662-1.136a28.491 28.491 0 01-2.501-1.374 27.23 27.23 0 01-4.468-3.441 26.58 26.58 0 01-3.664-4.329 27.265 27.265 0 01-1.496-2.485c-.459-.862-.878-1.761-1.254-2.691s-.71-1.896-.999-2.893c-.29-.997-.534-2.026-.731-3.088s-.348-2.155-.448-3.279-.152-2.278-.152-3.464.049-2.344.145-3.474.239-2.232.428-3.305.424-2.117.703-3.129c.279-1.013.602-1.996.968-2.946.366-.95.775-1.869 1.226-2.754s.941-1.738 1.473-2.556 1.102-1.602 1.711-2.35 1.256-1.459 1.941-2.134a26.761 26.761 0 014.536-3.596 28.404 28.404 0 012.576-1.445c.892-.441 1.816-.842 2.771-1.2s1.94-.674 2.956-.947a35.254 35.254 0 013.131-.686 38.36 38.36 0 013.298-.417 41.997 41.997 0 013.457-.141c1.125 0 2.227.048 3.303.143 1.077.095 2.128.236 3.154.422 1.025.187 2.024.417 2.996.691a30.26 30.26 0 012.828.95c.914.358 1.799.758 2.653 1.198.854.44 1.677.919 2.468 1.436a26.634 26.634 0 017.852 7.915c.51.793.981 1.616 1.414 2.469.432.853.824 1.735 1.176 2.645s.662 1.847.93 2.811c.269.963.494 1.952.676 2.965s.319 2.05.412 3.109c.092 1.06.139 2.142.139 3.244a43.624 43.624 0 01-.178 3.894zm64.601-29.926l-.854 2.301-.854 2.358-.855 2.386-.855 2.401-.854 2.408-.854 2.411-.855 2.414-.855 2.414-.854 2.414-.854 2.414-.855 2.415-.855 2.415-.854 2.415-.854 2.415-.855 2.415a397.571 397.571 0 01-1.543 4.204c-.505 1.349-.999 2.646-1.484 3.894s-.962 2.445-1.431 3.598c-.468 1.151-.929 2.256-1.382 3.316s-.899 2.077-1.339 3.052c-.44.976-.874 1.909-1.302 2.803-.429.895-.852 1.75-1.271 2.568s-.833 1.601-1.243 2.349-.818 1.462-1.223 2.145a63.47 63.47 0 01-1.206 1.957 49.074 49.074 0 01-2.387 3.408 39.628 39.628 0 01-2.39 2.835 36.205 36.205 0 01-2.438 2.389 35.3 35.3 0 01-4.797 3.5 34.354 34.354 0 01-3.546 1.868 33.571 33.571 0 01-6.519 2.18 32.402 32.402 0 01-2.777.491l-.239-.968-.24-.967-.24-.968-.24-.968-.24-.967-.24-.968-.24-.968-.249-.965-.239-.968-.24-.968-.24-.967-.24-.968-.24-.968-.24-.967-.24-.968-.239-.968a13.745 13.745 0 001.342-.277 15.683 15.683 0 00.95-.267 24.794 24.794 0 001.997-.725c.171-.07.342-.145.514-.22s.345-.154.517-.235a27.172 27.172 0 001.041-.514 23.86 23.86 0 001.042-.573c.173-.101.346-.202.519-.308a13.604 13.604 0 001.043-.605c.174-.111.35-.228.524-.349a19.106 19.106 0 001.562-1.205c.171-.146.341-.296.51-.448a24.37 24.37 0 00.989-.955 22.4 22.4 0 001.801-2.092 20.167 20.167 0 00.778-1.106c.122-.186.239-.373.352-.561.037-.053.074-.105.109-.159a5.51 5.51 0 00.202-.324 4.41 4.41 0 00.178-.332c.027-.056.054-.112.078-.168.025-.056.05-.112.072-.169.023-.056.045-.111.065-.168l.059-.168a6.39 6.39 0 00.095-.337 4.976 4.976 0 00.064-.332 3.026 3.026 0 00.038-.483l-.002-.117-.005-.125-.009-.134-.015-.144-.02-.152-.026-.161-.033-.171-.041-.181a7.113 7.113 0 00-.255-.823c-.028-.075-.059-.152-.09-.231s-.065-.16-.102-.243a12.809 12.809 0 00-.243-.518l-1.343-3.353-1.342-3.353-1.343-3.352-1.343-3.353-1.342-3.353-1.343-3.352-1.343-3.353-1.342-3.353-1.343-3.353-1.343-3.352-1.342-3.352-1.343-3.353-1.343-3.353-1.342-3.353-1.343-3.124-1.342-3.116h20.286l.547 1.571.548 1.686.548 1.743.547 1.771.548 1.786.548 1.793.547 1.796.548 1.798.548 1.799.547 1.799.548 1.799.548 1.8.547 1.8.548 1.8.548 1.8.547 1.8.183.662.188.679.19.691.193.703.194.711.195.716.194.717.192.716.189.711.186.705c.062.233.121.465.181.694s.117.457.175.682.113.446.168.665l.16.646c.052.212.102.289.15.493.048.204.095.468.141.468h.353c.053 0 .105-.265.159-.47.054-.204.106-.348.161-.562s.108-.398.163-.619.11-.429.165-.655l.167-.68.168-.698.169-.71.168-.717.168-.72.169-.721.167-.716.167-.707.165-.696.163-.683.161-.664.159-.642.45-1.8.449-1.8.45-1.8.45-1.8.45-1.8.45-1.8.45-1.8.45-1.8.45-1.8.45-1.8.449-1.8.45-1.8.45-1.8.449-1.8.45-1.571.45-1.571h19.564l-.857 2.188zM1090.73 575h-15.406l-.067-.257-.068-.313-.067-.34-.067-.354-.067-.36-.067-.364-.067-.365-.067-.367-.067-.367-.067-.367-.067-.367-.067-.367-.067-.367-.067-.368-.068-.538-.067-.537h-.353c-.24 1-.488.746-.745 1.022-.257.275-.521.627-.794.886s-.553.551-.841.791c-.288.242-.583.495-.886.719s-.613.449-.93.655a19.92 19.92 0 01-.973.597 19.648 19.648 0 01-3.149 1.452 21.337 21.337 0 01-2.276.69 23.994 23.994 0 01-2.401.465 27.42 27.42 0 01-2.513.234c-.427.02-.857.029-1.293.029a23.25 23.25 0 01-2.17-.1 21.466 21.466 0 01-2.056-.29 19.825 19.825 0 01-3.749-1.107 18.01 18.01 0 01-3.246-1.731 17.266 17.266 0 01-3.866-3.563 17.378 17.378 0 01-1.87-2.885c-.262-.509-.5-1.029-.712-1.562s-.399-1.073-.561-1.624-.296-1.109-.404-1.676a18.571 18.571 0 01-.327-3.461c0-.953.054-1.874.159-2.765.104-.892.263-1.751.47-2.58s.465-1.628.771-2.396a17.728 17.728 0 012.408-4.24c.494-.646 1.033-1.262 1.616-1.848s1.211-1.141 1.88-1.666 1.381-1.02 2.132-1.485c.751-.465 1.544-.9 2.375-1.305.831-.405 1.702-.78 2.609-1.126s1.853-.661 2.833-.947c.981-.286 1.998-.542 3.048-.769s2.135-.424 3.252-.592a60.737 60.737 0 013.446-.416c1.181-.109 2.613-.189 3.854-.24s2.027-.072 4.027-.065v-.841c0-.195-.227-.395-.242-.599-.014-.204-.146-.412-.178-.622s-.129-.422-.18-.635c-.053-.213-.143-.428-.217-.642s-.174-.427-.274-.639a6.386 6.386 0 00-1.314-1.814 6.713 6.713 0 00-.635-.543 7.589 7.589 0 00-.748-.498 8.794 8.794 0 00-.868-.444c-.312-.139-.644-.267-1-.383s-.735-.221-1.138-.312c-.404-.091-.832-.169-1.285-.233s-.934-.113-1.439-.146a24.685 24.685 0 00-1.604-.051 28.423 28.423 0 00-3.394.204 32.566 32.566 0 00-2.249.342 33.887 33.887 0 00-2.197.484 34.819 34.819 0 00-2.113.607 34.47 34.47 0 00-1.996.709 32.956 32.956 0 00-1.843.792 23.051 23.051 0 00-2.407 1.301l-.21-.735-.21-.735-.21-.735-.21-.735-.21-.735-.21-.735-.21-.735-.21-.735-.21-.735-.21-.735-.21-.735-.21-.735-.21-.735-.21-.735-.21-.735-.21-.735a27.586 27.586 0 011.713-.876 35.099 35.099 0 012.069-.892 40.882 40.882 0 012.409-.866 46.883 46.883 0 012.733-.8 52.906 52.906 0 013.043-.694 54.327 54.327 0 016.952-.903 60.697 60.697 0 013.879-.128c1.223 0 2.393.045 3.514.133a36.69 36.69 0 013.211.389c1.021.171 1.994.382 2.92.632.926.25 1.805.538 2.638.862a22.65 22.65 0 012.368 1.077c.746.394 1.447.821 2.108 1.28a18.917 18.917 0 013.475 3.113c.5.576.963 1.178 1.389 1.805a20.22 20.22 0 011.17 1.954c.355.674.675 1.371.962 2.088.287.717.541 1.455.764 2.209s.414 1.528.576 2.317c.161.789.294 1.593.397 2.411.104.818.223 1.649.272 2.491.051.842.116 1.696.116 2.559v20.394c0 .353-.04.704-.038 1.055.002.35-.016.698-.012 1.045s-.001.691.005 1.034.007.683.015 1.021.015.672.025 1.003l.031.984c.013.324.026.645.041.961s.029.629.046.937.035.61.054.908a82.713 82.713 0 00.207 2.528 44.163 44.163 0 00.177 1.493c.032.235.065.351.1.569.035.219.07.522.108.522h-1.041z"/></g></svg>