<svg xmlns="http://www.w3.org/2000/svg" width="1920" height="1080"><g fill="#212529"><path d="M1156.818 537.437a16.966 16.966 0 00-.332-1.943c-.078-.33-.168-.663-.271-.994s-.219-.661-.349-.987a12.42 12.42 0 00-.435-.966c-.159-.316-.335-.627-.525-.929s-.398-.595-.624-.877-.469-.553-.729-.81a8.555 8.555 0 00-2.886-1.872c-.383-.151-.787-.282-1.216-.388s-.88-.188-1.354-.244a12.832 12.832 0 00-2.887-.004c-.445.052-.873.129-1.283.229s-.805.223-1.182.366a9.86 9.86 0 00-2.071 1.09 10.347 10.347 0 00-1.7 1.478 11.849 11.849 0 00-1.351 1.762 14.207 14.207 0 00-1.025 1.94 16.58 16.58 0 00-.974 3.011c-.073.33-.135.546-.187.868-.051.321-.091.833-.121.833H1156.921s-.008-.456-.023-.754c-.021-.298-.045-.495-.08-.809zM1018.674 540.776a11.557 11.557 0 00-.007-.186l-.01-.188c-.003-.063-.008-.126-.013-.189-.004-.063-.01-.127-.016-.19l-.019-.191-.021-.191-.024-.191-.026-.191c-.009-.064-.02-.127-.03-.19l-.032-.189-.035-.188a8.744 8.744 0 00-.037-.186l-.041-.184a9.69 9.69 0 00-.043-.182 11.437 11.437 0 00-2.271-4.829 10.894 10.894 0 00-1.941-1.879 10.294 10.294 0 00-2.404-1.341 10.172 10.172 0 00-1.832-.526 10.95 10.95 0 00-1.995-.185c-.524 0-1.033.028-1.525.082s-.968.135-1.428.241-.902.237-1.329.393-.837.335-1.23.539-.771.429-1.132.677c-.36.248-.705.518-1.033.809-.328.291-.64.603-.936.934-.295.331-.573.682-.836 1.051s-.509.757-.738 1.163a15.792 15.792 0 00-1.181 2.631c-.164.47-.313.956-.443 1.455s-.246 1.013-.344 1.539a23.805 23.805 0 00-.246 1.615 27.444 27.444 0 00-.148 1.686 31.294 31.294 0 00-.049 1.748c0 .615.019 1.217.055 1.804s.09 1.159.162 1.718c.071.558.16 1.101.266 1.627.106.527.229 1.039.369 1.534s.296.974.469 1.435c.172.461.361.906.565 1.332.204.427.425.836.661 1.226a12.618 12.618 0 001.596 2.113c.297.313.607.606.932.88a10.571 10.571 0 004.55 2.238c.432.097.876.17 1.332.219s.924.074 1.404.074a11.356 11.356 0 002.788-.352 10.673 10.673 0 001.706-.602 10.802 10.802 0 001.556-.863c.245-.165.483-.339.715-.522s.454-.377.669-.579a11.17 11.17 0 001.184-1.314 10.968 10.968 0 001.355-2.314 11.134 11.134 0 00.587-1.734c.022-.075.044-.151.064-.229.021-.077.04-.155.06-.235a8.656 8.656 0 00.103-.491 16.554 16.554 0 00.083-.508 18.019 18.019 0 00.064-.517l.026-.258.021-.258.019-.256.015-.252c.005-.083.008-.166.011-.247.004-.082.006-.163.008-.243s.164-.159.164-.237c.002-.077.162-.153.162-.229v-8.762c0-.06-.16-.12-.162-.182 0-.06-.162-.121-.164-.183zM888.951 547.574c-.561.032-1.111.075-1.649.129s-1.063.119-1.575.195c-.512.077-1.01.166-1.494.267s-.952.214-1.404.34-.888.266-1.307.418c-.419.152-.82.317-1.203.498s-.747.374-1.09.583c-.344.209-.667.432-.97.67s-.583.492-.842.763c-.258.27-.494.556-.706.857a6.958 6.958 0 00-.975 2.013 7.687 7.687 0 00-.252 1.162 9.738 9.738 0 00-.05 2.121c.024.274.059.538.106.793s.104.5.173.737c.068.236.147.464.236.682a6.11 6.11 0 00.651 1.197c.127.18.264.354.408.517a5.86 5.86 0 001.518 1.217 6.694 6.694 0 001.224.539 8.223 8.223 0 001.366.322 9.474 9.474 0 001.481.107 10.25 10.25 0 002.466-.302 9.782 9.782 0 001.512-.508 10.474 10.474 0 001.384-.722c.219-.137.432-.281.638-.434s.406-.311.599-.477a10.125 10.125 0 001.536-1.66 9.4 9.4 0 001.346-2.62l.044-.182.041-.184c.014-.062.025-.123.038-.186l.036-.189c.012-.063.022-.127.032-.19l.03-.193.027-.194.024-.195.021-.197.018-.199.016-.2.013-.2.01-.202.007-.202c.002-.067-.216-.135-.215-.202s-.22-.134-.22-.202V547.509a41.77 41.77 0 00-3.049.065z"/><path d="M0 0v1080h1920V0H0zm877.965 507.972l.645-1.084.645-1.112.645-1.126.645-1.132.645-1.137.645-1.139.645-1.139.645-1.139.645-1.14.645-1.14.645-1.14.645-1.14.645-1.14.645-1.132.645-1.132h16.922l-.915 1.132-.915 1.136-.915 1.138-.915 1.139-.915 1.139-.915 1.14-.915 1.14-.915 1.14-.915 1.14-.915 1.14-.915 1.14-.915 1.14-.915 1.14-.915 1.14-.915 1.028-.918 1.028H877.315l.65-1.028zm-119.491-3.519l-1.703 5.055-1.702 5.055-1.702 5.055-1.703 5.055-1.703 5.055-1.702 5.055-1.702 5.055-1.703 5.055-1.703 5.055-1.702 5.055-1.703 5.055-1.703 5.055-1.702 4.944L734.64 575H713.281l-1.62-4.944-1.62-4.999-1.62-5.027-1.62-5.041-1.62-5.048-1.62-5.052-1.62-5.053-1.62-5.055-1.62-5.054-1.62-5.055-1.62-5.055-1.62-5.055-1.62-5.055-1.62-5.055-1.62-5.227-1.62-5.227h20.032l.615 2.309.615 2.224.615 2.18.615 2.159.615 2.148.615 2.143.615 2.14.615 2.139.615 2.139.615 2.137.615 2.138.615 2.138.615 2.138.615 2.137.615 2.137.615 2.138.515 1.796.508 1.789a691.513 691.513 0 01.996 3.565c.164.593.326 1.187.487 1.78.161.593.32 1.187.479 1.78a274.608 274.608 0 01.93 3.568c.151.597.302 1.193.451 1.792a295.862 295.862 0 01.869 3.608c.142.604.281 1.211.418 1.819s.272 1.219.406 1.832.265 1.229.394 1.847c.129.617.256 1.008.38 1.632.125.623.247 1.649.367 1.649H724.787c.127 0 .257-.984.388-1.59.131-.607.264-1.098.399-1.703s.271-1.152.409-1.757c.139-.604.278-1.179.42-1.782.142-.602.285-1.19.43-1.791a335.473 335.473 0 01.887-3.588 334.455 334.455 0 011.396-5.354l.481-1.774a410.292 410.292 0 011.487-5.278c.168-.583.338-1.164.508-1.745.171-.58.342-1.159.515-1.736l.645-2.16.645-2.16.645-2.16.645-2.16.645-2.16.645-2.16.645-2.16.645-2.16.645-2.16.645-2.16.645-2.16.645-2.16.645-2.16.645-2.16.645-2.332.658-2.329h19.44l-1.702 5.227-1.704 5.226zm58.841 40.629c-.002.191-.006.382-.012.57s-.011.375-.019.56a44.55 44.55 0 01-.175 2.565l-.046.456-.048.434c-.016.141-.033.276-.05.408l-.05.384c-.016.124-.034.242-.05.356l-.05.326c-.016.103-.033.353-.048.446-.016.093-.031.413-.046.413H778.926c.038 0 .102.78.191 1.222.089.441.204.792.343 1.204.139.41.301.769.486 1.149s.393.727.622 1.077.479.677.748.997c.27.319.559.62.866.91.308.29.633.562.976.822.343.26.702.504 1.077.735s.766.446 1.17.647c.405.201.823.387 1.254.559s.875.329 1.331.473c.455.143.921.271 1.397.385s.962.214 1.457.299a25.93 25.93 0 003.057.34c.523.028 1.051.042 1.583.042a73.297 73.297 0 002.285-.039 64.117 64.117 0 002.186-.116 58.272 58.272 0 002.099-.192 52.761 52.761 0 003.012-.429 48.04 48.04 0 003.829-.823 47.502 47.502 0 002.787-.801l.15.772.15.772.15.772.15.772.15.772.15.772.15.772.15.772.15.772.15.772.15.772.15.772.15.772.15.772.15.772.15.772a41.457 41.457 0 01-3.509 1.224 48.789 48.789 0 01-3.759.971 55.587 55.587 0 01-3.981.717 61.052 61.052 0 01-2.764.337 63.192 63.192 0 01-2.841.225 70.513 70.513 0 01-4.386.127c-1.245 0-2.457-.045-3.634-.134s-2.321-.222-3.43-.397-2.183-.394-3.222-.653a33.283 33.283 0 01-3.01-.902 29.99 29.99 0 01-2.793-1.145 27.513 27.513 0 01-2.572-1.381c-.82-.499-1.603-1.036-2.348-1.61s-1.451-1.186-2.119-1.832-1.296-1.33-1.885-2.047a24.667 24.667 0 01-1.647-2.256c-.509-.785-.978-1.604-1.405-2.456s-.814-1.735-1.16-2.651-.648-1.862-.909-2.839c-.261-.978-.479-1.984-.654-3.021s-.308-2.102-.396-3.193a41.903 41.903 0 01-.133-3.361 36.17 36.17 0 01.437-5.618 35.315 35.315 0 011.325-5.552 33.77 33.77 0 011.003-2.687c.373-.881.784-1.746 1.234-2.591.45-.845.938-1.669 1.467-2.469.528-.8 1.096-1.575 1.704-2.322s1.255-1.463 1.943-2.147a26.518 26.518 0 014.613-3.665 26.443 26.443 0 012.676-1.466c.934-.444 1.909-.84 2.927-1.186a28.929 28.929 0 013.18-.88 31.807 31.807 0 013.436-.547 35.57 35.57 0 017.112-.019c1.094.111 2.143.277 3.149.493s1.968.482 2.887.795c.919.313 1.796.672 2.632 1.075a22.101 22.101 0 014.522 2.902c.674.56 1.309 1.156 1.905 1.784.597.627 1.155 1.288 1.676 1.976s1.005 1.405 1.454 2.146c.448.741.861 1.507 1.238 2.293s.72 1.595 1.03 2.42c.309.825.584 1.668.827 2.524.243.856.453 1.727.632 2.607.179.88.326 1.771.442 2.667.117.896.204 1.8.261 2.705.057.906.085 1.814.085 2.722l-.007.586zM846 495.349V575H828V490h18v5.349zM910.011 575H894.603l-.068-.257-.067-.313-.067-.34-.067-.354-.067-.36-.067-.364-.067-.365-.067-.367-.067-.367-.067-.367-.067-.367-.068-.367-.068-.367-.067-.368-.067-.538-.075-.539H893.166c-.24 1-.488.746-.745 1.022-.256.275-.521.627-.793.886-.273.259-.553.551-.841.791-.288.242-.583.495-.886.719s-.613.449-.93.655c-.317.206-.641.408-.972.597a19.925 19.925 0 01-2.062 1.024 21.284 21.284 0 01-2.208.802 24.92 24.92 0 01-3.556.781 26.218 26.218 0 01-2.512.234c-.427.02-.858.029-1.293.029-.743 0-1.466-.034-2.17-.1-.705-.065-1.39-.163-2.055-.29a19.825 19.825 0 01-3.749-1.107 18.01 18.01 0 01-3.245-1.731 17.25 17.25 0 01-2.715-2.261 17.378 17.378 0 01-3.02-4.187 18.198 18.198 0 01-1.676-4.862 18.571 18.571 0 01-.328-3.461c0-.953.053-1.874.159-2.765.105-.892.263-1.751.47-2.58s.465-1.628.771-2.396a17.728 17.728 0 012.407-4.24c.494-.646 1.034-1.262 1.617-1.848s1.21-1.141 1.879-1.666a23.431 23.431 0 012.132-1.485c.751-.465 1.544-.9 2.375-1.305.831-.405 1.702-.78 2.609-1.126.907-.346 1.853-.661 2.833-.947s1.997-.542 3.047-.769 2.135-.424 3.252-.592 2.266-.307 3.447-.416 2.472-.189 3.712-.24a93.254 93.254 0 013.889-.065V535.26c0-.195-.087-.395-.102-.599-.015-.204-.077-.412-.109-.622s-.093-.422-.145-.635a7.272 7.272 0 00-.465-1.281 6.33 6.33 0 00-1.939-2.357c-.229-.174-.479-.34-.748-.498s-.558-.306-.869-.444a10.174 10.174 0 00-1-.383c-.356-.116-.735-.221-1.138-.312s-.831-.169-1.285-.233-.933-.113-1.44-.146a24.654 24.654 0 00-1.603-.051 28.373 28.373 0 00-3.393.204 32.84 32.84 0 00-2.248.342 38.5 38.5 0 00-2.198.484 34.819 34.819 0 00-2.113.607 34.47 34.47 0 00-1.996.709c-.321.126-.635.255-.943.387a26.972 26.972 0 00-2.557 1.261 19.25 19.25 0 00-.749.445l-.21-.735-.21-.735-.21-.735-.21-.735-.21-.735-.21-.735-.21-.735-.21-.735-.21-.735-.21-.735-.21-.735-.21-.735-.21-.735-.21-.735-.21-.735-.21-.735a27.586 27.586 0 011.713-.876 35.099 35.099 0 012.069-.892 41.767 41.767 0 012.409-.866 47.917 47.917 0 014.218-1.163 50.007 50.007 0 013.192-.625 53.898 53.898 0 013.478-.457 57.813 57.813 0 015.72-.28c1.223 0 2.393.045 3.513.133 1.12.087 2.19.218 3.211.389s1.994.382 2.92.632c.926.25 1.805.538 2.639.862.833.324 1.623.684 2.368 1.077.746.394 1.447.821 2.108 1.28a18.962 18.962 0 013.476 3.113c.5.576.963 1.178 1.389 1.805.426.627.815 1.279 1.17 1.954s.675 1.371.961 2.088c.287.717.541 1.455.764 2.209s.414 1.528.576 2.317c.162.789.294 1.593.398 2.411s.081 1.649.132 2.491-.033 1.699-.033 2.562V560.936c0 .353.101.704.103 1.055.002.35.054.698.058 1.045.003.347.033.691.039 1.034s.025.683.034 1.021c.008.338.023.672.033 1.003.01.331.024.659.037.984a209.63 209.63 0 00.089 1.898c.016.308.036.61.055.908a69.676 69.676 0 00.291 3.296c.03.248.06.49.092.725s.065.351.1.569.071.522.108.522h-1.028zM971 561.608V575h-51V564.786l1.116-1.447 1.135-1.447 1.145-1.447 1.15-1.448 1.152-1.448 1.153-1.447 1.155-1.447 1.155-1.447 1.154-1.447 1.155-1.447 1.155-1.447 1.155-1.448 1.155-1.448 1.155-1.447 1.155-1.447 1.155-1.447.622-.73.607-.708.594-.688c.196-.227.391-.449.584-.67l.575-.655a214.111 214.111 0 011.134-1.278l.563-.627.563-.623a317.649 317.649 0 012.294-2.501l.595-.641c.2-.216.522-.433.727-.653.205-.22.742-.442.742-.667V530.964 531H922V517h48v10.467l-1.123 1.387-1.113 1.388-1.107 1.387-1.104 1.387-1.104 1.388-1.103 1.387-1.104 1.387-1.103 1.388-1.103 1.387-1.103 1.387-1.103 1.388-1.102 1.388-1.102 1.388-1.103 1.388-1.103 1.387-1.103 1.388c-.203.239-.404.479-.605.718l-.6.716-.596.711-.593.707-.591.702-.59.696c-.196.231-.393.462-.59.69l-.59.685c-.197.228-.394.452-.591.677a94.657 94.657 0 01-2.398 2.627c-.203.213-.407.424-.612.634s-.271.417-.478.624c-.208.206-.486.41-.486.613V561H971v.608zm66.255-43.777l-.026.952-.027 1.015-.029 1.048-.029 1.068c-.009.361-.02.718-.03 1.082l-.029 1.09c-.011.366-.021.73-.029 1.098s-.019.735-.027 1.104-.018.739-.025 1.11c-.009.371-.016.744-.022 1.117-.008.373-.014.747-.021 1.122s-.012.751-.017 1.128-.009.754-.012 1.133c-.004.379.035.759.033 1.139s.037.762.037 1.145V599H1019v-31H1018.434c-.232 0-.473.63-.723.956-.249.326-.506.618-.772.925s-.54.592-.823.879a18.818 18.818 0 01-2.765 2.302 18.322 18.322 0 01-2.087 1.229 18.606 18.606 0 01-2.277.972c-.396.141-.799.27-1.21.387s-.829.223-1.256.317-.86.178-1.303.249a24.941 24.941 0 01-2.744.289c-.473.023-.952.036-1.439.036a21.701 21.701 0 01-4.698-.516 21.853 21.853 0 01-4.473-1.521 22.64 22.64 0 01-2.113-1.123 23.253 23.253 0 01-3.905-2.947c-.609-.566-1.197-1.172-1.76-1.813s-1.1-1.318-1.61-2.032-.993-1.463-1.446-2.247a29.338 29.338 0 01-1.266-2.455c-.391-.854-.748-1.74-1.07-2.659s-.609-1.872-.859-2.856c-.25-.985-.461-2.002-.633-3.051s-.303-2.128-.392-3.238a42.77 42.77 0 01-.134-3.42c0-1.313.053-2.584.154-3.813.102-1.23.252-2.419.447-3.567.196-1.147.438-2.254.721-3.319s.609-2.09.973-3.073.766-1.925 1.203-2.825c.437-.901.908-1.76 1.412-2.579s1.038-1.596 1.601-2.333a26.514 26.514 0 013.684-3.926 25.224 25.224 0 014.184-2.943c.729-.408 1.474-.776 2.227-1.103s1.518-.613 2.288-.858a23.65 23.65 0 014.679-.979 22.855 22.855 0 012.348-.123c.472 0 .937.011 1.394.032a26.29 26.29 0 012.643.258 21.89 21.89 0 012.446.515c.392.107.774.225 1.149.353s.74.267 1.099.417.708.31 1.049.48.674.352.998.543.64.394.947.607.606.436.896.669.571.478.845.732a15.63 15.63 0 011.532 1.652c.237.296.467.411.687.729.221.316.432.79.635.79H1019.163l.03-.236.03-.332.029-.38.03-.403.03-.415.029-.422.03-.425.03-.426.029-.427.03-.427.03-.427.029-.427.03-.427.03-.428.029-.199.03-.198h17.647c-.014 0-.021.477-.03.831zM1106.248 575H1091.402l-.053-.407-.053-.462-.053-.49-.052-.504-.052-.511-.053-.515-.053-.516-.053-.517-.053-.517-.053-.518-.053-.518-.052-.518-.052-.518-.053-.518-.053-.488-.053-.486H1090.205c-.142 0-.297.43-.466.672-.168.24-.35.476-.545.729a21.286 21.286 0 01-3.017 3.161 20.358 20.358 0 01-3.216 2.237 20.338 20.338 0 01-2.638 1.24c-.474.184-.966.354-1.476.508a22.274 22.274 0 01-3.275.729c-.583.086-1.186.151-1.807.196s-1.262.068-1.921.068c-.743 0-1.473-.029-2.189-.088s-1.42-.147-2.108-.267-1.361-.27-2.019-.451-1.298-.395-1.921-.64a17.534 17.534 0 01-3.513-1.864 16.84 16.84 0 01-3.023-2.674 18.318 18.318 0 01-1.308-1.653c-.411-.588-.798-1.211-1.159-1.871s-.696-1.357-1.004-2.093-.588-1.508-.84-2.319-.475-1.662-.667-2.551c-.193-.89-.356-1.818-.487-2.787s-.332-1.978-.398-3.027-.201-2.141-.201-3.273V517H1070v31.105c0 .532-.21 1.052-.188 1.558.022.506-.056.998-.012 1.477.044.478.044.942.11 1.392.066.45.117.885.207 1.306s.177.826.29 1.217c.112.39.23.765.367 1.124s.282.703.444 1.03c.16.327.332.638.518.933s.383.572.593.833c.211.261.433.504.669.729.236.227.485.435.747.625a7.237 7.237 0 001.729.925c.315.116.645.215.986.294s.697.139 1.067.179a10.68 10.68 0 002.94-.095 9.078 9.078 0 003.625-1.502 9.524 9.524 0 001.125-.92 10.244 10.244 0 00.948-1.031 10.857 10.857 0 00.776-1.096 11.006 11.006 0 00.61-1.111c.089-.184.17-.365.245-.546a4.272 4.272 0 00.164-.421 6.903 6.903 0 00.132-.452c.021-.077.038-.155.056-.234s.033-.16.049-.241.029-.163.043-.246c.013-.083.025-.167.036-.251l.031-.256c.009-.086.018-.172.025-.259s.015-.174.021-.262a21 21 0 00.028-.532c.003-.089.007-.179.009-.269s-.195-.18-.195-.27c.002-.09-.197-.18-.197-.27V517h18.994V556.38c0 .48-.12.954-.118 1.423s-.056.933-.053 1.39c.003.458-.022.91-.018 1.356.006.446-.003.888.003 1.323s.006.865.015 1.29c.008.425.013.843.021 1.257s.017.822.027 1.225a360.638 360.638 0 00.102 3.478l.04 1.095c.013.36.026.714.041 1.063l.043 1.031c.015.339.028.672.044 1.001.015.328.029.541.044.858.015.318.03.828.045.828h-.98zm67.585-29.918a52.527 52.527 0 01-.031 1.13l-.025.545a41.052 41.052 0 01-.066 1.046 55.8 55.8 0 01-.04.496c-.015.162-.028.322-.044.478l-.047.456c-.016.148-.031.293-.048.434l-.05.408-.051.384c-.017.124-.033.242-.051.356-.017.113-.033.223-.05.326s-.032.353-.048.446c-.016.093-.031.413-.047.413H1135.442c.038 0 .102.78.191 1.222.089.441.204.792.343 1.204.139.41.301.769.486 1.149a10.366 10.366 0 001.37 2.074c.27.319.559.62.866.91s.633.562.976.822c.343.26.702.504 1.077.735s.766.446 1.17.647c.405.201.824.387 1.255.559a19.3 19.3 0 002.727.858c.476.114.963.214 1.457.299a25.808 25.808 0 003.058.34c.523.028 1.051.042 1.583.042a73.297 73.297 0 002.285-.039 64.236 64.236 0 002.186-.116 58.272 58.272 0 002.099-.192 51.82 51.82 0 003.986-.608 46.711 46.711 0 001.913-.412 49.339 49.339 0 003.73-1.033l.15.772.149.772.149.772.15.772.15.772.149.772.149.772.15.772.15.772.149.772.149.772.15.772.15.772.15.772.15.772.149.772a40.325 40.325 0 01-2.311.844 47.957 47.957 0 01-3.679 1.056 54.345 54.345 0 01-3.91.801c-.446.075-.896.146-1.35.211s-.91.126-1.371.183-.925.107-1.392.154a64.281 64.281 0 01-2.841.225 70.405 70.405 0 01-4.387.127c-1.245 0-2.457-.045-3.635-.134s-2.32-.222-3.43-.397-2.184-.394-3.222-.653a33.305 33.305 0 01-3.011-.902 29.99 29.99 0 01-2.793-1.145c-.895-.422-1.752-.882-2.572-1.381s-1.604-1.036-2.348-1.61c-.745-.574-1.451-1.186-2.119-1.832s-1.296-1.33-1.885-2.047a24.667 24.667 0 01-1.647-2.256c-.509-.785-.978-1.604-1.405-2.456s-.814-1.735-1.16-2.651a29.767 29.767 0 01-.908-2.839 32.675 32.675 0 01-.654-3.021 36.302 36.302 0 01-.396-3.193 41.903 41.903 0 01-.133-3.361 36.67 36.67 0 01.436-5.618 35.794 35.794 0 011.326-5.552c.296-.908.631-1.805 1.003-2.687.373-.881.783-1.746 1.233-2.591.45-.845.939-1.669 1.468-2.469.528-.8 1.096-1.575 1.703-2.322s1.255-1.463 1.942-2.147 1.415-1.334 2.185-1.946a26.218 26.218 0 015.106-3.185c.934-.444 1.909-.84 2.927-1.186s2.077-.641 3.18-.88 2.247-.423 3.436-.547a35.584 35.584 0 017.112-.019c1.095.111 2.145.277 3.149.493s1.968.482 2.887.795c.919.313 1.796.672 2.632 1.075a22.101 22.101 0 014.523 2.902c.674.56 1.309 1.156 1.905 1.784.596.627 1.154 1.288 1.676 1.976s1.006 1.405 1.454 2.146a27 27 0 011.237 2.293c.378.787.721 1.595 1.029 2.42.31.825.585 1.668.828 2.524.242.856.453 1.727.632 2.607.179.88.325 1.771.442 2.667a41.323 41.323 0 01.347 5.427c.005.201.004.395.001.586zM1231 561.608V575H1180V564.786l1.194-1.447 1.175-1.447 1.164-1.447 1.16-1.448 1.158-1.448 1.155-1.447 1.155-1.447 1.156-1.447 1.154-1.447 1.155-1.447 1.155-1.447 1.154-1.448 1.155-1.448 1.155-1.447 1.154-1.447 1.155-1.447.622-.73.607-.708c.2-.233.398-.461.595-.688l.584-.67c.192-.221.385-.439.575-.655.19-.217.381-.431.569-.644s.377-.424.565-.634l.562-.627.563-.623.565-.621.569-.623a1474.96 1474.96 0 011.159-1.257l.595-.641c.2-.216.442-.433.647-.653.205-.22.664-.442.664-.667V530.964 531H1182V517H1230v10.467l-1.045 1.387-1.072 1.388-1.088 1.387-1.096 1.387-1.099 1.388-1.101 1.387-1.102 1.387-1.102 1.388-1.103 1.387-1.103 1.387-1.103 1.388-1.103 1.388-1.103 1.388-1.103 1.388-1.103 1.387-1.103 1.388-.604.718c-.2.239-.4.479-.6.716l-.597.711-.593.707-.592.702c-.196.233-.394.465-.59.696s-.393.462-.589.69l-.59.685a98.841 98.841 0 01-1.186 1.347 93.616 93.616 0 01-1.199 1.313c-.202.215-.403.431-.606.644-.202.213-.406.424-.611.634s-.35.417-.557.624c-.208.206-.564.41-.564.613V561H1231v.608z"/><path d="M800.301 537.437a16.101 16.101 0 00-.603-2.937c-.103-.331-.219-.661-.349-.987s-.274-.649-.434-.966c-.16-.316-.334-.627-.525-.929s-.399-.595-.624-.877-.468-.553-.729-.81a8.555 8.555 0 00-2.885-1.872c-.383-.151-.788-.282-1.216-.388s-.879-.188-1.355-.244a12.832 12.832 0 00-2.887-.004c-.445.052-.873.129-1.283.229s-.804.223-1.182.366a9.86 9.86 0 00-2.071 1.09 10.196 10.196 0 00-1.7 1.478 11.835 11.835 0 00-1.35 1.762 14.207 14.207 0 00-1.025 1.94 15.934 15.934 0 00-.721 2.011c-.096.335-.18.67-.253 1s-.135.546-.186.868c-.051.321-.091.833-.122.833H800.4s-.007-.456-.023-.754-.042-.495-.076-.809z"/></g></svg>