<?xml version="1.0" encoding="utf-8"?>
<!-- Generator: Adobe Illustrator 16.0.0, SVG Export Plug-In . SVG Version: 6.00 Build 0)  -->
<!DOCTYPE svg PUBLIC "-//W3C//DTD SVG 1.1//EN" "http://www.w3.org/Graphics/SVG/1.1/DTD/svg11.dtd">
<svg version="1.1" id="Layer_1" xmlns="http://www.w3.org/2000/svg" xmlns:xlink="http://www.w3.org/1999/xlink" x="0px" y="0px"
	 width="1920px" height="1080px" viewBox="0 0 1920 1080" enable-background="new 0 0 1920 1080" xml:space="preserve">
<g>
	<path fill="#212529" d="M970.672,547.574c-0.561,0.032-1.111,0.075-1.648,0.129c-0.538,0.054-1.063,0.119-1.575,0.195
		c-0.513,0.077-1.011,0.166-1.494,0.267s-0.952,0.214-1.404,0.34s-0.889,0.266-1.308,0.418c-0.418,0.152-0.82,0.317-1.202,0.498
		s-0.746,0.374-1.09,0.583s-0.667,0.432-0.97,0.67s-0.583,0.492-0.842,0.763c-0.258,0.27-0.494,0.556-0.706,0.857
		s-0.4,0.62-0.563,0.955c-0.163,0.335-0.301,0.688-0.412,1.058c-0.111,0.369-0.196,0.757-0.252,1.162s-0.086,0.829-0.086,1.271
		c0,0.293,0.012,0.576,0.036,0.85s0.06,0.538,0.106,0.793s0.104,0.5,0.173,0.737c0.068,0.236,0.147,0.464,0.236,0.682
		s0.188,0.427,0.297,0.626c0.108,0.2,0.227,0.391,0.354,0.571s0.264,0.354,0.408,0.517c0.145,0.162,0.298,0.316,0.459,0.46
		s0.33,0.279,0.507,0.405c0.177,0.127,0.361,0.244,0.552,0.352s0.389,0.207,0.593,0.297c0.204,0.09,0.415,0.17,0.632,0.242
		s0.438,0.135,0.666,0.188s0.461,0.099,0.699,0.134c0.238,0.036,0.48,0.063,0.728,0.081c0.247,0.018,0.498,0.026,0.753,0.026
		c0.285,0,0.566-0.012,0.845-0.035c0.278-0.022,0.552-0.057,0.822-0.102s0.536-0.1,0.798-0.165s0.52-0.141,0.771-0.226
		s0.499-0.18,0.741-0.282c0.241-0.104,0.478-0.216,0.709-0.336s0.456-0.249,0.676-0.386c0.219-0.137,0.432-0.281,0.638-0.434
		s0.406-0.311,0.599-0.477s0.378-0.339,0.557-0.518s0.349-0.363,0.513-0.554c0.162-0.19,0.318-0.387,0.465-0.588
		c0.147-0.201,0.287-0.407,0.417-0.618s0.252-0.426,0.364-0.645c0.113-0.219,0.217-0.442,0.312-0.669s0.179-0.456,0.254-0.688
		c0.015-0.061,0.029-0.121,0.044-0.182c0.014-0.061,0.027-0.122,0.04-0.184s0.026-0.123,0.038-0.186s0.023-0.126,0.035-0.189
		s0.021-0.127,0.032-0.19c0.011-0.064,0.021-0.128,0.029-0.193c0.009-0.064,0.019-0.129,0.026-0.194
		c0.009-0.064,0.018-0.13,0.024-0.195s0.015-0.131,0.021-0.197s0.013-0.133,0.019-0.199s0.011-0.133,0.016-0.2
		c0.004-0.066,0.009-0.134,0.013-0.2c0.003-0.067,0.007-0.135,0.01-0.202s0.005-0.135,0.007-0.202s-0.076-0.135-0.076-0.202
		c0.002-0.067-0.078-0.135-0.078-0.202v-0.397v-0.397v-0.397v-0.397v-0.397v-0.397v-0.397v-0.397v-0.397v-0.397v-0.397v-0.397
		v-0.397v-0.397v-0.397v-0.397c0-0.008-1.111-0.006-1.693,0.006S971.232,547.542,970.672,547.574z"/>
	<path fill="#212529" d="M911.705,527.536c-0.144-0.925-0.325-1.819-0.542-2.682s-0.47-1.693-0.757-2.492
		c-0.288-0.799-0.61-1.565-0.967-2.3s-0.748-1.438-1.171-2.108c-0.423-0.67-0.88-1.308-1.368-1.914
		c-0.489-0.605-1.009-1.178-1.56-1.718s-1.133-1.047-1.746-1.521c-0.612-0.475-1.254-0.916-1.925-1.323s-1.371-0.782-2.099-1.123
		c-0.728-0.341-1.484-0.649-2.267-0.923c-0.783-0.273-1.592-0.514-2.428-0.72c-0.835-0.206-1.697-0.378-2.583-0.516
		s-1.798-0.242-2.734-0.311c-0.936-0.069-1.895-0.104-2.877-0.104c-0.255,0-0.504,0.001-0.748,0.004
		c-0.244,0.003-0.482,0.007-0.715,0.012s-0.46,0.012-0.682,0.02s-0.438,0.017-0.65,0.026s-0.417,0.021-0.619,0.033
		s-0.396,0.025-0.587,0.039s-0.376,0.028-0.557,0.043c-0.181,0.015-0.356,0.032-0.527,0.048s-0.336,0.034-0.497,0.053
		c-0.161,0.018-0.317,0.037-0.468,0.056c-0.151,0.02-0.298,0.04-0.44,0.06c-0.142,0.021-0.279,0.042-0.412,0.063
		s-0.261,0.042-0.384,0.064c-0.124,0.021-0.243,0.043-0.357,0.065s-0.425,0.044-0.531,0.067c-0.105,0.022-0.505,0.045-0.505,0.067
		v3.308v3.307v3.307v3.308v3.308v3.307v3.307v3.308v3.307v3.307v3.308v3.308v3.308v3.308v3.307v3.308
		c0,0.022,0.398,0.044,0.503,0.063c0.104,0.021,0.313,0.039,0.424,0.056c0.111,0.018,0.276,0.034,0.394,0.049
		s0.263,0.028,0.386,0.041s0.26,0.023,0.388,0.034c0.127,0.011,0.264,0.021,0.396,0.029c0.132,0.009,0.27,0.017,0.405,0.023
		c0.135,0.008,0.274,0.014,0.413,0.02s0.279,0.011,0.421,0.015c0.141,0.005,0.284,0.008,0.427,0.011
		c0.143,0.004,0.288,0.006,0.432,0.008c0.145,0.003,0.29,0.004,0.435,0.006s0.291,0.111,0.436,0.113
		c0.146,0,0.291,0.111,0.436,0.111s0.29,0,0.434,0s0.288,0,0.43,0c1.035,0,2.047-0.131,3.036-0.196
		c0.989-0.064,1.954-0.221,2.894-0.358c0.94-0.138,1.855-0.34,2.744-0.551c0.889-0.211,1.752-0.473,2.587-0.758
		c0.835-0.285,1.644-0.614,2.422-0.974c0.779-0.359,1.53-0.759,2.25-1.192s1.412-0.907,2.071-1.416
		c0.66-0.51,1.288-1.058,1.884-1.643s1.161-1.209,1.691-1.87s1.027-1.36,1.489-2.099c0.462-0.737,0.889-1.514,1.28-2.328
		c0.391-0.815,0.746-1.669,1.063-2.562c0.318-0.892,0.599-1.823,0.84-2.794c0.242-0.971,0.446-1.98,0.609-3.029
		c0.164-1.049,0.288-2.138,0.371-3.266c0.083-1.128,0.125-2.295,0.125-3.503c0.007-1.05-0.024-2.069-0.093-3.057
		S911.849,528.461,911.705,527.536z"/>
	<path fill="#212529" d="M0,0v1080h1920V0H0z M931.492,535.708c-0.043,0.93-0.107,1.842-0.192,2.735
		c-0.084,0.893-0.189,1.768-0.314,2.625s-0.269,1.695-0.431,2.516s-0.344,1.622-0.543,2.407c-0.199,0.784-0.416,1.551-0.65,2.299
		c-0.234,0.749-0.485,1.48-0.751,2.193c-0.267,0.714-0.55,1.41-0.848,2.089s-0.611,1.341-0.939,1.985s-0.67,1.271-1.025,1.881
		c-0.356,0.61-0.725,1.203-1.107,1.78c-0.382,0.576-0.776,1.136-1.183,1.678s-0.825,1.068-1.254,1.578s-0.869,1.003-1.32,1.479
		s-0.911,0.938-1.38,1.383c-0.47,0.444-0.949,0.873-1.437,1.285c-0.532,0.442-1.082,0.87-1.649,1.283
		c-0.567,0.414-1.151,0.813-1.751,1.197s-1.217,0.755-1.85,1.111c-0.633,0.355-1.282,0.697-1.948,1.025s-1.346,0.641-2.042,0.94
		s-1.408,0.585-2.135,0.856c-0.727,0.271-1.469,0.528-2.226,0.771c-0.757,0.244-1.528,0.473-2.313,0.688s-1.585,0.417-2.399,0.605
		s-1.642,0.362-2.483,0.523s-1.696,0.308-2.564,0.441c-0.868,0.133-1.749,0.253-2.643,0.359c-0.894,0.106-1.801,0.199-2.72,0.279
		c-0.919,0.079-1.851,0.146-2.794,0.198s-1.899,0.092-2.866,0.119c-0.967,0.025-1.946,0.039-2.936,0.039
		c-0.593,0-1.174-0.002-1.746-0.007c-0.571-0.005-1.131-0.012-1.681-0.021s-1.089-0.02-1.618-0.032
		c-0.529-0.013-1.048-0.027-1.557-0.044s-1.007-0.035-1.495-0.055s-0.967-0.041-1.435-0.063s-0.927-0.047-1.375-0.072
		c-0.449-0.026-0.888-0.053-1.317-0.081c-0.429-0.028-0.849-0.058-1.259-0.088c-0.41-0.03-0.811-0.062-1.203-0.094
		s-0.773-0.065-1.146-0.1c-0.373-0.033-0.737-0.068-1.092-0.104c-0.354-0.035-0.7-0.07-1.037-0.107
		c-0.337-0.035-0.665-0.072-0.984-0.109s-0.65-0.074-0.953-0.111S860,574.898,860,574.86v-4.965v-4.965v-4.965v-4.965v-4.965v-4.965
		v-4.965v-4.965v-4.965v-4.965v-4.965v-4.965v-4.965v-4.965v-4.965v-4.964c0-0.068,0.868-0.133,1.304-0.197
		c0.436-0.064,0.889-0.126,1.339-0.186c0.45-0.06,0.914-0.118,1.377-0.174c0.465-0.056,0.938-0.11,1.416-0.162
		s0.963-0.102,1.453-0.15c0.49-0.048,0.987-0.094,1.489-0.138c0.502-0.044,1.01-0.086,1.522-0.125
		c0.513-0.04,1.032-0.078,1.555-0.113s1.051-0.069,1.583-0.101c0.533-0.031,1.069-0.061,1.611-0.088
		c0.542-0.027,1.086-0.052,1.636-0.074c0.549-0.023,1.102-0.043,1.659-0.062c0.557-0.019,1.116-0.034,1.679-0.048
		c0.563-0.014,1.128-0.025,1.697-0.035s1.14-0.016,1.713-0.021c0.573-0.004,1.149-0.007,1.727-0.007c0.96,0,1.899,0.011,2.817,0.032
		c0.918,0.022,1.817,0.054,2.696,0.098c0.878,0.043,1.738,0.098,2.579,0.164c0.84,0.065,1.662,0.142,2.466,0.229
		s1.59,0.187,2.358,0.296s1.521,0.231,2.256,0.364s1.454,0.276,2.158,0.432s1.391,0.322,2.064,0.5s1.332,0.368,1.976,0.569
		c0.645,0.201,1.275,0.414,1.892,0.638s1.221,0.46,1.813,0.708c0.591,0.248,1.17,0.507,1.738,0.779s1.124,0.555,1.669,0.85
		c0.545,0.295,1.08,0.603,1.604,0.921s1.039,0.65,1.544,0.994c0.505,0.343,1,0.698,1.488,1.066c0.525,0.39,1.038,0.794,1.538,1.213
		c0.5,0.419,0.987,0.854,1.461,1.302c0.474,0.449,0.935,0.912,1.382,1.391c0.447,0.479,0.88,0.972,1.299,1.48
		s0.824,1.032,1.213,1.571c0.39,0.539,0.765,1.093,1.125,1.663c0.36,0.569,0.704,1.154,1.033,1.755
		c0.328,0.601,0.641,1.217,0.938,1.849c0.296,0.632,0.576,1.279,0.839,1.943s0.509,1.343,0.737,2.038s0.439,1.406,0.633,2.134
		c0.193,0.727,0.368,1.471,0.524,2.23s0.294,1.536,0.414,2.329c0.119,0.792,0.219,1.601,0.299,2.427
		c0.08,0.826,0.141,1.667,0.182,2.526c0.041,0.859,0.062,1.735,0.062,2.627C931.558,533.829,931.536,534.778,931.492,535.708z
		 M991.73,575h-1.027h-1.027h-1.027h-1.027h-1.027h-1.027h-1.027h-1.027h-1.027h-1.027h-1.027h-1.027h-1.027h-1.027h-1.028
		l-0.067-0.257l-0.068-0.313l-0.067-0.34l-0.067-0.354l-0.067-0.36l-0.067-0.364l-0.067-0.365l-0.067-0.367l-0.067-0.367
		l-0.067-0.367l-0.067-0.367l-0.067-0.367l-0.067-0.367l-0.067-0.368l-0.068-0.538L975.239,569h-0.022h-0.023h-0.022h-0.022h-0.022
		h-0.022h-0.022h-0.022h-0.022h-0.022h-0.022h-0.022h-0.022h-0.022h-0.022h-0.022c-0.24,1-0.488,0.746-0.745,1.022
		c-0.257,0.275-0.521,0.627-0.794,0.886s-0.553,0.551-0.841,0.791c-0.288,0.242-0.583,0.495-0.886,0.719s-0.613,0.449-0.93,0.655
		c-0.317,0.206-0.642,0.408-0.973,0.597c-0.33,0.188-0.668,0.369-1.012,0.539c-0.344,0.171-0.693,0.333-1.05,0.485
		s-0.718,0.295-1.087,0.428c-0.367,0.134-0.742,0.259-1.121,0.374s-0.764,0.221-1.154,0.316c-0.39,0.096-0.785,0.184-1.186,0.261
		s-0.806,0.146-1.216,0.204c-0.409,0.058-0.824,0.106-1.243,0.146s-0.842,0.068-1.269,0.088s-0.858,0.029-1.293,0.029
		c-0.742,0-1.466-0.034-2.17-0.1s-1.389-0.163-2.055-0.29s-1.311-0.284-1.936-0.47c-0.625-0.185-1.23-0.397-1.813-0.637
		s-1.146-0.504-1.687-0.793c-0.541-0.29-1.061-0.603-1.558-0.938c-0.498-0.335-0.973-0.692-1.425-1.07
		c-0.453-0.377-0.883-0.775-1.29-1.191s-0.791-0.851-1.15-1.302c-0.36-0.45-0.696-0.918-1.008-1.399
		c-0.312-0.482-0.599-0.979-0.862-1.486c-0.263-0.509-0.5-1.029-0.713-1.562s-0.399-1.073-0.561-1.624s-0.296-1.109-0.404-1.676
		s-0.19-1.139-0.245-1.717c-0.055-0.577-0.082-1.159-0.082-1.744c0-0.953,0.054-1.874,0.159-2.765
		c0.105-0.892,0.262-1.751,0.47-2.58s0.465-1.628,0.771-2.396c0.306-0.768,0.661-1.506,1.063-2.212
		c0.401-0.706,0.85-1.383,1.344-2.028c0.494-0.646,1.034-1.262,1.617-1.848s1.21-1.141,1.879-1.666
		c0.669-0.525,1.38-1.02,2.132-1.485c0.752-0.465,1.544-0.9,2.375-1.305c0.832-0.405,1.702-0.78,2.609-1.126
		c0.908-0.346,1.853-0.661,2.833-0.947c0.98-0.286,1.997-0.542,3.047-0.769c1.05-0.227,2.135-0.424,3.252-0.592
		c1.116-0.168,2.267-0.307,3.446-0.416c1.181-0.109,2.613-0.189,3.854-0.24s2.027-0.072,4.027-0.065v-0.052v-0.053v-0.053v-0.053
		v-0.053v-0.052v-0.052v-0.053v-0.053v-0.052v-0.052v-0.053v-0.053v-0.052v-0.052v-0.053c0-0.195-0.227-0.395-0.242-0.599
		c-0.014-0.204-0.146-0.412-0.178-0.622s-0.129-0.422-0.18-0.635c-0.053-0.213-0.143-0.428-0.217-0.642s-0.174-0.427-0.274-0.639
		c-0.1-0.211-0.221-0.421-0.349-0.627s-0.275-0.409-0.434-0.607c-0.16-0.198-0.338-0.392-0.53-0.58s-0.404-0.369-0.635-0.543
		c-0.229-0.174-0.479-0.34-0.748-0.498s-0.559-0.306-0.869-0.444c-0.312-0.139-0.644-0.267-0.999-0.383s-0.734-0.221-1.139-0.312
		c-0.402-0.091-0.83-0.169-1.284-0.233s-0.933-0.113-1.439-0.146s-1.041-0.051-1.604-0.051c-0.375,0-0.751,0.008-1.129,0.023
		c-0.377,0.016-0.755,0.039-1.132,0.069s-0.755,0.068-1.133,0.112c-0.377,0.044-0.753,0.095-1.128,0.152s-0.749,0.121-1.12,0.19
		c-0.371,0.069-0.741,0.145-1.107,0.226c-0.366,0.081-0.73,0.167-1.09,0.258c-0.36,0.092-0.717,0.188-1.069,0.29
		s-0.701,0.208-1.044,0.317c-0.343,0.11-0.682,0.225-1.015,0.343s-0.66,0.241-0.981,0.366c-0.321,0.126-0.636,0.255-0.943,0.387
		s-0.608,0.267-0.9,0.405c-0.293,0.138-0.578,0.278-0.854,0.421c-0.277,0.143-0.544,0.288-0.804,0.435
		c-0.259,0.146-0.508,0.295-0.749,0.445l-0.21-0.735l-0.21-0.735l-0.21-0.735l-0.21-0.735l-0.21-0.735l-0.21-0.735l-0.21-0.735
		l-0.21-0.735l-0.21-0.735l-0.21-0.735l-0.21-0.735l-0.21-0.735l-0.21-0.735l-0.21-0.735l-0.21-0.735l-0.21-0.735
		c0.255-0.142,0.525-0.287,0.811-0.434c0.286-0.146,0.586-0.294,0.902-0.442c0.316-0.149,0.646-0.298,0.991-0.447
		c0.345-0.149,0.704-0.298,1.078-0.445s0.761-0.294,1.163-0.438c0.401-0.145,0.817-0.288,1.246-0.428
		c0.429-0.14,0.872-0.277,1.327-0.411c0.456-0.133,0.925-0.264,1.407-0.389s0.977-0.247,1.484-0.363
		c0.507-0.116,1.027-0.227,1.559-0.331c0.532-0.104,1.077-0.203,1.633-0.294c0.557-0.091,1.125-0.176,1.705-0.252
		s1.171-0.145,1.774-0.205c0.603-0.06,1.216-0.111,1.841-0.152s1.261-0.073,1.907-0.095c0.646-0.021,1.305-0.033,1.972-0.033
		c1.222,0,2.393,0.045,3.513,0.133c1.12,0.087,2.19,0.218,3.212,0.389c1.021,0.171,1.993,0.382,2.92,0.632
		c0.926,0.25,1.805,0.538,2.639,0.862c0.833,0.324,1.622,0.684,2.367,1.077s1.448,0.821,2.108,1.28s1.279,0.949,1.857,1.469
		c0.579,0.52,1.117,1.068,1.618,1.644s0.963,1.178,1.389,1.805c0.427,0.627,0.815,1.279,1.171,1.954
		c0.354,0.674,0.674,1.371,0.961,2.088c0.287,0.717,0.541,1.455,0.764,2.209s0.414,1.528,0.576,2.317s0.294,1.593,0.398,2.411
		c0.104,0.818,0.221,1.649,0.271,2.491s0.115,1.696,0.115,2.559v1.275v1.275v1.275v1.274v1.274v1.275v1.275v1.274v1.274v1.275v1.275
		v1.275v1.275v1.274v1.274v1.275c0,0.353-0.039,0.704-0.037,1.055c0.002,0.35-0.016,0.698-0.012,1.045
		c0.003,0.347-0.003,0.691,0.003,1.034s0.008,0.683,0.017,1.021c0.008,0.338,0.015,0.672,0.025,1.003
		c0.01,0.331,0.019,0.659,0.031,0.984c0.013,0.324,0.025,0.645,0.04,0.961s0.029,0.629,0.046,0.937s0.035,0.61,0.054,0.908
		c0.02,0.297,0.04,0.59,0.062,0.877s0.045,0.568,0.069,0.844s0.05,0.544,0.076,0.807s0.055,0.519,0.084,0.768
		c0.03,0.248,0.061,0.49,0.093,0.725s0.065,0.351,0.1,0.569c0.035,0.219,0.07,0.522,0.108,0.522H991.73z M1025,495.349v5.325v5.325
		v5.325v5.325v5.325v5.325v5.325v5.325v5.325v5.325v5.325v5.324v5.325v5.325V575h-1.58h-1.14h-1.14H1020h-1.14h-1.14h-1.141h-1.14
		h-1.14h-1.141h-1.14h-1.14h-1.141h-1.14h-1.14H1006v-5.104v-5.325v-5.325v-5.324v-5.325v-5.325v-5.325v-5.325v-5.325v-5.325v-5.325
		v-5.325v-5.325v-5.325v-5.325V490h1.461h1.14h1.14h1.141h1.14h1.14h1.141h1.14h1.14h1.141h1.14h1.14h1.141h1.14h1.14h1.58V495.349z
		 M1058,520.21v3.667v3.667v3.667v3.667v3.667v3.668v3.667v3.667v3.668v3.667v3.667v3.668v3.667v3.667V575h-1.581h-1.14h-1.141
		h-1.14h-1.14h-1.141h-1.14h-1.14h-1.14h-1.14h-1.141h-1.14h-1.14h-1.141h-1.14H1039v-3.447v-3.667v-3.667v-3.668v-3.667v-3.667
		v-3.668v-3.667v-3.667v-3.668v-3.667v-3.667v-3.667v-3.667v-3.667V517h1.46h1.14h1.141h1.14h1.14h1.141h1.14h1.14h1.14h1.14h1.141
		h1.14h1.14h1.141h1.14H1058V520.21z M1066.964,492.132l-0.915,1.136l-0.915,1.138l-0.915,1.139l-0.915,1.139l-0.915,1.14
		l-0.915,1.14l-0.915,1.14l-0.915,1.14l-0.915,1.14l-0.915,1.14l-0.915,1.14l-0.915,1.14l-0.915,1.14l-0.914,1.028l-0.915,1.028
		h-0.788h-0.787h-0.787h-0.787h-0.787h-0.788h-0.788h-0.787h-0.787h-0.788h-0.788h-0.787h-0.787h-0.787h-0.787h-0.788l0.646-1.028
		l0.645-1.084l0.645-1.112l0.645-1.126l0.645-1.132l0.646-1.137l0.646-1.139l0.645-1.139l0.645-1.139l0.646-1.14l0.646-1.14
		l0.645-1.14l0.645-1.14l0.646-1.14l0.646-1.132l0.645-1.132h1.058h1.058h1.058h1.058h1.058h1.058h1.057h1.058h1.058h1.057h1.058
		h1.058h1.058h1.058h1.058h1.058L1066.964,492.132z"/>
</g>
</svg>
