<?xml version="1.0" encoding="utf-8"?>
<!-- Generator: Adobe Illustrator 16.0.0, SVG Export Plug-In . SVG Version: 6.00 Build 0)  -->
<!DOCTYPE svg PUBLIC "-//W3C//DTD SVG 1.1//EN" "http://www.w3.org/Graphics/SVG/1.1/DTD/svg11.dtd">
<svg version="1.1" id="Layer_1" xmlns="http://www.w3.org/2000/svg" xmlns:xlink="http://www.w3.org/1999/xlink" x="0px" y="0px"
	 width="1920px" height="1080px" viewBox="0 0 1920 1080" enable-background="new 0 0 1920 1080" xml:space="preserve">
<g>
	<path fill="#212529" d="M954.71,547.574c-0.561,0.032-1.111,0.075-1.649,0.129c-0.538,0.054-1.063,0.119-1.575,0.195
		c-0.512,0.077-1.01,0.166-1.493,0.267s-0.952,0.214-1.404,0.34s-0.889,0.266-1.307,0.418c-0.419,0.152-0.82,0.317-1.203,0.498
		s-0.746,0.374-1.09,0.583s-0.667,0.432-0.97,0.67s-0.583,0.492-0.842,0.763c-0.258,0.27-0.494,0.556-0.706,0.857
		s-0.4,0.62-0.563,0.955c-0.163,0.335-0.301,0.688-0.412,1.058c-0.111,0.369-0.196,0.757-0.252,1.162s-0.086,0.829-0.086,1.271
		c0,0.293,0.012,0.576,0.036,0.85s0.06,0.538,0.106,0.793s0.104,0.5,0.173,0.737c0.068,0.236,0.147,0.464,0.236,0.682
		s0.188,0.427,0.297,0.626c0.109,0.2,0.227,0.391,0.354,0.571c0.127,0.181,0.264,0.354,0.408,0.517
		c0.145,0.162,0.298,0.316,0.459,0.46s0.331,0.279,0.507,0.405c0.177,0.127,0.36,0.244,0.552,0.352
		c0.191,0.107,0.389,0.207,0.593,0.297c0.204,0.09,0.415,0.17,0.631,0.242s0.439,0.135,0.667,0.188
		c0.228,0.054,0.461,0.099,0.699,0.134c0.238,0.036,0.48,0.063,0.728,0.081c0.247,0.018,0.498,0.026,0.753,0.026
		c0.285,0,0.567-0.012,0.845-0.035c0.278-0.022,0.552-0.057,0.823-0.102s0.536-0.1,0.798-0.165s0.519-0.141,0.771-0.226
		s0.5-0.18,0.742-0.282c0.242-0.104,0.479-0.216,0.709-0.336c0.231-0.12,0.456-0.249,0.675-0.386
		c0.219-0.137,0.432-0.281,0.638-0.434s0.406-0.311,0.599-0.477c0.192-0.166,0.378-0.339,0.557-0.518s0.35-0.363,0.513-0.554
		s0.319-0.387,0.466-0.588s0.286-0.407,0.417-0.618s0.252-0.426,0.365-0.645s0.216-0.442,0.311-0.669
		c0.094-0.227,0.179-0.456,0.254-0.688c0.015-0.061,0.03-0.121,0.044-0.182c0.014-0.061,0.027-0.122,0.041-0.184
		s0.025-0.123,0.038-0.186s0.024-0.126,0.036-0.189s0.022-0.127,0.032-0.19c0.01-0.064,0.02-0.128,0.03-0.193
		c0.009-0.064,0.018-0.129,0.026-0.194c0.008-0.064,0.017-0.13,0.024-0.195s0.015-0.131,0.021-0.197s0.013-0.133,0.018-0.199
		s0.011-0.133,0.016-0.2c0.005-0.066,0.009-0.134,0.013-0.2c0.003-0.067,0.007-0.135,0.01-0.202s0.005-0.135,0.007-0.202
		s-0.097-0.135-0.096-0.202S958,553.929,958,553.861v-0.397v-0.397v-0.397v-0.397v-0.397v-0.397v-0.397v-0.397v-0.397v-0.397v-0.397
		v-0.397v-0.397v-0.397v-0.397v-0.397c0-0.008-1.092-0.006-1.674,0.006S955.271,547.542,954.71,547.574z"/>
	<path fill="#212529" d="M1133.477,542.548c-0.055-0.54-0.122-1.077-0.204-1.607c-0.082-0.531-0.179-1.055-0.29-1.571
		s-0.237-1.023-0.378-1.521c-0.141-0.497-0.296-0.984-0.468-1.458c-0.171-0.474-0.357-0.936-0.56-1.382s-0.421-0.878-0.655-1.292
		s-0.484-0.812-0.752-1.189s-0.551-0.736-0.852-1.074s-0.618-0.653-0.953-0.945c-0.334-0.292-0.687-0.56-1.057-0.802
		s-0.758-0.459-1.163-0.647c-0.406-0.188-0.829-0.349-1.271-0.479s-0.902-0.23-1.382-0.297c-0.479-0.067-0.979-0.102-1.495-0.102
		c-0.548,0-1.073,0.035-1.579,0.103c-0.505,0.068-0.988,0.169-1.452,0.301c-0.464,0.131-0.906,0.293-1.329,0.483
		c-0.423,0.19-0.826,0.409-1.21,0.654s-0.749,0.516-1.095,0.81s-0.673,0.612-0.981,0.952c-0.31,0.339-0.6,0.7-0.873,1.081
		c-0.272,0.38-0.528,0.78-0.766,1.196s-0.459,0.85-0.663,1.297c-0.205,0.448-0.393,0.91-0.564,1.385s-0.328,0.961-0.469,1.458
		s-0.266,1.004-0.376,1.519c-0.11,0.515-0.205,1.038-0.286,1.565s-0.147,1.061-0.2,1.597s-0.092,1.076-0.118,1.617
		c-0.025,0.54-0.038,1.081-0.038,1.621c0,0.63,0.017,1.251,0.049,1.859c0.033,0.609,0.082,1.207,0.147,1.793
		c0.064,0.585,0.146,1.159,0.243,1.719s0.21,1.106,0.339,1.638s0.273,1.048,0.434,1.549c0.161,0.5,0.337,0.985,0.528,1.453
		c0.192,0.468,0.399,0.918,0.622,1.35s0.46,0.846,0.713,1.239s0.521,0.769,0.805,1.121c0.284,0.353,0.583,0.685,0.896,0.995
		s0.642,0.598,0.985,0.863c0.343,0.264,0.7,0.506,1.073,0.722s0.76,0.408,1.161,0.574c0.402,0.166,0.818,0.307,1.249,0.42
		s0.875,0.199,1.335,0.257c0.459,0.059,0.933,0.088,1.42,0.088c0.442,0,0.876-0.027,1.298-0.082s0.834-0.136,1.235-0.243
		c0.401-0.106,0.791-0.24,1.17-0.398c0.379-0.157,0.747-0.341,1.103-0.548s0.699-0.438,1.031-0.692
		c0.331-0.255,0.65-0.532,0.957-0.833s0.6-0.623,0.88-0.967c0.28-0.345,0.548-0.711,0.801-1.097s0.493-0.793,0.718-1.22
		s0.436-0.873,0.631-1.338s0.377-0.949,0.543-1.451s0.316-1.022,0.45-1.56s0.253-1.091,0.355-1.662
		c0.103-0.57,0.188-1.157,0.258-1.759c0.069-0.603,0.122-1.221,0.157-1.853s0.053-1.278,0.053-1.938c0-0.548-0.014-1.096-0.04-1.642
		C1133.57,543.633,1133.53,543.088,1133.477,542.548z"/>
	<path fill="#212529" d="M811.201,516.776c-0.08-0.417-0.179-0.821-0.297-1.212c-0.119-0.392-0.256-0.77-0.413-1.136
		s-0.332-0.718-0.526-1.057c-0.194-0.339-0.407-0.665-0.639-0.976c-0.231-0.312-0.481-0.609-0.749-0.894
		c-0.268-0.283-0.554-0.553-0.857-0.808s-0.625-0.496-0.964-0.721c-0.339-0.226-0.696-0.437-1.069-0.632s-0.765-0.375-1.173-0.54
		c-0.408-0.165-0.833-0.313-1.274-0.447s-0.9-0.25-1.375-0.351c-0.474-0.101-0.965-0.186-1.472-0.254
		c-0.507-0.068-1.03-0.119-1.569-0.153c-0.539-0.034-1.093-0.052-1.663-0.052c-0.232,0-0.46,0.001-0.684,0.004
		c-0.223,0.002-0.441,0.006-0.655,0.012s-0.423,0.012-0.627,0.02c-0.204,0.007-0.404,0.016-0.599,0.026
		c-0.195,0.01-0.385,0.021-0.571,0.033c-0.186,0.012-0.367,0.024-0.543,0.038s-0.348,0.028-0.515,0.044
		c-0.167,0.015-0.329,0.031-0.486,0.048s-0.311,0.035-0.458,0.053s-0.292,0.037-0.43,0.056s-0.272,0.039-0.402,0.06
		c-0.129,0.02-0.254,0.041-0.374,0.062s-0.235,0.042-0.346,0.064s-0.217,0.043-0.318,0.066c-0.101,0.022,0.001,0.044-0.09,0.066
		S790,508.24,790,508.263v1.493v1.492v1.492v1.493v1.493v1.492v1.492v1.493v1.493v1.492v1.492v1.493v1.493v1.492v1.492v1.493
		c0,0.023-0.003,0.044,0.098,0.065c0.1,0.021,0.103,0.04,0.206,0.059s0.158,0.037,0.265,0.054s0.19,0.034,0.3,0.049
		s0.21,0.03,0.323,0.044c0.114,0.014,0.224,0.027,0.341,0.039c0.117,0.012,0.233,0.023,0.355,0.035
		c0.121,0.011,0.244,0.021,0.369,0.03s0.253,0.018,0.383,0.026c0.13,0.008,0.261,0.016,0.396,0.022
		c0.134,0.006,0.271,0.013,0.41,0.018s0.28,0.01,0.424,0.015c0.144,0.004,0.29,0.008,0.439,0.011
		c0.149,0.003,0.301,0.006,0.455,0.008s0.311,0.003,0.47,0.004s0.322,0.001,0.486,0.001c0.608,0,1.201-0.02,1.779-0.058
		c0.578-0.038,1.141-0.095,1.688-0.17s1.079-0.169,1.594-0.281c0.516-0.111,1.015-0.241,1.497-0.389s0.948-0.313,1.396-0.496
		s0.879-0.383,1.292-0.6c0.413-0.217,0.808-0.451,1.185-0.701c0.377-0.25,0.735-0.518,1.075-0.801s0.66-0.583,0.96-0.897
		c0.301-0.315,0.582-0.646,0.843-0.992s0.502-0.708,0.723-1.084c0.22-0.376,0.42-0.768,0.599-1.175s0.336-0.828,0.471-1.263
		c0.136-0.436,0.25-0.885,0.341-1.349s0.161-0.941,0.207-1.432s0.07-0.996,0.07-1.513c0-0.465-0.02-0.918-0.06-1.359
		C811.34,517.622,811.28,517.192,811.201,516.776z"/>
	<path fill="#212529" d="M0,0v1080h1920V0H0z M829.529,520.413c-0.021,0.485-0.051,0.966-0.092,1.441
		c-0.041,0.475-0.091,0.946-0.152,1.411c-0.061,0.465-0.131,0.924-0.212,1.378c-0.081,0.454-0.171,0.902-0.271,1.344
		c-0.1,0.442-0.21,0.878-0.33,1.309c-0.12,0.43-0.249,0.854-0.387,1.272c-0.139,0.418-0.287,0.83-0.444,1.234
		s-0.324,0.803-0.5,1.195s-0.361,0.776-0.556,1.154c-0.195,0.378-0.398,0.749-0.611,1.112c-0.213,0.363-0.435,0.72-0.665,1.068
		s-0.47,0.69-0.719,1.023c-0.248,0.333-0.505,0.659-0.771,0.977s-0.541,0.627-0.823,0.929s-0.575,0.595-0.875,0.88
		c-0.39,0.368-0.792,0.723-1.205,1.065s-0.837,0.672-1.273,0.99c-0.435,0.317-0.882,0.623-1.339,0.915
		c-0.457,0.293-0.925,0.574-1.403,0.843s-0.967,0.525-1.465,0.77c-0.499,0.245-1.007,0.478-1.525,0.698s-1.045,0.43-1.583,0.627
		c-0.537,0.197-1.083,0.383-1.638,0.558s-1.119,0.337-1.691,0.489c-0.572,0.151-1.153,0.292-1.742,0.421
		c-0.589,0.129-1.187,0.247-1.792,0.354s-1.218,0.202-1.839,0.287s-1.249,0.159-1.884,0.222c-0.635,0.063-1.278,0.116-1.927,0.158
		s-1.305,0.073-1.967,0.094c-0.663,0.021-1.331,0.031-2.006,0.031c-0.15,0-0.299,0-0.447-0.002c-0.148,0-0.295-0.002-0.441-0.004
		s-0.291-0.004-0.435-0.007c-0.144-0.003-0.287-0.007-0.428-0.01c-0.142-0.004-0.282-0.009-0.421-0.013
		c-0.139-0.005-0.277-0.01-0.414-0.016s-0.272-0.012-0.406-0.019c-0.134-0.007-0.267-0.015-0.398-0.021s-0.261-0.016-0.39-0.024
		c-0.128-0.008-0.255-0.018-0.38-0.026s-0.249-0.019-0.372-0.029c-0.122-0.011-0.243-0.021-0.362-0.032s-0.236-0.023-0.352-0.035
		s-0.23-0.025-0.342-0.038c-0.112-0.013-0.023-0.026-0.132-0.041c-0.109-0.015-0.122-0.028-0.122-0.044v1.808v1.808v1.808v1.808
		v1.808v1.808v1.807v1.808v1.808v1.807v1.808v1.808v1.808v1.808v1.808V575h-1.531h-1.132h-1.133h-1.132h-1.132h-1.133h-1.132h-1.132
		h-1.132h-1.132h-1.133h-1.132h-1.132h-1.133h-1.132H771v-4.767v-4.987v-4.987v-4.987v-4.987v-4.987v-4.987v-4.987v-4.987v-4.987
		v-4.987v-4.987v-4.987v-4.987v-4.987v-4.988c1-0.06,0.955-0.119,1.326-0.177s0.871-0.115,1.26-0.171
		c0.389-0.056,0.848-0.11,1.256-0.164c0.407-0.054,0.855-0.105,1.283-0.156s0.88-0.1,1.327-0.147s0.913-0.094,1.38-0.138
		s0.949-0.087,1.438-0.128s0.99-0.081,1.5-0.118s1.032-0.073,1.563-0.107s1.075-0.065,1.629-0.095
		c0.554-0.03,1.12-0.057,1.696-0.082c0.577-0.025,1.166-0.048,1.766-0.069s1.212-0.039,1.835-0.055s1.259-0.029,1.907-0.04
		c0.648-0.011,1.308-0.019,1.98-0.024s1.357-0.008,2.055-0.008c0.705,0,1.397,0.008,2.077,0.025c0.68,0.017,1.347,0.042,2.002,0.076
		c0.655,0.034,1.298,0.076,1.928,0.127c0.63,0.05,1.249,0.109,1.854,0.177c0.606,0.067,1.2,0.144,1.782,0.228
		c0.583,0.084,1.152,0.178,1.711,0.279s1.105,0.21,1.64,0.329c0.535,0.118,1.058,0.245,1.57,0.38s1.012,0.278,1.501,0.43
		c0.489,0.152,0.967,0.312,1.434,0.481c0.466,0.169,0.922,0.346,1.366,0.532c0.444,0.186,0.877,0.379,1.3,0.582
		s0.834,0.414,1.235,0.633c0.4,0.219,0.791,0.447,1.17,0.684c0.379,0.236,0.748,0.481,1.106,0.734
		c0.358,0.253,0.706,0.514,1.043,0.784c0.322,0.255,0.639,0.521,0.947,0.795c0.309,0.275,0.611,0.561,0.905,0.855
		c0.295,0.295,0.582,0.6,0.861,0.913c0.279,0.313,0.55,0.637,0.813,0.968s0.518,0.672,0.764,1.022s0.483,0.707,0.711,1.073
		s0.446,0.74,0.655,1.123c0.209,0.382,0.409,0.772,0.598,1.17c0.189,0.397,0.369,0.802,0.537,1.214
		c0.169,0.412,0.327,0.832,0.475,1.258c0.147,0.426,0.283,0.859,0.408,1.298c0.125,0.439,0.238,0.885,0.34,1.336
		c0.102,0.452,0.192,0.91,0.269,1.374c0.078,0.464,0.143,0.933,0.196,1.408c0.052,0.475,0.092,0.955,0.119,1.44
		c0.027,0.485,0.041,0.976,0.041,1.471S829.549,519.928,829.529,520.413z M858,520.21v3.667v3.667v3.667v3.667v3.667v3.668v3.667
		v3.667v3.668v3.667v3.667v3.668v3.667v3.667V575h-1.378h-1.14h-1.14h-1.14h-1.14h-1.14h-1.14h-1.14h-1.14h-1.14h-1.14h-1.14h-1.14
		h-1.14h-1.14H840v-3.447v-3.667v-3.667v-3.668v-3.667v-3.667v-3.668v-3.667v-3.667v-3.668v-3.667v-3.667v-3.667v-3.667v-3.667V517
		h0.663h1.14h1.14h1.14h1.14h1.14h1.14h1.14h1.14h1.14h1.14h1.14h1.14h1.14h1.14H858V520.21z M858.318,501.156
		c-0.03,0.307-0.074,0.609-0.132,0.906c-0.059,0.297-0.131,0.589-0.217,0.875c-0.086,0.285-0.186,0.565-0.3,0.838
		c-0.114,0.272-0.24,0.539-0.38,0.797c-0.14,0.258-0.292,0.509-0.458,0.752s-0.343,0.477-0.533,0.702s-0.392,0.441-0.606,0.647
		s-0.439,0.403-0.676,0.588c-0.237,0.186-0.485,0.361-0.744,0.525s-0.528,0.316-0.809,0.457c-0.28,0.14-0.571,0.268-0.872,0.384
		s-0.612,0.218-0.933,0.307s-0.651,0.164-0.991,0.225s-0.688,0.107-1.046,0.138c-0.357,0.031-0.724,0.047-1.099,0.047
		c-0.36,0-0.712-0.016-1.057-0.047c-0.344-0.031-0.681-0.077-1.009-0.138s-0.647-0.136-0.958-0.225
		c-0.31-0.089-0.612-0.191-0.904-0.307s-0.575-0.244-0.847-0.384c-0.273-0.14-0.536-0.292-0.788-0.457s-0.493-0.339-0.724-0.525
		c-0.23-0.186-0.45-0.382-0.658-0.588s-0.405-0.422-0.589-0.647s-0.357-0.459-0.518-0.702s-0.308-0.494-0.442-0.752
		s-0.257-0.524-0.365-0.797c-0.108-0.273-0.203-0.553-0.284-0.838c-0.081-0.286-0.148-0.577-0.2-0.875
		c-0.053-0.297-0.09-0.599-0.113-0.906s-0.031-0.618-0.023-0.933c-0.008-0.33,0-0.655,0.023-0.974
		c0.023-0.319,0.061-0.632,0.113-0.939s0.12-0.607,0.201-0.9c0.082-0.293,0.176-0.58,0.285-0.858s0.231-0.549,0.367-0.811
		c0.135-0.262,0.284-0.516,0.445-0.761s0.335-0.48,0.521-0.707c0.186-0.226,0.384-0.442,0.594-0.649s0.432-0.402,0.665-0.587
		c0.233-0.185,0.477-0.358,0.732-0.521s0.521-0.313,0.797-0.452c0.276-0.139,0.563-0.265,0.859-0.378s0.602-0.214,0.918-0.301
		c0.315-0.087,0.64-0.161,0.974-0.22s0.676-0.104,1.027-0.135s0.711-0.046,1.078-0.046s0.727,0.016,1.077,0.046
		s0.692,0.076,1.024,0.135c0.333,0.059,0.656,0.133,0.97,0.22c0.313,0.087,0.618,0.187,0.912,0.301s0.579,0.24,0.853,0.378
		c0.274,0.139,0.539,0.289,0.792,0.452s0.497,0.336,0.729,0.521c0.232,0.185,0.453,0.381,0.663,0.587s0.409,0.423,0.596,0.649
		c0.188,0.227,0.363,0.462,0.526,0.707s0.315,0.499,0.455,0.761s0.266,0.533,0.381,0.811s0.216,0.564,0.305,0.858
		c0.089,0.293,0.165,0.593,0.227,0.9s0.111,0.62,0.146,0.939c0.035,0.319,0.057,0.644,0.064,0.974
		C858.362,500.538,858.347,500.85,858.318,501.156z M887.844,547.665c0.055,0.635,0.137,1.249,0.244,1.844
		c0.107,0.594,0.24,1.167,0.396,1.72c0.157,0.554,0.337,1.086,0.541,1.598s0.43,1.003,0.677,1.474
		c0.248,0.47,0.517,0.92,0.806,1.349s0.598,0.837,0.926,1.225c0.328,0.387,0.674,0.753,1.038,1.098s0.745,0.668,1.142,0.971
		s0.81,0.584,1.238,0.845s0.87,0.499,1.326,0.717s0.924,0.413,1.405,0.588s0.974,0.327,1.478,0.458s1.017,0.24,1.541,0.328
		s1.056,0.154,1.597,0.197c0.54,0.045,1.089,0.066,1.644,0.066c0.27,0,0.536-0.003,0.799-0.009c0.263-0.005,0.521-0.014,0.777-0.024
		s0.507-0.024,0.755-0.04c0.249-0.017,0.493-0.034,0.734-0.056s0.479-0.045,0.714-0.071c0.234-0.026,0.466-0.054,0.694-0.085
		c0.229-0.03,0.453-0.063,0.675-0.098c0.222-0.035,0.44-0.072,0.656-0.112s0.428-0.081,0.638-0.124
		c0.209-0.044,0.416-0.09,0.62-0.137s0.405-0.097,0.603-0.147c0.198-0.052,0.393-0.104,0.586-0.159s0.382-0.111,0.57-0.17
		s0.372-0.118,0.554-0.18s0.362-0.125,0.54-0.189s0.352-0.131,0.524-0.198l0.135,0.841l0.135,0.84l0.135,0.84l0.135,0.84l0.135,0.84
		l0.135,0.84l0.135,0.84l0.135,0.84l0.135,0.84l0.135,0.84l0.135,0.84l0.135,0.84l0.135,0.84l0.135,0.84l0.135,0.84l0.135,0.841
		c-0.203,0.091-0.417,0.18-0.641,0.268c-0.225,0.088-0.46,0.175-0.705,0.26c-0.246,0.085-0.501,0.169-0.767,0.251
		s-0.541,0.162-0.825,0.241s-0.578,0.155-0.881,0.23s-0.614,0.147-0.934,0.218s-0.647,0.139-0.983,0.204s-0.679,0.128-1.029,0.188
		s-0.708,0.117-1.073,0.171c-0.364,0.055-0.736,0.105-1.113,0.153c-0.378,0.048-0.762,0.092-1.151,0.133s-0.785,0.078-1.186,0.112
		s-0.807,0.063-1.217,0.09c-0.411,0.026-0.827,0.048-1.247,0.065s-0.844,0.031-1.272,0.041c-0.428,0.009-0.86,0.014-1.295,0.014
		c-1.185,0-2.343-0.045-3.474-0.134c-1.13-0.089-2.232-0.222-3.305-0.397s-2.116-0.394-3.129-0.653
		c-1.013-0.261-1.996-0.562-2.946-0.904s-1.869-0.725-2.755-1.146c-0.886-0.423-1.738-0.884-2.556-1.384s-1.602-1.038-2.349-1.613
		s-1.459-1.188-2.135-1.837s-1.313-1.334-1.913-2.054s-1.161-1.475-1.683-2.263s-1.003-1.611-1.445-2.467
		c-0.441-0.854-0.841-1.743-1.2-2.663s-0.674-1.871-0.946-2.853s-0.502-1.994-0.686-3.036c-0.184-1.041-0.324-2.112-0.417-3.212
		s-0.141-2.228-0.141-3.382c0-1.072,0.046-2.133,0.137-3.178c0.092-1.046,0.229-2.076,0.411-3.09
		c0.182-1.013,0.409-2.008,0.681-2.984c0.272-0.975,0.589-1.93,0.95-2.863s0.766-1.842,1.215-2.726s0.942-1.742,1.479-2.573
		s1.116-1.632,1.739-2.404c0.623-0.771,1.289-1.512,1.998-2.218s1.46-1.38,2.254-2.017c0.793-0.638,1.629-1.238,2.507-1.801
		c0.878-0.562,1.797-1.085,2.758-1.567s1.963-0.922,3.007-1.318s2.128-0.748,3.253-1.053s2.291-0.563,3.497-0.772
		s2.452-0.368,3.738-0.475c1.286-0.107,2.611-0.162,3.976-0.162c0.3,0,0.602,0.003,0.905,0.01c0.303,0.007,0.608,0.017,0.914,0.029
		s0.612,0.029,0.919,0.048c0.307,0.019,0.614,0.042,0.922,0.066s0.615,0.053,0.922,0.085c0.307,0.031,0.614,0.066,0.919,0.103
		c0.306,0.037,0.61,0.078,0.914,0.121c0.303,0.043,0.605,0.089,0.905,0.138s0.598,0.1,0.894,0.154
		c0.295,0.054,0.589,0.112,0.88,0.171s0.578,0.122,0.863,0.187c0.284,0.065,0.565,0.133,0.843,0.203s0.551,0.143,0.821,0.219
		c0.27,0.075,0.535,0.153,0.795,0.234c0.26,0.08,0.516,0.163,0.767,0.248c0.251,0.085,0.496,0.173,0.736,0.263l-0.18,0.847
		l-0.18,0.848l-0.18,0.848l-0.18,0.848l-0.18,0.848l-0.18,0.847l-0.18,0.847l-0.18,0.848l-0.18,0.848l-0.18,0.847l-0.18,0.847
		l-0.18,0.848l-0.18,0.848l-0.18,0.848l-0.18,0.848l-0.18,0.847c-0.135-0.06-0.274-0.119-0.417-0.178
		c-0.144-0.059-0.292-0.117-0.444-0.175s-0.309-0.114-0.471-0.169c-0.161-0.056-0.327-0.11-0.498-0.164
		c-0.171-0.054-0.346-0.105-0.526-0.157c-0.18-0.051-0.365-0.1-0.555-0.148c-0.189-0.048-0.384-0.095-0.584-0.139
		c-0.2-0.045-0.405-0.088-0.615-0.129c-0.21-0.042-0.425-0.081-0.646-0.118c-0.22-0.037-0.446-0.073-0.677-0.105
		c-0.231-0.033-0.468-0.064-0.71-0.092c-0.242-0.029-0.489-0.055-0.742-0.078s-0.512-0.044-0.776-0.063s-0.535-0.033-0.811-0.046
		c-0.276-0.012-0.558-0.021-0.846-0.028c-0.288-0.006-0.582-0.01-0.882-0.01c-0.6,0-1.187,0.027-1.76,0.079
		c-0.573,0.052-1.132,0.13-1.677,0.233s-1.075,0.23-1.589,0.382s-1.014,0.327-1.497,0.524s-0.951,0.418-1.401,0.661
		c-0.45,0.242-0.884,0.506-1.3,0.791c-0.416,0.285-0.814,0.59-1.195,0.915s-0.743,0.67-1.085,1.034
		c-0.343,0.364-0.667,0.746-0.972,1.146c-0.305,0.4-0.589,0.818-0.854,1.253s-0.508,0.886-0.73,1.354s-0.424,0.95-0.604,1.448
		s-0.337,1.01-0.473,1.537c-0.135,0.526-0.247,1.066-0.336,1.619s-0.154,1.118-0.196,1.696c-0.042,0.577-0.059,1.167-0.051,1.767
		C887.761,546.376,887.789,547.031,887.844,547.665z M975.77,575h-1.027h-1.027h-1.027h-1.027h-1.027h-1.027h-1.027h-1.027h-1.027
		h-1.027h-1.027h-1.027h-1.027h-1.027h-1.028l-0.067-0.257l-0.067-0.313l-0.067-0.34l-0.068-0.354l-0.068-0.36l-0.067-0.364
		l-0.067-0.365l-0.067-0.367l-0.067-0.367l-0.067-0.367l-0.067-0.367l-0.068-0.367l-0.068-0.367l-0.067-0.368l-0.067-0.538
		L959.278,569h-0.022h-0.022h-0.022h-0.022h-0.022h-0.022h-0.022h-0.022h-0.022h-0.022h-0.022h-0.022h-0.022h-0.022h-0.022h-0.023
		c-0.24,1-0.488,0.746-0.745,1.022c-0.256,0.275-0.521,0.627-0.794,0.886c-0.272,0.259-0.553,0.551-0.841,0.791
		c-0.288,0.242-0.583,0.495-0.886,0.719s-0.613,0.449-0.93,0.655c-0.317,0.206-0.641,0.408-0.972,0.597
		c-0.331,0.188-0.668,0.369-1.012,0.539c-0.344,0.171-0.694,0.333-1.05,0.485s-0.719,0.295-1.087,0.428
		c-0.368,0.134-0.742,0.259-1.122,0.374s-0.765,0.221-1.155,0.316s-0.786,0.184-1.186,0.261s-0.805,0.146-1.215,0.204
		c-0.41,0.058-0.824,0.106-1.243,0.146s-0.842,0.068-1.269,0.088s-0.858,0.029-1.293,0.029c-0.742,0-1.466-0.034-2.17-0.1
		s-1.389-0.163-2.055-0.29s-1.311-0.284-1.936-0.47c-0.625-0.185-1.23-0.397-1.813-0.637s-1.146-0.504-1.687-0.793
		c-0.541-0.29-1.061-0.603-1.558-0.938c-0.498-0.335-0.973-0.692-1.425-1.07c-0.453-0.377-0.883-0.775-1.29-1.191
		s-0.791-0.851-1.15-1.302c-0.36-0.45-0.696-0.918-1.008-1.399c-0.312-0.482-0.599-0.979-0.862-1.486
		c-0.263-0.509-0.5-1.029-0.713-1.562s-0.399-1.073-0.561-1.624s-0.296-1.109-0.404-1.676s-0.19-1.139-0.245-1.717
		c-0.055-0.577-0.082-1.159-0.082-1.744c0-0.953,0.054-1.874,0.159-2.765c0.105-0.892,0.262-1.751,0.47-2.58
		s0.465-1.628,0.771-2.396c0.306-0.768,0.661-1.506,1.063-2.212c0.401-0.706,0.85-1.383,1.344-2.028
		c0.494-0.646,1.034-1.262,1.617-1.848s1.21-1.141,1.879-1.666c0.669-0.525,1.38-1.02,2.132-1.485
		c0.752-0.465,1.544-0.9,2.375-1.305c0.832-0.405,1.702-0.78,2.609-1.126c0.908-0.346,1.853-0.661,2.833-0.947
		c0.98-0.286,1.997-0.542,3.047-0.769c1.05-0.227,2.135-0.424,3.252-0.592c1.117-0.168,2.267-0.307,3.447-0.416
		s2.592-0.189,3.833-0.24c1.24-0.051,2.008-0.072,4.008-0.065v-0.052v-0.053v-0.053v-0.053v-0.053v-0.052v-0.052v-0.053v-0.053
		v-0.052v-0.052v-0.053v-0.053v-0.052v-0.052v-0.053c0-0.195-0.208-0.395-0.222-0.599c-0.015-0.204-0.138-0.412-0.169-0.622
		c-0.032-0.21-0.123-0.422-0.175-0.635c-0.052-0.213-0.14-0.428-0.214-0.642c-0.074-0.214-0.173-0.427-0.273-0.639
		c-0.1-0.211-0.22-0.421-0.348-0.627c-0.128-0.206-0.275-0.409-0.434-0.607s-0.336-0.392-0.53-0.58s-0.404-0.369-0.634-0.543
		c-0.23-0.174-0.479-0.34-0.748-0.498c-0.269-0.157-0.559-0.306-0.87-0.444c-0.311-0.139-0.644-0.267-0.999-0.383
		c-0.356-0.116-0.735-0.221-1.138-0.312s-0.831-0.169-1.285-0.233s-0.933-0.113-1.44-0.146c-0.506-0.033-1.041-0.051-1.603-0.051
		c-0.375,0-0.751,0.008-1.128,0.023c-0.377,0.016-0.755,0.039-1.133,0.069s-0.755,0.068-1.133,0.112
		c-0.377,0.044-0.753,0.095-1.128,0.152s-0.749,0.121-1.12,0.19c-0.371,0.069-0.741,0.145-1.107,0.226
		c-0.366,0.081-0.73,0.167-1.09,0.258c-0.36,0.092-0.717,0.188-1.069,0.29s-0.701,0.208-1.044,0.317
		c-0.343,0.11-0.682,0.225-1.015,0.343s-0.66,0.241-0.981,0.366c-0.321,0.126-0.636,0.255-0.943,0.387s-0.608,0.267-0.9,0.405
		c-0.293,0.138-0.578,0.278-0.854,0.421c-0.277,0.143-0.544,0.288-0.804,0.435c-0.259,0.146-0.508,0.295-0.749,0.445l-0.21-0.735
		l-0.21-0.735l-0.21-0.735l-0.21-0.735l-0.21-0.735l-0.21-0.735l-0.21-0.735l-0.21-0.735l-0.21-0.735l-0.21-0.735l-0.21-0.735
		l-0.21-0.735l-0.21-0.735l-0.21-0.735l-0.21-0.735l-0.21-0.735c0.255-0.142,0.525-0.287,0.811-0.434
		c0.286-0.146,0.586-0.294,0.902-0.442c0.316-0.149,0.646-0.298,0.991-0.447c0.345-0.149,0.704-0.298,1.078-0.445
		s0.761-0.294,1.163-0.438c0.401-0.145,0.817-0.288,1.246-0.428c0.429-0.14,0.872-0.277,1.327-0.411
		c0.456-0.133,0.925-0.264,1.407-0.389s0.977-0.247,1.484-0.363c0.507-0.116,1.027-0.227,1.559-0.331
		c0.532-0.104,1.077-0.203,1.633-0.294c0.557-0.091,1.125-0.176,1.705-0.252s1.171-0.145,1.774-0.205
		c0.603-0.06,1.217-0.111,1.842-0.152c0.625-0.042,1.261-0.073,1.907-0.095c0.646-0.021,1.304-0.033,1.971-0.033
		c1.223,0,2.393,0.045,3.513,0.133c1.12,0.087,2.19,0.218,3.211,0.389c1.021,0.171,1.994,0.382,2.92,0.632
		c0.926,0.25,1.805,0.538,2.639,0.862c0.833,0.324,1.622,0.684,2.367,1.077s1.448,0.821,2.108,1.28s1.279,0.949,1.857,1.469
		c0.579,0.52,1.117,1.068,1.618,1.644s0.963,1.178,1.389,1.805c0.427,0.627,0.815,1.279,1.171,1.954
		c0.354,0.674,0.674,1.371,0.961,2.088c0.287,0.717,0.541,1.455,0.764,2.209s0.414,1.528,0.576,2.317s0.294,1.593,0.398,2.411
		c0.104,0.818,0.201,1.649,0.252,2.491s0.096,1.696,0.096,2.559v1.275v1.275v1.275v1.274v1.274v1.275v1.275v1.274v1.274v1.275v1.275
		v1.275v1.275v1.274v1.274v1.275c0,0.353-0.02,0.704-0.018,1.055c0.002,0.35-0.006,0.698-0.002,1.045
		c0.003,0.347,0.002,0.691,0.008,1.034s0.011,0.683,0.02,1.021c0.008,0.338,0.015,0.672,0.025,1.003
		c0.01,0.331,0.021,0.659,0.033,0.984c0.013,0.324,0.024,0.645,0.039,0.961s0.03,0.629,0.047,0.937s0.035,0.61,0.054,0.908
		c0.02,0.297,0.04,0.59,0.062,0.877s0.045,0.568,0.069,0.844s0.05,0.544,0.076,0.807s0.055,0.519,0.084,0.768
		c0.03,0.248,0.061,0.49,0.093,0.725s0.065,0.351,0.1,0.569c0.035,0.219,0.07,0.522,0.108,0.522H975.77z M1031.297,559.474
		c-0.066,0.659-0.168,1.306-0.303,1.938s-0.303,1.251-0.504,1.854s-0.436,1.191-0.704,1.765c-0.269,0.572-0.569,1.128-0.904,1.667
		c-0.335,0.538-0.702,1.059-1.104,1.561s-0.835,0.986-1.302,1.449s-0.966,0.906-1.498,1.328s-1.098,0.822-1.695,1.2
		c-0.599,0.378-1.229,0.733-1.893,1.064s-1.359,0.64-2.087,0.922c-0.729,0.283-1.489,0.54-2.282,0.771s-1.618,0.436-2.477,0.613
		c-0.857,0.177-1.747,0.327-2.669,0.447c-0.923,0.12-1.877,0.212-2.863,0.273c-0.985,0.062-2.004,0.093-3.054,0.093
		c-0.48,0-0.957-0.007-1.43-0.02s-0.942-0.032-1.408-0.058c-0.465-0.025-0.926-0.057-1.383-0.094
		c-0.457-0.038-0.91-0.081-1.357-0.129c-0.447-0.049-0.891-0.104-1.328-0.163s-0.87-0.125-1.297-0.195s-0.848-0.146-1.264-0.226
		c-0.415-0.08-0.824-0.165-1.228-0.256s-0.8-0.185-1.189-0.284c-0.391-0.1-0.774-0.203-1.15-0.311s-0.746-0.219-1.107-0.335
		c-0.362-0.116-0.716-0.236-1.063-0.36s-0.685-0.252-1.016-0.383c-0.33-0.131-0.652-0.266-0.966-0.403s-0.618-0.278-0.914-0.423
		c-0.295-0.145-0.582-0.291-0.859-0.441l0.203-0.817l0.202-0.817l0.202-0.817l0.203-0.817l0.202-0.817l0.202-0.817l0.203-0.817
		l0.202-0.817l0.202-0.817l0.203-0.817l0.202-0.817l0.202-0.817l0.203-0.817l0.202-0.817l0.202-0.818l0.203-0.817
		c0.21,0.128,0.434,0.257,0.671,0.387s0.486,0.261,0.747,0.391c0.262,0.13,0.534,0.261,0.817,0.391s0.577,0.259,0.879,0.387
		s0.613,0.255,0.933,0.38c0.319,0.124,0.646,0.247,0.979,0.367s0.674,0.237,1.019,0.352c0.346,0.114,0.695,0.225,1.05,0.332
		s0.712,0.21,1.073,0.309c0.361,0.098,0.725,0.191,1.091,0.279c0.365,0.088,0.731,0.172,1.099,0.248
		c0.367,0.077,0.734,0.148,1.101,0.213s0.73,0.121,1.094,0.172c0.362,0.05,0.723,0.092,1.079,0.127
		c0.357,0.035,0.71,0.063,1.059,0.08s0.691,0.027,1.029,0.027c0.345,0,0.677-0.008,0.997-0.022c0.319-0.015,0.628-0.036,0.923-0.065
		s0.578-0.065,0.85-0.109c0.271-0.043,0.53-0.093,0.777-0.149c0.248-0.058,0.483-0.12,0.708-0.19
		c0.224-0.07,0.437-0.146,0.639-0.229c0.202-0.083,0.392-0.172,0.571-0.267c0.179-0.095,0.348-0.196,0.505-0.303
		s0.305-0.22,0.44-0.338c0.137-0.118,0.262-0.242,0.377-0.372c0.115-0.129,0.221-0.264,0.315-0.404s0.18-0.285,0.255-0.437
		c0.075-0.15,0.141-0.306,0.196-0.466c0.056-0.161,0.101-0.326,0.138-0.496c0.036-0.17,0.063-0.344,0.081-0.522
		c0.019-0.179,0.027-0.362,0.027-0.55s-0.007-0.369-0.022-0.545c-0.015-0.176-0.037-0.346-0.068-0.512s-0.071-0.326-0.12-0.482
		c-0.05-0.156-0.108-0.309-0.177-0.456c-0.069-0.147-0.148-0.292-0.238-0.434c-0.09-0.141-0.191-0.278-0.305-0.414
		s-0.237-0.269-0.374-0.399c-0.138-0.131-0.287-0.26-0.45-0.388s-0.34-0.254-0.53-0.379c-0.19-0.126-0.396-0.25-0.615-0.374
		c-0.22-0.125-0.454-0.248-0.705-0.373c-0.25-0.124-0.517-0.248-0.799-0.374s-0.582-0.252-0.898-0.381
		c-0.316-0.128-0.649-0.258-1.002-0.39s-0.722-0.266-1.11-0.402s-0.797-0.275-1.225-0.418c-0.758-0.255-1.485-0.52-2.186-0.794
		c-0.7-0.273-1.371-0.558-2.016-0.85c-0.644-0.292-1.26-0.594-1.849-0.902c-0.589-0.31-1.151-0.627-1.687-0.952
		s-1.044-0.658-1.527-0.998c-0.482-0.341-0.939-0.688-1.371-1.042s-0.839-0.716-1.221-1.083c-0.383-0.367-0.74-0.74-1.074-1.118
		s-0.644-0.763-0.931-1.152c-0.286-0.39-0.55-0.784-0.79-1.184s-0.459-0.803-0.654-1.21c-0.196-0.408-0.371-0.82-0.523-1.235
		s-0.284-0.834-0.395-1.256c-0.111-0.422-0.201-0.847-0.271-1.274s-0.12-0.856-0.151-1.288c-0.03-0.432-0.042-0.865-0.034-1.3
		c0-0.683,0.037-1.354,0.108-2.015c0.072-0.661,0.181-1.309,0.322-1.945s0.318-1.258,0.528-1.867c0.211-0.608,0.454-1.202,0.73-1.78
		s0.585-1.14,0.925-1.685s0.712-1.073,1.113-1.582s0.834-1,1.296-1.47s0.953-0.921,1.472-1.351c0.519-0.43,1.066-0.837,1.642-1.223
		c0.575-0.386,1.178-0.748,1.807-1.087c0.629-0.338,1.283-0.653,1.963-0.942c0.681-0.289,1.387-0.552,2.116-0.789
		s1.484-0.446,2.262-0.628c0.777-0.182,1.577-0.335,2.4-0.459s1.668-0.218,2.534-0.281s1.754-0.096,2.661-0.096
		c0.427,0,0.852,0.006,1.273,0.018c0.421,0.012,0.839,0.03,1.254,0.053s0.825,0.051,1.231,0.085s0.809,0.073,1.207,0.116
		s0.791,0.092,1.18,0.145s0.772,0.11,1.15,0.171s0.75,0.127,1.117,0.197c0.366,0.069,0.727,0.143,1.081,0.22
		s0.702,0.157,1.043,0.241c0.342,0.083,0.677,0.17,1.004,0.26s0.647,0.182,0.96,0.277c0.313,0.095,0.617,0.192,0.914,0.292
		s0.586,0.202,0.865,0.306c0.28,0.104,0.552,0.21,0.814,0.317c0.263,0.108,0.516,0.217,0.76,0.327
		c0.244,0.11,0.479,0.222,0.704,0.334l-0.202,0.788l-0.203,0.787l-0.202,0.788l-0.202,0.788l-0.203,0.788l-0.202,0.788l-0.202,0.787
		l-0.203,0.788l-0.202,0.788l-0.202,0.787l-0.203,0.788l-0.202,0.788l-0.202,0.788l-0.203,0.788l-0.202,0.787l-0.202,0.788
		c-0.165-0.09-0.34-0.182-0.522-0.275c-0.183-0.093-0.375-0.188-0.575-0.283s-0.408-0.191-0.625-0.287
		c-0.216-0.096-0.439-0.192-0.67-0.288s-0.469-0.191-0.713-0.285c-0.244-0.094-0.494-0.187-0.75-0.278
		c-0.257-0.092-0.52-0.182-0.786-0.269c-0.268-0.087-0.54-0.172-0.818-0.255s-0.56-0.162-0.847-0.239
		c-0.286-0.076-0.576-0.149-0.87-0.218c-0.294-0.069-0.591-0.134-0.891-0.194s-0.604-0.116-0.909-0.167s-0.613-0.096-0.924-0.136
		c-0.31-0.04-0.621-0.073-0.934-0.101s-0.627-0.049-0.941-0.063c-0.314-0.014-0.629-0.022-0.944-0.022
		c-0.278,0-0.548,0.007-0.811,0.021c-0.262,0.014-0.517,0.035-0.764,0.062s-0.485,0.062-0.717,0.103
		c-0.231,0.041-0.454,0.089-0.67,0.143s-0.423,0.114-0.621,0.181c-0.198,0.067-0.39,0.14-0.571,0.219
		c-0.183,0.079-0.356,0.164-0.521,0.255c-0.166,0.091-0.322,0.189-0.471,0.292s-0.287,0.212-0.418,0.327s-0.252,0.235-0.365,0.361
		s-0.217,0.257-0.312,0.395c-0.095,0.137-0.181,0.279-0.257,0.427s-0.144,0.301-0.201,0.459c-0.058,0.158-0.105,0.321-0.145,0.489
		s-0.068,0.341-0.088,0.519s-0.029,0.361-0.029,0.548c0,0.172,0.009,0.34,0.027,0.502s0.047,0.321,0.085,0.475
		s0.087,0.305,0.146,0.451c0.06,0.147,0.129,0.291,0.211,0.431s0.175,0.278,0.279,0.414c0.105,0.135,0.223,0.269,0.353,0.4
		s0.273,0.262,0.43,0.391s0.325,0.257,0.51,0.385s0.382,0.255,0.595,0.382c0.212,0.127,0.439,0.254,0.682,0.382
		s0.5,0.257,0.773,0.387c0.274,0.13,0.564,0.261,0.871,0.394s0.63,0.268,0.971,0.406c0.34,0.137,0.697,0.277,1.073,0.42
		s0.77,0.289,1.182,0.438c0.413,0.15,0.843,0.303,1.293,0.46c0.698,0.24,1.37,0.487,2.017,0.741c0.647,0.254,1.27,0.516,1.868,0.785
		c0.599,0.27,1.172,0.547,1.722,0.831c0.55,0.285,1.076,0.578,1.578,0.879c0.503,0.301,0.982,0.609,1.438,0.928
		c0.456,0.317,0.89,0.644,1.3,0.979s0.799,0.679,1.165,1.031c0.366,0.354,0.71,0.715,1.032,1.086s0.623,0.752,0.902,1.142
		c0.28,0.39,0.539,0.79,0.777,1.2s0.456,0.83,0.653,1.26s0.374,0.871,0.532,1.321c0.157,0.45,0.295,0.912,0.413,1.385
		c0.119,0.472,0.218,0.956,0.299,1.45s0.143,1,0.186,1.517c0.044,0.517,0.069,1.045,0.077,1.585
		C1031.398,558.144,1031.365,558.814,1031.297,559.474z M1083.377,559.474c-0.068,0.659-0.169,1.306-0.304,1.938
		c-0.134,0.632-0.302,1.251-0.504,1.854c-0.201,0.604-0.437,1.191-0.704,1.765c-0.268,0.572-0.569,1.128-0.904,1.667
		c-0.334,0.538-0.701,1.059-1.103,1.561s-0.835,0.986-1.302,1.449s-0.967,0.906-1.499,1.328s-1.098,0.822-1.696,1.2
		c-0.598,0.378-1.229,0.733-1.892,1.064s-1.358,0.64-2.087,0.922c-0.729,0.283-1.489,0.54-2.282,0.771
		c-0.794,0.231-1.619,0.436-2.477,0.613c-0.857,0.177-1.747,0.327-2.669,0.447s-1.877,0.212-2.862,0.273
		c-0.986,0.062-2.005,0.093-3.055,0.093c-0.479,0-0.957-0.007-1.43-0.02c-0.474-0.013-0.942-0.032-1.407-0.058
		c-0.466-0.025-0.928-0.057-1.384-0.094c-0.457-0.038-0.909-0.081-1.357-0.129c-0.448-0.049-0.891-0.104-1.328-0.163
		s-0.87-0.125-1.297-0.195s-0.848-0.146-1.263-0.226c-0.416-0.08-0.825-0.165-1.229-0.256s-0.8-0.185-1.19-0.284
		c-0.39-0.1-0.772-0.203-1.149-0.311c-0.376-0.107-0.745-0.219-1.106-0.335c-0.362-0.116-0.716-0.236-1.063-0.36
		s-0.685-0.252-1.016-0.383c-0.33-0.131-0.652-0.266-0.966-0.403s-0.618-0.278-0.914-0.423s-0.582-0.291-0.86-0.441l0.202-0.817
		l0.203-0.817l0.202-0.817l0.202-0.817l0.203-0.817l0.202-0.817l0.202-0.817l0.203-0.817l0.203-0.817l0.202-0.817l0.202-0.817
		l0.203-0.817l0.202-0.817l0.202-0.817l0.203-0.818l0.202-0.817c0.21,0.128,0.435,0.257,0.671,0.387
		c0.237,0.13,0.486,0.261,0.748,0.391s0.534,0.261,0.816,0.391c0.283,0.13,0.576,0.259,0.879,0.387s0.613,0.255,0.933,0.38
		c0.319,0.124,0.646,0.247,0.979,0.367c0.333,0.12,0.673,0.237,1.018,0.352c0.346,0.114,0.696,0.225,1.051,0.332
		s0.713,0.21,1.074,0.309c0.361,0.098,0.725,0.191,1.09,0.279s0.732,0.172,1.099,0.248c0.367,0.077,0.733,0.148,1.1,0.213
		s0.73,0.121,1.094,0.172c0.362,0.05,0.723,0.092,1.079,0.127c0.357,0.035,0.711,0.063,1.059,0.08
		c0.35,0.018,0.693,0.027,1.03,0.027c0.345,0,0.678-0.008,0.997-0.022c0.32-0.015,0.627-0.036,0.923-0.065s0.579-0.065,0.85-0.109
		c0.271-0.043,0.53-0.093,0.778-0.149c0.247-0.058,0.482-0.12,0.707-0.19s0.438-0.146,0.639-0.229
		c0.201-0.083,0.393-0.172,0.571-0.267c0.18-0.095,0.348-0.196,0.505-0.303s0.304-0.22,0.44-0.338
		c0.136-0.118,0.262-0.242,0.377-0.372c0.116-0.129,0.221-0.264,0.315-0.404c0.096-0.141,0.18-0.285,0.255-0.437
		c0.075-0.15,0.14-0.306,0.195-0.466c0.056-0.161,0.103-0.326,0.139-0.496s0.063-0.344,0.082-0.522
		c0.018-0.179,0.026-0.362,0.026-0.55s-0.007-0.369-0.021-0.545c-0.016-0.176-0.038-0.346-0.069-0.512s-0.071-0.326-0.12-0.482
		c-0.05-0.156-0.108-0.309-0.178-0.456c-0.068-0.147-0.148-0.292-0.238-0.434c-0.09-0.141-0.191-0.278-0.304-0.414
		s-0.237-0.269-0.374-0.399c-0.138-0.131-0.287-0.26-0.45-0.388s-0.34-0.254-0.53-0.379c-0.19-0.126-0.396-0.25-0.615-0.374
		c-0.22-0.125-0.454-0.248-0.705-0.373c-0.25-0.124-0.516-0.248-0.799-0.374s-0.582-0.252-0.898-0.381
		c-0.316-0.128-0.65-0.258-1.002-0.39s-0.723-0.266-1.111-0.402s-0.797-0.275-1.224-0.418c-0.757-0.255-1.485-0.52-2.186-0.794
		c-0.7-0.273-1.372-0.558-2.016-0.85s-1.26-0.594-1.849-0.902c-0.589-0.31-1.15-0.627-1.686-0.952s-1.044-0.658-1.527-0.998
		c-0.482-0.341-0.939-0.688-1.371-1.042s-0.839-0.716-1.221-1.083c-0.383-0.367-0.74-0.74-1.074-1.118s-0.644-0.763-0.931-1.152
		c-0.286-0.39-0.55-0.784-0.79-1.184s-0.459-0.803-0.655-1.21s-0.37-0.82-0.523-1.235s-0.284-0.834-0.396-1.256
		c-0.11-0.422-0.201-0.847-0.271-1.274c-0.07-0.427-0.12-0.856-0.151-1.288c-0.03-0.432-0.041-0.865-0.034-1.3
		c0-0.683,0.036-1.354,0.108-2.015s0.18-1.309,0.322-1.945s0.318-1.258,0.529-1.867c0.21-0.608,0.453-1.202,0.729-1.78
		s0.585-1.14,0.925-1.685s0.711-1.073,1.113-1.582c0.401-0.509,0.834-1,1.295-1.47c0.462-0.471,0.953-0.921,1.473-1.351
		c0.52-0.43,1.067-0.837,1.643-1.223c0.574-0.386,1.177-0.748,1.806-1.087c0.628-0.338,1.283-0.653,1.964-0.942
		c0.68-0.289,1.386-0.552,2.115-0.789c0.73-0.237,1.484-0.446,2.262-0.628c0.777-0.182,1.578-0.335,2.4-0.459
		s1.668-0.218,2.533-0.281c0.866-0.063,1.754-0.096,2.661-0.096c0.427,0,0.852,0.006,1.273,0.018
		c0.421,0.012,0.839,0.03,1.254,0.053s0.825,0.051,1.232,0.085c0.406,0.034,0.81,0.073,1.207,0.116s0.791,0.092,1.18,0.145
		c0.388,0.053,0.771,0.11,1.149,0.171s0.75,0.127,1.117,0.197s0.728,0.143,1.082,0.22s0.703,0.157,1.044,0.241
		c0.341,0.083,0.676,0.17,1.003,0.26s0.646,0.182,0.959,0.277c0.313,0.095,0.617,0.192,0.914,0.292s0.586,0.202,0.865,0.306
		c0.28,0.104,0.552,0.21,0.814,0.317c0.263,0.108,0.517,0.217,0.761,0.327c0.244,0.11,0.479,0.222,0.704,0.334l-0.202,0.788
		l-0.202,0.787l-0.203,0.788l-0.202,0.788l-0.202,0.788l-0.203,0.788l-0.202,0.787l-0.202,0.788l-0.203,0.788l-0.202,0.787
		l-0.202,0.788l-0.203,0.788l-0.202,0.788l-0.202,0.788l-0.203,0.787l-0.202,0.788c-0.165-0.09-0.339-0.182-0.522-0.275
		c-0.184-0.093-0.375-0.188-0.575-0.283s-0.408-0.191-0.624-0.287c-0.217-0.096-0.439-0.192-0.671-0.288s-0.469-0.191-0.713-0.285
		c-0.244-0.094-0.495-0.187-0.751-0.278c-0.256-0.092-0.519-0.182-0.786-0.269s-0.54-0.172-0.817-0.255s-0.56-0.162-0.846-0.239
		c-0.287-0.076-0.577-0.149-0.871-0.218c-0.294-0.069-0.592-0.134-0.892-0.194s-0.604-0.116-0.909-0.167s-0.613-0.096-0.924-0.136
		c-0.31-0.04-0.621-0.073-0.934-0.101s-0.626-0.049-0.94-0.063c-0.314-0.014-0.63-0.022-0.944-0.022
		c-0.277,0-0.547,0.007-0.81,0.021s-0.518,0.035-0.765,0.062s-0.486,0.062-0.718,0.103c-0.231,0.041-0.454,0.089-0.669,0.143
		s-0.422,0.114-0.621,0.181c-0.198,0.067-0.389,0.14-0.571,0.219s-0.356,0.164-0.521,0.255c-0.166,0.091-0.323,0.189-0.471,0.292
		s-0.287,0.212-0.418,0.327s-0.253,0.235-0.365,0.361s-0.217,0.257-0.312,0.395c-0.095,0.137-0.18,0.279-0.257,0.427
		s-0.144,0.301-0.201,0.459c-0.058,0.158-0.106,0.321-0.145,0.489c-0.039,0.168-0.068,0.341-0.088,0.519s-0.029,0.361-0.029,0.548
		c0,0.172,0.009,0.34,0.027,0.502s0.047,0.321,0.085,0.475s0.086,0.305,0.146,0.451c0.06,0.147,0.13,0.291,0.211,0.431
		s0.175,0.278,0.28,0.414c0.104,0.135,0.223,0.269,0.353,0.4s0.272,0.262,0.429,0.391s0.326,0.257,0.51,0.385
		s0.381,0.255,0.594,0.382c0.213,0.127,0.439,0.254,0.683,0.382s0.501,0.257,0.774,0.387c0.274,0.13,0.564,0.261,0.87,0.394
		c0.307,0.133,0.63,0.268,0.971,0.406c0.34,0.137,0.698,0.277,1.073,0.42c0.376,0.143,0.77,0.289,1.182,0.438
		s0.843,0.303,1.293,0.46c0.697,0.24,1.369,0.487,2.017,0.741c0.647,0.254,1.271,0.516,1.868,0.785
		c0.598,0.27,1.172,0.547,1.722,0.831c0.55,0.285,1.076,0.578,1.579,0.879c0.502,0.301,0.981,0.609,1.438,0.928
		c0.456,0.317,0.889,0.644,1.3,0.979s0.799,0.679,1.165,1.031c0.365,0.354,0.709,0.715,1.032,1.086s0.624,0.752,0.903,1.142
		c0.28,0.39,0.539,0.79,0.777,1.2s0.455,0.83,0.652,1.26s0.375,0.871,0.532,1.321s0.296,0.912,0.414,1.385
		c0.118,0.472,0.218,0.956,0.298,1.45s0.143,1,0.187,1.517s0.069,1.045,0.076,1.585
		C1083.478,558.144,1083.443,558.814,1083.377,559.474z M1152.301,549.112c-0.115,1.252-0.287,2.459-0.511,3.621
		c-0.224,1.163-0.5,2.28-0.824,3.354c-0.325,1.073-0.698,2.104-1.117,3.089s-0.882,1.928-1.388,2.826
		c-0.505,0.899-1.051,1.755-1.636,2.567s-1.208,1.582-1.864,2.31c-0.657,0.728-1.349,1.413-2.07,2.056s-1.475,1.244-2.254,1.804
		s-1.586,1.077-2.416,1.555s-1.684,0.913-2.558,1.309s-1.767,0.75-2.677,1.064s-1.836,0.589-2.775,0.823
		c-0.938,0.234-1.891,0.43-2.851,0.585s-1.93,0.272-2.905,0.35c-0.975,0.077-1.955,0.115-2.938,0.115
		c-1.073,0-2.13-0.044-3.169-0.132c-1.039-0.087-2.061-0.217-3.063-0.39s-1.982-0.388-2.942-0.645
		c-0.959-0.257-1.896-0.554-2.809-0.893s-1.801-0.718-2.662-1.136c-0.861-0.419-1.696-0.877-2.502-1.374s-1.582-1.033-2.327-1.607
		c-0.746-0.573-1.46-1.185-2.141-1.834s-1.328-1.335-1.938-2.057c-0.611-0.722-1.187-1.479-1.725-2.272s-1.037-1.622-1.496-2.485
		c-0.46-0.862-0.878-1.761-1.255-2.691c-0.376-0.931-0.71-1.896-0.999-2.893s-0.533-2.026-0.73-3.088s-0.348-2.155-0.448-3.279
		s-0.152-2.278-0.152-3.464s0.049-2.344,0.145-3.474c0.097-1.13,0.24-2.232,0.429-3.305s0.424-2.117,0.702-3.129
		c0.279-1.013,0.603-1.996,0.969-2.946c0.366-0.95,0.775-1.869,1.226-2.754s0.941-1.738,1.473-2.556s1.103-1.602,1.712-2.35
		c0.609-0.748,1.256-1.459,1.94-2.134s1.405-1.313,2.162-1.913c0.756-0.6,1.548-1.161,2.373-1.683s1.685-1.004,2.577-1.445
		c0.891-0.441,1.814-0.842,2.77-1.2s1.94-0.674,2.955-0.947c1.016-0.272,2.06-0.501,3.132-0.686
		c1.072-0.184,2.172-0.323,3.298-0.417c1.127-0.093,2.279-0.141,3.457-0.141c1.125,0,2.227,0.048,3.303,0.143
		c1.077,0.095,2.129,0.236,3.154,0.422c1.025,0.187,2.024,0.417,2.996,0.691c0.971,0.274,1.914,0.592,2.828,0.95
		s1.799,0.758,2.652,1.198c0.854,0.44,1.677,0.919,2.468,1.436s1.55,1.072,2.274,1.664c0.726,0.591,1.417,1.218,2.073,1.88
		s1.277,1.358,1.862,2.087c0.584,0.729,1.132,1.491,1.642,2.284s0.981,1.616,1.413,2.469c0.433,0.853,0.825,1.735,1.177,2.645
		s0.662,1.847,0.931,2.811c0.268,0.963,0.493,1.952,0.675,2.965s0.319,2.05,0.411,3.109c0.093,1.06,0.14,2.142,0.14,3.244
		C1152.476,546.563,1152.416,547.86,1152.301,549.112z"/>
</g>
</svg>
