<?xml version="1.0" encoding="utf-8"?>
<!-- Generator: Adobe Illustrator 16.0.0, SVG Export Plug-In . SVG Version: 6.00 Build 0)  -->
<!DOCTYPE svg PUBLIC "-//W3C//DTD SVG 1.1//EN" "http://www.w3.org/Graphics/SVG/1.1/DTD/svg11.dtd">
<svg version="1.1" id="Layer_1" xmlns="http://www.w3.org/2000/svg" xmlns:xlink="http://www.w3.org/1999/xlink" x="0px" y="0px"
	 width="1920px" height="1080px" viewBox="0 0 1920 1080" enable-background="new 0 0 1920 1080" xml:space="preserve">
<g>
	<path fill="#212529" d="M1069.671,547.574c-0.562,0.032-1.111,0.075-1.648,0.129c-0.538,0.054-1.063,0.119-1.575,0.195
		c-0.512,0.077-1.01,0.166-1.493,0.267s-0.952,0.214-1.405,0.34c-0.452,0.126-0.889,0.266-1.307,0.418
		c-0.419,0.152-0.82,0.317-1.203,0.498s-0.746,0.374-1.09,0.583s-0.668,0.432-0.97,0.67s-0.583,0.492-0.842,0.763
		c-0.259,0.27-0.494,0.556-0.706,0.857s-0.4,0.62-0.563,0.955c-0.163,0.335-0.301,0.688-0.412,1.058
		c-0.111,0.369-0.195,0.757-0.252,1.162s-0.086,0.829-0.086,1.271c0,0.293,0.012,0.576,0.036,0.85s0.06,0.538,0.106,0.793
		s0.104,0.5,0.172,0.737c0.068,0.236,0.148,0.464,0.237,0.682s0.188,0.427,0.297,0.626c0.108,0.2,0.228,0.391,0.354,0.571
		s0.264,0.354,0.408,0.517c0.145,0.162,0.298,0.316,0.459,0.46s0.33,0.279,0.507,0.405c0.177,0.127,0.36,0.244,0.552,0.352
		s0.39,0.207,0.594,0.297s0.414,0.17,0.631,0.242s0.439,0.135,0.667,0.188c0.229,0.054,0.462,0.099,0.699,0.134
		c0.237,0.036,0.48,0.063,0.728,0.081c0.246,0.018,0.498,0.026,0.753,0.026c0.284,0,0.566-0.012,0.845-0.035
		c0.277-0.022,0.553-0.057,0.822-0.102c0.271-0.045,0.537-0.1,0.798-0.165c0.262-0.065,0.519-0.141,0.771-0.226
		s0.5-0.18,0.741-0.282c0.242-0.104,0.479-0.216,0.709-0.336s0.456-0.249,0.675-0.386s0.432-0.281,0.638-0.434
		s0.406-0.311,0.599-0.477s0.378-0.339,0.557-0.518s0.35-0.363,0.513-0.554c0.164-0.19,0.319-0.387,0.467-0.588
		c0.146-0.201,0.286-0.407,0.416-0.618c0.131-0.211,0.252-0.426,0.365-0.645c0.112-0.219,0.216-0.442,0.311-0.669
		c0.094-0.227,0.179-0.456,0.254-0.688c0.016-0.061,0.029-0.121,0.044-0.182c0.014-0.061,0.027-0.122,0.04-0.184
		c0.014-0.062,0.025-0.123,0.038-0.186s0.024-0.126,0.035-0.189s0.022-0.127,0.032-0.19c0.011-0.064,0.021-0.128,0.03-0.193
		c0.009-0.064,0.019-0.129,0.026-0.194c0.009-0.064,0.018-0.13,0.024-0.195s0.015-0.131,0.021-0.197
		c0.007-0.066,0.014-0.133,0.019-0.199s0.011-0.133,0.016-0.2c0.005-0.066,0.009-0.134,0.013-0.2
		c0.004-0.067,0.007-0.135,0.01-0.202s-0.074-0.135-0.072-0.202s-0.074-0.135-0.074-0.202s0-0.135,0-0.202v-0.397v-0.397v-0.397
		v-0.397v-0.397v-0.397v-0.397v-0.397v-0.397v-0.397v-0.397v-0.397v-0.397v-0.397v-0.397v-0.397c0-0.008-1.111-0.006-1.693,0.006
		S1070.232,547.542,1069.671,547.574z"/>
	<path fill="#212529" d="M950.836,542.548c-0.054-0.54-0.122-1.077-0.204-1.607c-0.082-0.531-0.179-1.055-0.29-1.571
		s-0.237-1.023-0.377-1.521c-0.141-0.497-0.297-0.984-0.468-1.458c-0.171-0.474-0.358-0.936-0.561-1.382
		c-0.202-0.446-0.42-0.878-0.655-1.292s-0.485-0.812-0.752-1.189s-0.551-0.736-0.852-1.074s-0.618-0.653-0.953-0.945
		c-0.335-0.292-0.687-0.56-1.057-0.802c-0.37-0.243-0.757-0.459-1.163-0.647c-0.406-0.188-0.829-0.349-1.271-0.479
		c-0.442-0.13-0.902-0.23-1.382-0.297c-0.479-0.067-0.978-0.102-1.495-0.102c-0.547,0-1.073,0.035-1.578,0.103
		c-0.505,0.068-0.989,0.169-1.453,0.301c-0.463,0.131-0.906,0.293-1.33,0.483c-0.423,0.19-0.826,0.409-1.21,0.654
		s-0.749,0.516-1.095,0.81c-0.346,0.294-0.673,0.612-0.981,0.952c-0.309,0.339-0.6,0.7-0.872,1.081
		c-0.273,0.38-0.528,0.78-0.767,1.196s-0.459,0.85-0.664,1.297c-0.204,0.448-0.392,0.91-0.564,1.385s-0.328,0.961-0.468,1.458
		c-0.141,0.497-0.266,1.004-0.376,1.519c-0.11,0.515-0.206,1.038-0.286,1.565c-0.081,0.528-0.148,1.061-0.201,1.597
		s-0.092,1.076-0.118,1.617c-0.026,0.54-0.039,1.081-0.039,1.621c0,0.63,0.017,1.251,0.049,1.859
		c0.033,0.609,0.082,1.207,0.147,1.793c0.065,0.585,0.146,1.159,0.244,1.719c0.097,0.56,0.21,1.106,0.339,1.638
		s0.273,1.048,0.434,1.549c0.161,0.5,0.336,0.985,0.528,1.453s0.399,0.918,0.621,1.35c0.223,0.432,0.461,0.846,0.714,1.239
		s0.521,0.769,0.805,1.121c0.284,0.353,0.582,0.685,0.896,0.995s0.642,0.598,0.985,0.863c0.343,0.264,0.702,0.506,1.074,0.722
		s0.76,0.408,1.162,0.574s0.818,0.307,1.249,0.42s0.875,0.199,1.335,0.257c0.459,0.059,0.933,0.088,1.42,0.088
		c0.442,0,0.875-0.027,1.297-0.082s0.834-0.136,1.235-0.243c0.401-0.106,0.792-0.24,1.17-0.398c0.379-0.157,0.747-0.341,1.103-0.548
		c0.355-0.207,0.7-0.438,1.031-0.692c0.332-0.255,0.65-0.532,0.957-0.833s0.6-0.623,0.88-0.967c0.28-0.345,0.547-0.711,0.8-1.097
		s0.492-0.793,0.717-1.22s0.436-0.873,0.631-1.338s0.377-0.949,0.542-1.451s0.316-1.022,0.45-1.56s0.253-1.091,0.356-1.662
		c0.102-0.57,0.188-1.157,0.257-1.759c0.069-0.603,0.122-1.221,0.157-1.853s0.053-1.278,0.053-1.938c0-0.548-0.013-1.096-0.04-1.642
		C950.93,543.633,950.89,543.088,950.836,542.548z"/>
	<path fill="#212529" d="M0,0v1080h1920V0H0z M897,531.564v2.662v2.663v2.663v2.663v2.662v2.662v2.662v2.662v2.662v2.662v2.663
		v2.663v2.662v2.662v2.662c0,0.12-0.486,0.243-0.877,0.367c-0.391,0.125-0.68,0.252-1.106,0.38s-0.811,0.257-1.27,0.387
		s-0.905,0.259-1.396,0.389s-0.98,0.259-1.499,0.386c-0.519,0.128-1.043,0.254-1.588,0.378s-1.098,0.247-1.666,0.366
		c-0.567,0.119-1.145,0.235-1.733,0.348s-1.186,0.221-1.793,0.325c-0.607,0.104-1.223,0.204-1.846,0.298
		c-0.623,0.095-1.253,0.184-1.89,0.267c-0.637,0.082-1.279,0.159-1.927,0.229c-0.648,0.069-1.301,0.132-1.957,0.187
		c-0.656,0.054-1.316,0.101-1.979,0.139s-1.328,0.067-1.994,0.087c-0.667,0.021-1.334,0.03-2.001,0.03
		c-0.922,0-1.829-0.015-2.72-0.044c-0.891-0.028-1.766-0.072-2.625-0.13s-1.703-0.13-2.532-0.217
		c-0.829-0.086-1.642-0.188-2.44-0.303s-1.581-0.245-2.35-0.389c-0.768-0.145-1.521-0.303-2.26-0.475
		c-0.738-0.172-1.462-0.358-2.172-0.559c-0.709-0.201-1.404-0.416-2.085-0.645s-1.347-0.471-1.999-0.729
		c-0.652-0.256-1.29-0.527-1.915-0.813s-1.235-0.583-1.832-0.896s-1.18-0.64-1.749-0.979s-1.125-0.694-1.668-1.063
		c-0.543-0.368-1.072-0.75-1.589-1.146s-1.02-0.804-1.51-1.227s-0.968-0.859-1.433-1.31c-0.465-0.436-0.917-0.885-1.355-1.347
		c-0.438-0.463-0.864-0.938-1.275-1.428s-0.81-0.991-1.194-1.505c-0.384-0.515-0.755-1.041-1.112-1.58s-0.699-1.089-1.028-1.65
		c-0.328-0.562-0.643-1.135-0.943-1.719s-0.586-1.178-0.857-1.782c-0.271-0.604-0.528-1.22-0.77-1.844s-0.469-1.259-0.681-1.901
		s-0.409-1.295-0.591-1.955s-0.349-1.33-0.5-2.007c-0.151-0.677-0.287-1.362-0.408-2.055s-0.225-1.392-0.314-2.099
		c-0.089-0.706-0.163-1.42-0.22-2.139c-0.057-0.72-0.099-1.446-0.124-2.177c-0.025-0.731-0.034-1.469-0.026-2.211
		c0.007-1.68,0.091-3.315,0.247-4.904s0.385-3.132,0.685-4.628c0.299-1.496,0.668-2.945,1.104-4.347
		c0.436-1.401,0.938-2.755,1.504-4.06s1.196-2.561,1.887-3.768c0.691-1.207,1.442-2.364,2.251-3.47s1.676-2.162,2.597-3.166
		s1.897-1.957,2.924-2.856s2.106-1.747,3.234-2.542c1.128-0.794,2.304-1.535,3.525-2.221s2.488-1.318,3.798-1.895
		c1.309-0.576,2.661-1.098,4.052-1.563s2.822-0.874,4.289-1.225c1.467-0.352,2.97-0.646,4.507-0.882s3.106-0.415,4.706-0.533
		c1.6-0.119,3.23-0.179,4.888-0.179c0.653,0,1.295,0.008,1.929,0.023c0.633,0.015,1.257,0.038,1.87,0.068s1.216,0.066,1.809,0.11
		c0.593,0.043,1.175,0.092,1.746,0.148c0.571,0.055,1.131,0.116,1.679,0.183c0.549,0.067,1.086,0.139,1.611,0.215
		s1.039,0.158,1.54,0.244c0.501,0.086,0.99,0.176,1.466,0.27s0.94,0.191,1.39,0.292c0.451,0.101,0.888,0.205,1.312,0.312
		c0.424,0.106,0.834,0.216,1.231,0.327s0.779,0.225,1.148,0.34c0.369,0.116,0.723,0.232,1.062,0.351
		c0.339,0.118,0.664,0.237,0.974,0.357c0.31,0.12,0.604,0.24,0.883,0.36c0.279,0.121,0.542,0.241,0.79,0.361l-0.24,0.915
		l-0.24,0.915l-0.24,0.915l-0.24,0.915l-0.24,0.915l-0.24,0.915l-0.24,0.915l-0.24,0.915l-0.24,0.915l-0.24,0.915l-0.24,0.915
		l-0.24,0.915l-0.24,0.915l-0.24,0.915l-0.24,0.915l-0.24,0.915c-0.277-0.12-0.559-0.238-0.846-0.355
		c-0.286-0.117-0.578-0.232-0.874-0.345c-0.297-0.113-0.599-0.225-0.906-0.333c-0.308-0.109-0.622-0.216-0.942-0.32
		s-0.646-0.206-0.98-0.304c-0.334-0.098-0.674-0.194-1.022-0.287s-0.704-0.182-1.068-0.268s-0.736-0.169-1.116-0.248
		s-0.77-0.154-1.168-0.225s-0.806-0.138-1.224-0.201s-0.845-0.121-1.282-0.174c-0.438-0.053-0.886-0.102-1.345-0.146
		s-0.929-0.083-1.41-0.117c-0.481-0.034-0.974-0.063-1.479-0.086s-1.021-0.041-1.551-0.053c-0.529-0.012-1.071-0.018-1.626-0.018
		c-0.953,0-1.891,0.034-2.812,0.101c-0.921,0.068-1.827,0.169-2.713,0.304s-1.755,0.305-2.604,0.508
		c-0.848,0.203-1.676,0.44-2.481,0.711s-1.589,0.576-2.349,0.915c-0.759,0.339-1.495,0.712-2.205,1.119s-1.393,0.848-2.049,1.324
		c-0.656,0.475-1.284,0.984-1.882,1.528s-1.167,1.122-1.703,1.734c-0.537,0.612-1.042,1.258-1.513,1.939s-0.909,1.396-1.312,2.146
		s-0.769,1.534-1.099,2.352s-0.622,1.671-0.875,2.559c-0.253,0.887-0.466,1.809-0.639,2.766s-0.304,1.947-0.392,2.973
		c-0.088,1.025-0.133,2.085-0.133,3.181c0,1.042,0.041,2.058,0.121,3.046c0.08,0.988,0.2,1.949,0.357,2.882
		c0.157,0.933,0.353,1.837,0.584,2.713s0.5,1.722,0.803,2.539s0.642,1.604,1.013,2.361c0.372,0.757,0.778,1.483,1.215,2.179
		s0.907,1.359,1.408,1.992s1.032,1.234,1.593,1.802s1.151,1.104,1.769,1.605s1.263,0.972,1.935,1.406s1.371,0.836,2.094,1.202
		c0.723,0.366,1.472,0.697,2.244,0.993s1.567,0.556,2.385,0.78c0.818,0.224,1.658,0.412,2.518,0.563s1.741,0.264,2.642,0.34
		s1.82,0.115,2.758,0.115c0.263,0,0.521-0.002,0.777-0.006s0.508-0.01,0.756-0.017s0.493-0.017,0.733-0.027
		c0.24-0.011,0.477-0.022,0.708-0.036s0.46-0.029,0.683-0.047s0.442-0.036,0.655-0.057s0.422-0.043,0.626-0.066
		s0.402-0.048,0.595-0.074s0.381-0.055,0.563-0.083c0.182-0.029,0.358-0.06,0.529-0.091s0.335-0.064,0.493-0.099
		c0.159-0.034,0.311-0.069,0.457-0.106c0.146-0.036,0.285-0.074,0.418-0.112c0.132-0.039,0.258-0.079,0.377-0.12
		s0.312-0.083,0.417-0.126c0.105-0.043,0.374-0.087,0.374-0.132v-1.058v-1.058v-1.058v-1.058v-1.058v-1.058v-1.057v-1.058v-1.058
		v-1.057v-1.058v-1.058v-1.058v-1.058v-1.058V543h-0.942h-0.78h-0.78h-0.78h-0.78h-0.78h-0.78h-0.78h-0.78h-0.78h-0.78h-0.78h-0.78
		h-0.78h-0.78H867v-0.711v-0.893v-0.893v-0.892v-0.892v-0.893v-0.893v-0.893v-0.893v-0.893v-0.893v-0.893v-0.893v-0.893v-0.893V529
		h2.241h1.882h1.883h1.882h1.882h1.883h1.882h1.882h1.882h1.882h1.882h1.882h1.882h1.882h1.883H897V531.564z M969.661,549.112
		c-0.116,1.252-0.287,2.459-0.511,3.621c-0.224,1.163-0.5,2.28-0.824,3.354c-0.324,1.073-0.698,2.104-1.117,3.089
		c-0.418,0.985-0.882,1.928-1.387,2.826c-0.506,0.899-1.053,1.755-1.637,2.567c-0.585,0.813-1.207,1.582-1.864,2.31
		s-1.348,1.413-2.07,2.056s-1.475,1.244-2.254,1.804c-0.78,0.56-1.586,1.077-2.417,1.555s-1.684,0.913-2.558,1.309
		c-0.874,0.396-1.768,0.75-2.677,1.064s-1.836,0.589-2.775,0.823c-0.938,0.234-1.89,0.43-2.851,0.585
		c-0.961,0.155-1.931,0.272-2.906,0.35s-1.956,0.115-2.938,0.115c-1.072,0-2.129-0.044-3.169-0.132
		c-1.039-0.087-2.061-0.217-3.062-0.39s-1.983-0.388-2.942-0.645c-0.959-0.257-1.896-0.554-2.809-0.893s-1.801-0.718-2.662-1.136
		c-0.861-0.419-1.696-0.877-2.501-1.374c-0.806-0.497-1.583-1.033-2.328-1.607c-0.746-0.573-1.46-1.185-2.14-1.834
		s-1.328-1.335-1.939-2.057s-1.187-1.479-1.725-2.272c-0.537-0.793-1.037-1.622-1.496-2.485c-0.459-0.862-0.878-1.761-1.254-2.691
		s-0.71-1.896-0.999-2.893c-0.29-0.997-0.534-2.026-0.731-3.088s-0.348-2.155-0.448-3.279s-0.152-2.278-0.152-3.464
		s0.049-2.344,0.145-3.474s0.239-2.232,0.428-3.305s0.424-2.117,0.703-3.129c0.279-1.013,0.602-1.996,0.968-2.946
		c0.366-0.95,0.775-1.869,1.226-2.754s0.941-1.738,1.473-2.556s1.102-1.602,1.711-2.35c0.609-0.748,1.256-1.459,1.941-2.134
		s1.405-1.313,2.162-1.913c0.756-0.6,1.548-1.161,2.374-1.683s1.685-1.004,2.576-1.445c0.892-0.441,1.816-0.842,2.771-1.2
		s1.94-0.674,2.956-0.947c1.015-0.272,2.059-0.501,3.131-0.686c1.072-0.184,2.172-0.323,3.298-0.417
		c1.126-0.093,2.279-0.141,3.457-0.141c1.125,0,2.227,0.048,3.303,0.143c1.077,0.095,2.128,0.236,3.154,0.422
		c1.025,0.187,2.024,0.417,2.996,0.691c0.971,0.274,1.915,0.592,2.828,0.95c0.914,0.358,1.799,0.758,2.653,1.198
		c0.854,0.44,1.677,0.919,2.468,1.436s1.55,1.072,2.275,1.664s1.417,1.218,2.073,1.88s1.277,1.358,1.861,2.087
		c0.585,0.729,1.133,1.491,1.643,2.284s0.981,1.616,1.414,2.469c0.432,0.853,0.824,1.735,1.176,2.645s0.662,1.847,0.93,2.811
		c0.269,0.963,0.494,1.952,0.676,2.965s0.319,2.05,0.412,3.109c0.092,1.06,0.139,2.142,0.139,3.244
		C969.836,546.563,969.776,547.86,969.661,549.112z M1034.262,519.186l-0.854,2.301l-0.854,2.358l-0.855,2.386l-0.855,2.401
		l-0.854,2.408l-0.854,2.411l-0.855,2.414l-0.855,2.414l-0.854,2.414l-0.854,2.414l-0.855,2.415l-0.855,2.415l-0.854,2.415
		l-0.854,2.415l-0.855,2.415c-0.525,1.455-1.039,2.855-1.543,4.204c-0.505,1.349-0.999,2.646-1.484,3.894s-0.962,2.445-1.431,3.598
		c-0.468,1.151-0.929,2.256-1.382,3.316s-0.899,2.077-1.339,3.052c-0.44,0.976-0.874,1.909-1.302,2.803
		c-0.429,0.895-0.852,1.75-1.271,2.568s-0.833,1.601-1.243,2.349s-0.818,1.462-1.223,2.145c-0.404,0.684-0.807,1.334-1.206,1.957
		c-0.399,0.622-0.798,1.216-1.196,1.783c-0.397,0.566-0.795,1.107-1.191,1.625c-0.396,0.517-0.794,1.01-1.192,1.481
		c-0.397,0.472-0.797,0.923-1.198,1.354s-0.805,0.846-1.21,1.243c-0.406,0.397-0.815,0.778-1.228,1.146
		c-0.397,0.345-0.797,0.676-1.196,0.993s-0.8,0.622-1.2,0.912c-0.4,0.291-0.802,0.569-1.202,0.835s-0.8,0.519-1.199,0.76
		s-0.797,0.471-1.193,0.689c-0.396,0.218-0.79,0.425-1.183,0.621s-0.783,0.382-1.17,0.558c-0.387,0.175-0.771,0.341-1.151,0.496
		s-0.758,0.302-1.131,0.438s-0.741,0.266-1.105,0.385s-0.724,0.23-1.077,0.333c-0.354,0.103-0.703,0.198-1.046,0.286
		s-0.679,0.168-1.009,0.242c-0.33,0.073-0.654,0.14-0.971,0.2c-0.316,0.06-0.625,0.114-0.926,0.162
		c-0.302,0.049-0.596,0.091-0.88,0.129l-0.239-0.968l-0.24-0.967l-0.24-0.968l-0.24-0.968l-0.24-0.967l-0.24-0.968l-0.24-0.968
		L981.239,594L981,593.032l-0.24-0.968l-0.24-0.967l-0.24-0.968l-0.24-0.968l-0.24-0.967l-0.24-0.968l-0.239-0.968
		c0.142-0.022,0.287-0.048,0.434-0.076c0.147-0.027,0.297-0.059,0.448-0.092s0.305-0.07,0.46-0.109s0.312-0.08,0.47-0.125
		s0.318-0.092,0.48-0.142c0.161-0.05,0.324-0.103,0.488-0.157c0.164-0.056,0.33-0.113,0.497-0.174
		c0.166-0.061,0.334-0.124,0.503-0.189s0.339-0.134,0.509-0.205c0.171-0.07,0.342-0.145,0.514-0.22s0.345-0.154,0.517-0.235
		c0.173-0.08,0.346-0.164,0.52-0.249s0.347-0.174,0.521-0.265c0.174-0.09,0.348-0.184,0.521-0.279
		c0.173-0.096,0.347-0.193,0.521-0.294c0.173-0.101,0.346-0.202,0.519-0.308c0.173-0.09,0.346-0.186,0.521-0.287
		c0.174-0.101,0.348-0.207,0.522-0.318s0.35-0.228,0.524-0.349c0.176-0.12,0.35-0.246,0.524-0.376s0.349-0.264,0.521-0.402
		s0.346-0.281,0.517-0.427s0.341-0.296,0.51-0.448c0.168-0.153,0.335-0.31,0.5-0.469s0.328-0.321,0.489-0.486
		s0.319-0.333,0.476-0.503c0.156-0.171,0.31-0.343,0.46-0.518s0.298-0.352,0.442-0.53s0.285-0.359,0.423-0.541
		s0.271-0.365,0.401-0.549c0.13-0.185,0.256-0.37,0.377-0.557c0.122-0.186,0.239-0.373,0.352-0.561
		c0.037-0.053,0.074-0.105,0.109-0.159c0.036-0.054,0.07-0.106,0.104-0.161s0.066-0.108,0.098-0.163s0.062-0.11,0.092-0.165
		c0.03-0.056,0.059-0.111,0.086-0.167s0.054-0.112,0.078-0.168c0.025-0.056,0.05-0.112,0.072-0.169
		c0.023-0.056,0.045-0.111,0.065-0.168s0.04-0.112,0.059-0.168c0.018-0.057,0.035-0.113,0.051-0.169s0.03-0.112,0.044-0.168
		c0.013-0.056,0.025-0.111,0.036-0.167c0.011-0.055,0.021-0.11,0.028-0.165c0.009-0.055,0.015-0.108,0.021-0.163
		s0.01-0.107,0.013-0.161s0.004-0.106,0.004-0.159c0-0.037-0.001-0.076-0.002-0.117c-0.001-0.04-0.003-0.082-0.005-0.125
		s-0.006-0.088-0.009-0.134c-0.004-0.046-0.009-0.095-0.015-0.144s-0.013-0.1-0.02-0.152c-0.008-0.052-0.017-0.105-0.026-0.161
		c-0.011-0.056-0.021-0.112-0.033-0.171c-0.013-0.059-0.026-0.119-0.041-0.181s-0.031-0.126-0.05-0.19
		c-0.018-0.065-0.037-0.133-0.058-0.201s-0.044-0.139-0.068-0.211s-0.051-0.146-0.079-0.221s-0.059-0.152-0.09-0.231
		s-0.065-0.16-0.102-0.243c-0.036-0.082-0.074-0.167-0.114-0.253c-0.041-0.087-0.083-0.175-0.129-0.265l-1.343-3.353l-1.342-3.353
		l-1.343-3.352l-1.343-3.353l-1.342-3.353l-1.343-3.352l-1.343-3.353l-1.342-3.353l-1.343-3.353l-1.343-3.352l-1.342-3.352
		l-1.343-3.353l-1.343-3.353l-1.342-3.353l-1.343-3.124L973.439,517h1.268h1.268h1.268h1.268h1.268h1.268h1.268h1.267h1.267h1.268
		h1.268h1.268h1.268h1.268h1.268h1.268l0.547,1.571l0.548,1.686l0.548,1.743l0.547,1.771l0.548,1.786l0.548,1.793l0.547,1.796
		l0.548,1.798l0.548,1.799l0.547,1.799l0.548,1.799l0.548,1.8l0.547,1.8l0.548,1.8l0.548,1.8l0.547,1.8
		c0.061,0.218,0.121,0.438,0.183,0.662s0.124,0.449,0.188,0.679c0.063,0.229,0.127,0.459,0.19,0.691
		c0.064,0.233,0.129,0.468,0.193,0.703s0.129,0.473,0.194,0.711c0.065,0.237,0.13,0.477,0.195,0.716
		c0.065,0.238,0.13,0.479,0.194,0.717c0.064,0.239,0.129,0.479,0.192,0.716s0.127,0.476,0.189,0.711
		c0.063,0.236,0.124,0.472,0.186,0.705s0.121,0.465,0.181,0.694s0.117,0.457,0.175,0.682s0.113,0.446,0.168,0.665
		c0.055,0.218,0.108,0.434,0.16,0.646s0.102,0.289,0.15,0.493c0.048,0.204,0.095,0.468,0.141,0.468h0.022h0.023h0.022h0.022h0.022
		h0.022h0.022h0.022h0.022h0.022h0.022h0.022h0.022h0.022h0.022h0.022c0.053,0,0.105-0.265,0.159-0.47
		c0.054-0.204,0.106-0.348,0.161-0.562s0.108-0.398,0.163-0.619s0.11-0.429,0.165-0.655c0.056-0.227,0.111-0.448,0.167-0.68
		c0.056-0.232,0.112-0.462,0.168-0.698s0.112-0.471,0.169-0.71c0.056-0.238,0.111-0.477,0.168-0.717s0.112-0.479,0.168-0.72
		c0.057-0.24,0.113-0.48,0.169-0.721c0.056-0.239,0.111-0.479,0.167-0.716c0.057-0.237,0.111-0.474,0.167-0.707
		c0.056-0.234,0.11-0.467,0.165-0.696c0.055-0.23,0.109-0.458,0.163-0.683s0.108-0.446,0.161-0.664
		c0.054-0.218,0.107-0.432,0.159-0.642l0.45-1.8l0.449-1.8l0.45-1.8l0.45-1.8l0.45-1.8l0.45-1.8l0.45-1.8l0.45-1.8l0.45-1.8
		l0.45-1.8l0.449-1.8l0.45-1.8l0.45-1.8l0.449-1.8l0.45-1.571l0.45-1.571h1.223h1.223h1.223h1.222h1.222h1.223h1.223h1.223h1.223
		h1.223h1.223h1.222h1.222h1.223h1.223h1.223L1034.262,519.186z M1090.73,575h-1.027h-1.027h-1.027h-1.027h-1.027h-1.027h-1.027
		h-1.027h-1.027h-1.027h-1.027h-1.027h-1.027h-1.027h-1.028l-0.067-0.257l-0.068-0.313l-0.067-0.34l-0.067-0.354l-0.067-0.36
		l-0.067-0.364l-0.067-0.365l-0.067-0.367l-0.067-0.367l-0.067-0.367l-0.067-0.367l-0.067-0.367l-0.067-0.367l-0.067-0.368
		l-0.068-0.538l-0.067-0.537h-0.022h-0.023h-0.022h-0.022h-0.022h-0.022h-0.022h-0.022h-0.022h-0.022h-0.022h-0.022h-0.022h-0.022
		h-0.022h-0.022c-0.24,1-0.488,0.746-0.745,1.022c-0.257,0.275-0.521,0.627-0.794,0.886s-0.553,0.551-0.841,0.791
		c-0.288,0.242-0.583,0.495-0.886,0.719s-0.613,0.449-0.93,0.655c-0.317,0.206-0.642,0.408-0.973,0.597
		c-0.33,0.188-0.668,0.369-1.012,0.539c-0.344,0.171-0.693,0.333-1.05,0.485s-0.718,0.295-1.087,0.428
		c-0.367,0.134-0.742,0.259-1.121,0.374c-0.38,0.115-0.766,0.221-1.155,0.316c-0.391,0.096-0.786,0.184-1.186,0.261
		s-0.805,0.146-1.215,0.204c-0.409,0.058-0.824,0.106-1.243,0.146s-0.842,0.068-1.27,0.088c-0.427,0.02-0.857,0.029-1.293,0.029
		c-0.742,0-1.466-0.034-2.17-0.1c-0.705-0.065-1.391-0.163-2.056-0.29s-1.311-0.284-1.936-0.47
		c-0.624-0.185-1.229-0.397-1.813-0.637s-1.146-0.504-1.688-0.793c-0.541-0.29-1.061-0.603-1.558-0.938
		c-0.498-0.335-0.973-0.692-1.426-1.07c-0.453-0.377-0.883-0.775-1.29-1.191s-0.79-0.851-1.15-1.302
		c-0.36-0.45-0.696-0.918-1.008-1.399c-0.312-0.482-0.6-0.979-0.862-1.486c-0.262-0.509-0.5-1.029-0.712-1.562
		s-0.399-1.073-0.561-1.624s-0.296-1.109-0.404-1.676s-0.19-1.139-0.245-1.717c-0.055-0.577-0.082-1.159-0.082-1.744
		c0-0.953,0.054-1.874,0.159-2.765c0.104-0.892,0.263-1.751,0.47-2.58s0.465-1.628,0.771-2.396s0.661-1.506,1.063-2.212
		s0.851-1.383,1.345-2.028c0.494-0.646,1.033-1.262,1.616-1.848s1.211-1.141,1.88-1.666s1.381-1.02,2.132-1.485
		c0.751-0.465,1.544-0.9,2.375-1.305c0.831-0.405,1.702-0.78,2.609-1.126s1.853-0.661,2.833-0.947
		c0.981-0.286,1.998-0.542,3.048-0.769s2.135-0.424,3.252-0.592c1.116-0.168,2.267-0.307,3.446-0.416
		c1.181-0.109,2.613-0.189,3.854-0.24s2.027-0.072,4.027-0.065v-0.052v-0.053v-0.053v-0.053v-0.053v-0.052v-0.052v-0.053v-0.053
		v-0.052v-0.052v-0.053v-0.053v-0.052v-0.052v-0.053c0-0.195-0.227-0.395-0.242-0.599c-0.014-0.204-0.146-0.412-0.178-0.622
		s-0.129-0.422-0.18-0.635c-0.053-0.213-0.143-0.428-0.217-0.642s-0.174-0.427-0.274-0.639c-0.1-0.211-0.221-0.421-0.349-0.627
		s-0.275-0.409-0.436-0.607c-0.158-0.198-0.336-0.392-0.529-0.58s-0.405-0.369-0.635-0.543c-0.229-0.174-0.479-0.34-0.748-0.498
		c-0.268-0.157-0.558-0.306-0.868-0.444c-0.312-0.139-0.644-0.267-1-0.383s-0.735-0.221-1.138-0.312
		c-0.404-0.091-0.832-0.169-1.285-0.233s-0.934-0.113-1.439-0.146c-0.507-0.033-1.041-0.051-1.604-0.051
		c-0.375,0-0.752,0.008-1.129,0.023s-0.755,0.039-1.133,0.069c-0.377,0.03-0.755,0.068-1.132,0.112
		c-0.378,0.044-0.754,0.095-1.129,0.152s-0.749,0.121-1.12,0.19s-0.74,0.145-1.107,0.226c-0.366,0.081-0.73,0.167-1.09,0.258
		c-0.36,0.092-0.717,0.188-1.069,0.29s-0.701,0.208-1.044,0.317c-0.344,0.11-0.682,0.225-1.015,0.343s-0.66,0.241-0.981,0.366
		c-0.32,0.126-0.635,0.255-0.942,0.387s-0.608,0.267-0.901,0.405c-0.292,0.138-0.577,0.278-0.854,0.421
		c-0.277,0.143-0.545,0.288-0.804,0.435c-0.259,0.146-0.509,0.295-0.749,0.445l-0.21-0.735l-0.21-0.735l-0.21-0.735l-0.21-0.735
		l-0.21-0.735l-0.21-0.735l-0.21-0.735l-0.21-0.735l-0.21-0.735l-0.21-0.735l-0.21-0.735l-0.21-0.735l-0.21-0.735l-0.21-0.735
		l-0.21-0.735l-0.21-0.735c0.255-0.142,0.525-0.287,0.811-0.434c0.286-0.146,0.587-0.294,0.902-0.442
		c0.315-0.149,0.646-0.298,0.991-0.447s0.704-0.298,1.078-0.445s0.761-0.294,1.163-0.438c0.401-0.145,0.816-0.288,1.246-0.428
		c0.429-0.14,0.871-0.277,1.327-0.411c0.455-0.133,0.925-0.264,1.406-0.389s0.977-0.247,1.483-0.363
		c0.508-0.116,1.027-0.227,1.56-0.331s1.076-0.203,1.632-0.294c0.557-0.091,1.125-0.176,1.705-0.252s1.172-0.145,1.773-0.205
		c0.604-0.06,1.217-0.111,1.842-0.152s1.261-0.073,1.907-0.095c0.647-0.021,1.304-0.033,1.972-0.033
		c1.223,0,2.393,0.045,3.514,0.133c1.119,0.087,2.189,0.218,3.211,0.389c1.021,0.171,1.994,0.382,2.92,0.632
		c0.926,0.25,1.805,0.538,2.638,0.862c0.834,0.324,1.623,0.684,2.368,1.077c0.746,0.394,1.447,0.821,2.108,1.28
		c0.66,0.458,1.278,0.949,1.857,1.469s1.118,1.068,1.618,1.644s0.963,1.178,1.389,1.805c0.426,0.627,0.815,1.279,1.17,1.954
		c0.355,0.674,0.675,1.371,0.962,2.088c0.287,0.717,0.541,1.455,0.764,2.209s0.414,1.528,0.576,2.317
		c0.161,0.789,0.294,1.593,0.397,2.411c0.104,0.818,0.223,1.649,0.272,2.491c0.051,0.842,0.116,1.696,0.116,2.559v1.275v1.275v1.275
		v1.274v1.274v1.275v1.275v1.274v1.274v1.275v1.275v1.275v1.275v1.274v1.274v1.275c0,0.353-0.04,0.704-0.038,1.055
		c0.002,0.35-0.016,0.698-0.012,1.045s-0.001,0.691,0.005,1.034s0.007,0.683,0.015,1.021s0.015,0.672,0.025,1.003
		c0.01,0.331,0.02,0.659,0.031,0.984c0.013,0.324,0.026,0.645,0.041,0.961s0.029,0.629,0.046,0.937s0.035,0.61,0.054,0.908
		c0.02,0.297,0.04,0.59,0.062,0.877s0.045,0.568,0.069,0.844s0.05,0.544,0.076,0.807s0.055,0.519,0.084,0.768
		c0.03,0.248,0.061,0.49,0.093,0.725s0.065,0.351,0.1,0.569c0.035,0.219,0.07,0.522,0.108,0.522H1090.73z"/>
</g>
</svg>
