<svg xmlns="http://www.w3.org/2000/svg" width="1920" height="1080"><g fill="#212529"><path d="M954.71 547.574c-.561.032-1.111.075-1.649.129-.538.054-1.063.119-1.575.195-.512.077-1.01.166-1.493.267s-.952.214-1.404.34-.889.266-1.307.418c-.419.152-.82.317-1.203.498s-.746.374-1.09.583-.667.432-.97.67-.583.492-.842.763c-.258.27-.494.556-.706.857a6.899 6.899 0 00-.975 2.013c-.111.369-.196.757-.252 1.162s-.086.829-.086 1.271c0 .293.012.576.036.85s.06.538.106.793a7.211 7.211 0 00.409 1.419 6.11 6.11 0 00.651 1.197c.127.181.264.354.408.517a5.86 5.86 0 001.518 1.217 6.978 6.978 0 001.891.727 9.418 9.418 0 002.18.241 10.25 10.25 0 002.466-.302c.262-.065.519-.141.771-.226s.5-.18.742-.282a10.474 10.474 0 001.384-.722c.219-.137.432-.281.638-.434s.406-.311.599-.477a10.5 10.5 0 001.07-1.072 10.01 10.01 0 00.883-1.206 9.342 9.342 0 00.676-1.314c.094-.227.179-.456.254-.688l.044-.182.041-.184c.014-.062.025-.123.038-.186l.036-.189c.012-.063.022-.127.032-.19l.03-.193.026-.194.024-.195c.007-.065.015-.131.021-.197l.018-.199.016-.2.013-.2.01-.202.007-.202c.002-.067-.097-.135-.096-.202s-.1-.134-.1-.202V547.509a48.602 48.602 0 00-3.29.065zM1133.477 542.548a31.194 31.194 0 00-.204-1.607c-.082-.531-.179-1.055-.29-1.571s-.237-1.023-.378-1.521a21.393 21.393 0 00-.468-1.458c-.171-.474-.357-.936-.56-1.382s-.421-.878-.655-1.292-.484-.812-.752-1.189-.551-.736-.852-1.074-.618-.653-.953-.945c-.334-.292-.687-.56-1.057-.802a9.207 9.207 0 00-3.816-1.423 10.8 10.8 0 00-1.495-.102c-.548 0-1.073.035-1.579.103-.505.068-.988.169-1.452.301a9.608 9.608 0 00-2.539 1.137c-.384.245-.749.516-1.095.81s-.673.612-.981.952c-.31.339-.6.7-.873 1.081-.272.38-.528.78-.766 1.196s-.459.85-.663 1.297c-.205.448-.393.91-.564 1.385a22.159 22.159 0 00-.845 2.977c-.11.515-.205 1.038-.286 1.565s-.147 1.061-.2 1.597a32.11 32.11 0 00-.156 3.238c0 .63.017 1.251.049 1.859.033.609.082 1.207.147 1.793.064.585.146 1.159.243 1.719s.21 1.106.339 1.638.273 1.048.434 1.549c.161.5.337.985.528 1.453.192.468.399.918.622 1.35s.46.846.713 1.239.521.769.805 1.121c.284.353.583.685.896.995s.642.598.985.863a9.866 9.866 0 002.234 1.296c.402.166.818.307 1.249.42s.875.199 1.335.257c.459.059.933.088 1.42.088.442 0 .876-.027 1.298-.082s.834-.136 1.235-.243a9.202 9.202 0 002.273-.946 9.818 9.818 0 001.031-.692c.331-.255.65-.532.957-.833s.6-.623.88-.967c.28-.345.548-.711.801-1.097s.493-.793.718-1.22.436-.873.631-1.338.377-.949.543-1.451.316-1.022.45-1.56.253-1.091.355-1.662c.103-.57.188-1.157.258-1.759.069-.603.122-1.221.157-1.853a35.046 35.046 0 00.013-3.58 33.866 33.866 0 00-.12-1.63zM811.201 516.776a12.05 12.05 0 00-.297-1.212c-.119-.392-.256-.77-.413-1.136s-.332-.718-.526-1.057a9.93 9.93 0 00-2.245-2.678 10.605 10.605 0 00-.964-.721c-.339-.226-.696-.437-1.069-.632s-.765-.375-1.173-.54c-.408-.165-.833-.313-1.274-.447s-.9-.25-1.375-.351a19.51 19.51 0 00-1.472-.254 22.425 22.425 0 00-1.569-.153 26.402 26.402 0 00-1.663-.052 51.185 51.185 0 00-3.136.095 36.665 36.665 0 00-1.544.13 33.058 33.058 0 00-.888.109 17.429 17.429 0 00-.776.122c-.12.021-.235.042-.346.064s-.217.043-.318.066c-.101.022.001.044-.09.066s-.063.045-.063.068V532.143c0 .023-.003.044.098.065.1.021.103.04.206.059s.158.037.265.054.19.034.3.049.21.03.323.044c.114.014.224.027.341.039l.355.035a19.713 19.713 0 00.752.056c.13.008.261.016.396.022.134.006.271.013.41.018l.424.015a57.138 57.138 0 001.85.024c.608 0 1.201-.02 1.779-.058.578-.038 1.141-.095 1.688-.17s1.079-.169 1.594-.281c.516-.111 1.015-.241 1.497-.389s.948-.313 1.396-.496.879-.383 1.292-.6a13.53 13.53 0 001.185-.701c.377-.25.735-.518 1.075-.801a11.526 11.526 0 001.803-1.889 11.345 11.345 0 001.793-3.522c.136-.436.25-.885.341-1.349s.161-.941.207-1.432a16.224 16.224 0 00.01-2.872c-.04-.441-.1-.871-.179-1.287z"/><path d="M0 0v1080h1920V0H0zm829.529 520.413a33.746 33.746 0 01-.244 2.852 30.225 30.225 0 01-.483 2.722 27.513 27.513 0 01-1.161 3.815 25.246 25.246 0 01-1.056 2.349 23.337 23.337 0 01-1.276 2.18 22.048 22.048 0 01-2.313 2.929c-.282.302-.575.595-.875.88a26.224 26.224 0 01-3.817 2.97 28.457 28.457 0 01-2.868 1.613c-.499.245-1.007.478-1.525.698s-1.045.43-1.583.627a37.487 37.487 0 01-3.329 1.047 42.19 42.19 0 01-3.534.775 51.077 51.077 0 01-3.723.509 56.454 56.454 0 01-3.894.252 63.34 63.34 0 01-2.006.031c-.15 0-.299 0-.447-.002a61.132 61.132 0 01-.876-.011l-.428-.01-.421-.013a53.151 53.151 0 01-.82-.035l-.398-.021c-.131-.006-.261-.016-.39-.024l-.38-.026c-.125-.008-.249-.019-.372-.029l-.362-.032a32.284 32.284 0 01-.694-.073c-.112-.013-.023-.026-.132-.041-.109-.015-.122-.028-.122-.044V575h-19V495.427c1-.06.955-.119 1.326-.177s.871-.115 1.26-.171c.389-.056.848-.11 1.256-.164.407-.054.855-.105 1.283-.156s.88-.1 1.327-.147a128.856 128.856 0 014.318-.384 184.779 184.779 0 013.192-.202 212.686 212.686 0 015.297-.206 219.555 219.555 0 015.942-.072c.705 0 1.397.008 2.077.025.68.017 1.347.042 2.002.076a66.88 66.88 0 013.782.304c.606.067 1.2.144 1.782.228a48.534 48.534 0 013.351.608 39.656 39.656 0 013.071.81c.489.152.967.312 1.434.481a30.069 30.069 0 012.666 1.114c.423.203.834.414 1.235.633a23.428 23.428 0 013.319 2.202 21.64 21.64 0 011.852 1.65 21.887 21.887 0 012.438 2.903 23.168 23.168 0 012.976 5.838 24.801 24.801 0 011.017 4.008 25.64 25.64 0 01.315 2.848c.027.485.041.976.041 1.471s-.01.981-.03 1.466zM858 520.21V575h-18V517h18v3.21zm.318-19.054a9.394 9.394 0 01-.349 1.781 8.69 8.69 0 01-2.277 3.736 9.02 9.02 0 01-2.229 1.57 9.95 9.95 0 01-1.805.691c-.321.089-.651.164-.991.225s-.688.107-1.046.138a12.712 12.712 0 01-2.156 0 10.845 10.845 0 01-1.967-.363 9.695 9.695 0 01-1.751-.691 9.095 9.095 0 01-1.512-.982 8.362 8.362 0 01-1.765-1.937 8.577 8.577 0 01-1.291-3.262 9.315 9.315 0 01-.136-1.839 10.13 10.13 0 01.136-1.913 9.046 9.046 0 01.486-1.758 8.473 8.473 0 011.333-2.279 8.456 8.456 0 011.259-1.236 8.776 8.776 0 011.529-.973c.276-.139.563-.265.859-.378s.602-.214.918-.301c.315-.087.64-.161.974-.22a11.935 11.935 0 012.105-.181c.367 0 .727.016 1.077.046s.692.076 1.024.135a10.47 10.47 0 011.882.521 8.875 8.875 0 012.374 1.351 8.63 8.63 0 011.785 1.943 9.099 9.099 0 011.141 2.43c.089.293.165.593.227.9s.111.62.146.939c.035.319.057.644.064.974a9.9 9.9 0 01-.044.933zm29.526 46.509c.055.635.137 1.249.244 1.844.107.594.24 1.167.396 1.72.157.554.337 1.086.541 1.598s.43 1.003.677 1.474c.248.47.517.92.806 1.349s.598.837.926 1.225a13.843 13.843 0 002.18 2.069 14.366 14.366 0 002.564 1.562c.456.218.924.413 1.405.588s.974.327 1.478.458 1.017.24 1.541.328 1.056.154 1.597.197c.54.045 1.089.066 1.644.066a35.013 35.013 0 001.576-.033 29.703 29.703 0 001.489-.096 28.627 28.627 0 004.6-.774 22.412 22.412 0 001.71-.509 21.228 21.228 0 001.064-.387l.135.841.135.84.135.84.135.84.135.84.135.84.135.84.135.84.135.84.135.84.135.84.135.84.135.84.135.84.135.84.135.841a14.8 14.8 0 01-.641.268c-.225.088-.46.175-.705.26a23.926 23.926 0 01-1.592.492 39.513 39.513 0 01-3.827.84 47.49 47.49 0 01-2.186.324 54.463 54.463 0 01-2.337.245 54.963 54.963 0 01-2.464.155 61.606 61.606 0 01-2.567.055c-1.185 0-2.343-.045-3.474-.134-1.13-.089-2.232-.222-3.305-.397s-2.116-.394-3.129-.653c-1.013-.261-1.996-.562-2.946-.904s-1.869-.725-2.755-1.146c-.886-.423-1.738-.884-2.556-1.384s-1.602-1.038-2.349-1.613-1.459-1.188-2.135-1.837-1.313-1.334-1.913-2.054-1.161-1.475-1.683-2.263-1.003-1.611-1.445-2.467c-.441-.854-.841-1.743-1.2-2.663s-.674-1.871-.946-2.853-.502-1.994-.686-3.036c-.184-1.041-.324-2.112-.417-3.212s-.141-2.228-.141-3.382c0-1.072.046-2.133.137-3.178.092-1.046.229-2.076.411-3.09.182-1.013.409-2.008.681-2.984.272-.975.589-1.93.95-2.863s.766-1.842 1.215-2.726a28.605 28.605 0 013.218-4.977c.623-.771 1.289-1.512 1.998-2.218s1.46-1.38 2.254-2.017a28.763 28.763 0 012.507-1.801c.878-.562 1.797-1.085 2.758-1.567s1.963-.922 3.007-1.318 2.128-.748 3.253-1.053 2.291-.563 3.497-.772 2.452-.368 3.738-.475a47.94 47.94 0 014.881-.152 40.687 40.687 0 011.833.077c.307.019.614.042.922.066s.615.053.922.085a46.086 46.086 0 014.512.687 36.431 36.431 0 013.322.843 28.779 28.779 0 011.503.511l-.18.847-.18.848-.18.848-.18.848-.18.848-.18.847-.18.847-.18.848-.18.848-.18.847-.18.847-.18.848-.18.848-.18.848-.18.848-.18.847a16.875 16.875 0 00-2.356-.843 20.084 20.084 0 00-1.139-.287 22.054 22.054 0 00-1.261-.247 26.811 26.811 0 00-2.129-.275 32.973 32.973 0 00-2.433-.137c-.288-.006-.582-.01-.882-.01-.6 0-1.187.027-1.76.079-.573.052-1.132.13-1.677.233a16.229 16.229 0 00-3.086.906 14.375 14.375 0 00-3.896 2.367c-.381.325-.743.67-1.085 1.034a14.411 14.411 0 00-2.556 3.753 16.317 16.317 0 00-1.077 2.985c-.135.526-.247 1.066-.336 1.619s-.154 1.118-.196 1.696a20.576 20.576 0 00-.051 1.767c-.001.669.027 1.324.082 1.958zM975.77 575H960.364l-.067-.257-.067-.313-.067-.34-.068-.354-.068-.36-.067-.364-.067-.365-.067-.367-.067-.367-.067-.367-.067-.367-.068-.367-.068-.367-.067-.368-.067-.538-.077-.539H958.925c-.24 1-.488.746-.745 1.022-.256.275-.521.627-.794.886-.272.259-.553.551-.841.791-.288.242-.583.495-.886.719s-.613.449-.93.655c-.317.206-.641.408-.972.597a19.925 19.925 0 01-2.062 1.024 21.372 21.372 0 01-3.364 1.118 24.92 24.92 0 01-2.401.465 27.59 27.59 0 01-2.512.234c-.427.02-.858.029-1.293.029-.742 0-1.466-.034-2.17-.1s-1.389-.163-2.055-.29a19.755 19.755 0 01-3.749-1.107 18.01 18.01 0 01-3.245-1.731 17.082 17.082 0 01-1.425-1.07 17.177 17.177 0 01-2.44-2.493 17.378 17.378 0 01-1.87-2.885 17.733 17.733 0 01-1.274-3.186c-.162-.551-.296-1.109-.404-1.676a18.571 18.571 0 01-.327-3.461c0-.953.054-1.874.159-2.765.105-.892.262-1.751.47-2.58s.465-1.628.771-2.396a17.728 17.728 0 012.407-4.24c.494-.646 1.034-1.262 1.617-1.848s1.21-1.141 1.879-1.666c.669-.525 1.38-1.02 2.132-1.485.752-.465 1.544-.9 2.375-1.305.832-.405 1.702-.78 2.609-1.126a37.313 37.313 0 012.833-.947 44.29 44.29 0 013.047-.769 52 52 0 013.252-.592c1.117-.168 2.267-.307 3.447-.416s2.592-.189 3.833-.24c1.24-.051 2.008-.072 4.008-.065V535.26c0-.195-.208-.395-.222-.599-.015-.204-.138-.412-.169-.622-.032-.21-.123-.422-.175-.635-.052-.213-.14-.428-.214-.642a6.522 6.522 0 00-.273-.639 6.375 6.375 0 00-1.312-1.814 6.826 6.826 0 00-.634-.543 7.71 7.71 0 00-.748-.498 8.832 8.832 0 00-.87-.444 10.251 10.251 0 00-.999-.383c-.356-.116-.735-.221-1.138-.312s-.831-.169-1.285-.233-.933-.113-1.44-.146a24.654 24.654 0 00-1.603-.051 28.373 28.373 0 00-3.394.204 32.84 32.84 0 00-2.248.342 37.635 37.635 0 00-2.197.484 34.819 34.819 0 00-2.113.607 35.494 35.494 0 00-1.996.709 31.874 31.874 0 00-1.843.792 25.179 25.179 0 00-1.658.856c-.259.146-.508.295-.749.445l-.21-.735-.21-.735-.21-.735-.21-.735-.21-.735-.21-.735-.21-.735-.21-.735-.21-.735-.21-.735-.21-.735-.21-.735-.21-.735-.21-.735-.21-.735-.21-.735a27.586 27.586 0 011.713-.876 33.031 33.031 0 012.069-.892 41.843 41.843 0 012.409-.866 47.917 47.917 0 014.218-1.163 50.007 50.007 0 013.192-.625 54.4 54.4 0 013.479-.457 57.813 57.813 0 015.72-.28c1.223 0 2.393.045 3.513.133 1.12.087 2.19.218 3.211.389s1.994.382 2.92.632c.926.25 1.805.538 2.639.862.833.324 1.622.684 2.367 1.077s1.448.821 2.108 1.28a18.949 18.949 0 013.475 3.113c.501.576.963 1.178 1.389 1.805a20.23 20.23 0 011.171 1.954c.354.674.674 1.371.961 2.088.287.717.541 1.455.764 2.209s.414 1.528.576 2.317.294 1.593.398 2.411c.104.818.201 1.649.252 2.491s.096 1.696.096 2.559V560.933c0 .353-.02.704-.018 1.055.002.35-.006.698-.002 1.045.003.347.002.691.008 1.034s.011.683.02 1.021c.008.338.015.672.025 1.003.01.331.021.659.033.984.013.324.024.645.039.961s.03.629.047.937.035.61.054.908a82.713 82.713 0 00.207 2.528 44.163 44.163 0 00.177 1.493c.032.235.065.351.1.569.035.219.07.522.108.522h-1.033zm55.527-15.526a17.742 17.742 0 01-.807 3.792 16.268 16.268 0 01-1.608 3.432c-.335.538-.702 1.059-1.104 1.561s-.835.986-1.302 1.449-.966.906-1.498 1.328-1.098.822-1.695 1.2c-.599.378-1.229.733-1.893 1.064s-1.359.64-2.087.922c-.729.283-1.489.54-2.282.771s-1.618.436-2.477.613c-.857.177-1.747.327-2.669.447-.923.12-1.877.212-2.863.273a48.661 48.661 0 01-4.484.073 49.858 49.858 0 01-2.791-.152c-.457-.038-.91-.081-1.357-.129a46.377 46.377 0 01-5.117-.84 40.647 40.647 0 01-3.446-.93 33.89 33.89 0 01-2.079-.743c-.33-.131-.652-.266-.966-.403a22.815 22.815 0 01-1.773-.864l.203-.817.202-.817.202-.817.203-.817.202-.817.202-.817.203-.817.202-.817.202-.817.203-.817.202-.817.202-.817.203-.817.202-.817.202-.818.203-.817a21.285 21.285 0 001.418.778 30.159 30.159 0 001.696.778 35.354 35.354 0 001.912.747 44.82 44.82 0 002.069.684 38.687 38.687 0 004.364 1.049 27.718 27.718 0 002.173.299 21.676 21.676 0 002.088.107c.345 0 .677-.008.997-.022.319-.015.628-.036.923-.065a13.748 13.748 0 001.627-.258c.248-.058.483-.12.708-.19.224-.07.437-.146.639-.229.202-.083.392-.172.571-.267.179-.095.348-.196.505-.303s.305-.22.44-.338a3.901 3.901 0 001.143-1.679c.056-.161.101-.326.138-.496a5.208 5.208 0 00.108-1.072c0-.188-.007-.369-.022-.545-.015-.176-.037-.346-.068-.512s-.071-.326-.12-.482a3.807 3.807 0 00-.72-1.304 4.776 4.776 0 00-.374-.399c-.138-.131-.287-.26-.45-.388s-.34-.254-.53-.379a10.29 10.29 0 00-.615-.374 14.62 14.62 0 00-.705-.373c-.25-.124-.517-.248-.799-.374s-.582-.252-.898-.381c-.316-.128-.649-.258-1.002-.39s-.722-.266-1.11-.402-.797-.275-1.225-.418a48.31 48.31 0 01-2.186-.794c-.7-.273-1.371-.558-2.016-.85a36.648 36.648 0 01-1.849-.902c-.589-.31-1.151-.627-1.687-.952s-1.044-.658-1.527-.998c-.482-.341-.939-.688-1.371-1.042s-.839-.716-1.221-1.083c-.383-.367-.74-.74-1.074-1.118s-.644-.763-.931-1.152c-.286-.39-.55-.784-.79-1.184s-.459-.803-.654-1.21a13.872 13.872 0 01-1.34-5.053c-.03-.432-.042-.865-.034-1.3a17.968 17.968 0 01.43-3.96 17.03 17.03 0 012.183-5.332 17.677 17.677 0 012.409-3.052 19.577 19.577 0 013.114-2.574 21.774 21.774 0 011.807-1.087 23.867 23.867 0 011.963-.942c.681-.289 1.387-.552 2.116-.789s1.484-.446 2.262-.628c.777-.182 1.577-.335 2.4-.459s1.668-.218 2.534-.281 1.754-.096 2.661-.096a44.714 44.714 0 013.758.156 42.743 42.743 0 012.387.261 39.804 39.804 0 013.348.588 39.189 39.189 0 013.007.778 31.86 31.86 0 011.779.598 24.409 24.409 0 011.574.644c.244.11.479.222.704.334l-.202.788-.203.787-.202.788-.202.788-.203.788-.202.788-.202.787-.203.788-.202.788-.202.787-.203.788-.202.788-.202.788-.203.788-.202.787-.202.788a22.012 22.012 0 00-1.097-.558 25.483 25.483 0 00-1.295-.575 29.408 29.408 0 00-1.463-.563 30.093 30.093 0 00-2.451-.763 30.7 30.7 0 00-1.761-.412 24.734 24.734 0 00-2.767-.404 21.126 21.126 0 00-1.885-.085 13.82 13.82 0 00-1.575.083 10.939 10.939 0 00-1.387.246 7.963 7.963 0 00-1.192.4 6.003 6.003 0 00-.521.255c-.166.091-.322.189-.471.292a4.574 4.574 0 00-.783.688 3.92 3.92 0 00-.915 1.77c-.04.168-.068.341-.088.519a4.912 4.912 0 00-.002 1.05c.018.162.047.321.085.475a3.342 3.342 0 00.357.882 4.06 4.06 0 00.632.814c.13.131.273.262.43.391s.325.257.51.385.382.255.595.382c.212.127.439.254.682.382s.5.257.773.387c.274.13.564.261.871.394s.63.268.971.406c.34.137.697.277 1.073.42s.77.289 1.182.438c.413.15.843.303 1.293.46.698.24 1.37.487 2.017.741.647.254 1.27.516 1.868.785.599.27 1.172.547 1.722.831.55.285 1.076.578 1.578.879.503.301.982.609 1.438.928.456.317.89.644 1.3.979s.799.679 1.165 1.031c.366.354.71.715 1.032 1.086a15.516 15.516 0 011.679 2.342 14.73 14.73 0 011.185 2.581c.157.45.295.912.413 1.385.119.472.218.956.299 1.45s.143 1 .186 1.517c.044.517.069 1.045.077 1.585.001.673-.032 1.343-.1 2.003zm52.08 0a18.24 18.24 0 01-.304 1.938 16.817 16.817 0 01-1.208 3.619 16.076 16.076 0 01-2.007 3.228c-.402.502-.835.986-1.302 1.449s-.967.906-1.499 1.328-1.098.822-1.696 1.2c-.598.378-1.229.733-1.892 1.064s-1.358.64-2.087.922c-.729.283-1.489.54-2.282.771-.794.231-1.619.436-2.477.613-.857.177-1.747.327-2.669.447s-1.877.212-2.862.273a48.717 48.717 0 01-4.485.073 49.48 49.48 0 01-2.791-.152 57.313 57.313 0 01-1.357-.129 46.377 46.377 0 01-5.117-.84 42.48 42.48 0 01-3.445-.93 33.89 33.89 0 01-2.079-.743c-.33-.131-.652-.266-.966-.403s-.618-.278-.914-.423-.582-.291-.86-.441l.202-.817.203-.817.202-.817.202-.817.203-.817.202-.817.202-.817.203-.817.203-.817.202-.817.202-.817.203-.817.202-.817.202-.817.203-.818.202-.817a20.498 20.498 0 001.419.778 31.573 31.573 0 001.695.778 36.805 36.805 0 001.912.747 43.145 43.145 0 003.143.993 39.515 39.515 0 002.189.527 30.592 30.592 0 002.194.385c.362.05.723.092 1.079.127a21.77 21.77 0 002.089.107c.345 0 .678-.008.997-.022.32-.015.627-.036.923-.065a13.554 13.554 0 001.628-.258c.247-.058.482-.12.707-.19s.438-.146.639-.229c.201-.083.393-.172.571-.267.18-.095.348-.196.505-.303s.304-.22.44-.338a4.019 4.019 0 00.692-.776 3.817 3.817 0 00.45-.903c.056-.161.103-.326.139-.496a5.163 5.163 0 00.108-1.072 5.494 5.494 0 00-.09-1.057 4.14 4.14 0 00-.12-.482 3.768 3.768 0 00-.72-1.304 4.615 4.615 0 00-.374-.399c-.138-.131-.287-.26-.45-.388s-.34-.254-.53-.379a10.29 10.29 0 00-.615-.374 14.62 14.62 0 00-.705-.373c-.25-.124-.516-.248-.799-.374s-.582-.252-.898-.381c-.316-.128-.65-.258-1.002-.39s-.723-.266-1.111-.402-.797-.275-1.224-.418a48.757 48.757 0 01-2.186-.794c-.7-.273-1.372-.558-2.016-.85s-1.26-.594-1.849-.902c-.589-.31-1.15-.627-1.686-.952s-1.044-.658-1.527-.998c-.482-.341-.939-.688-1.371-1.042s-.839-.716-1.221-1.083c-.383-.367-.74-.74-1.074-1.118s-.644-.763-.931-1.152a15.42 15.42 0 01-1.445-2.394 14.044 14.044 0 01-.919-2.491 14.087 14.087 0 01-.456-3.862c0-.683.036-1.354.108-2.015s.18-1.309.322-1.945a17.034 17.034 0 011.258-3.647 17.475 17.475 0 012.038-3.267c.401-.509.834-1 1.295-1.47.462-.471.953-.921 1.473-1.351.52-.43 1.067-.837 1.643-1.223a21.592 21.592 0 011.806-1.087 23.58 23.58 0 011.964-.942c.68-.289 1.386-.552 2.115-.789.73-.237 1.484-.446 2.262-.628.777-.182 1.578-.335 2.4-.459s1.668-.218 2.533-.281a36.685 36.685 0 012.661-.096 44.714 44.714 0 013.759.156 43.221 43.221 0 013.536.432 39.804 39.804 0 012.199.417 39.27 39.27 0 013.006.778 31.86 31.86 0 011.779.598 24.484 24.484 0 011.575.644c.244.11.479.222.704.334l-.202.788-.202.787-.203.788-.202.788-.202.788-.203.788-.202.787-.202.788-.203.788-.202.787-.202.788-.203.788-.202.788-.202.788-.203.787-.202.788a20.222 20.222 0 00-1.097-.558 27.213 27.213 0 00-2.008-.86 30.627 30.627 0 00-1.537-.547 31.337 31.337 0 00-2.534-.712 27.586 27.586 0 00-2.725-.497 24.012 24.012 0 00-1.874-.164c-.314-.014-.63-.022-.944-.022a15.242 15.242 0 00-1.575.083 10.97 10.97 0 00-.718.103c-.231.041-.454.089-.669.143s-.422.114-.621.181c-.198.067-.389.14-.571.219s-.356.164-.521.255a5.204 5.204 0 00-.889.619 4.151 4.151 0 00-.677.756 3.929 3.929 0 00-.603 1.375 4.53 4.53 0 00-.117 1.067c0 .172.009.34.027.502s.047.321.085.475.086.305.146.451a3.503 3.503 0 00.491.845c.104.135.223.269.353.4s.272.262.429.391.326.257.51.385.381.255.594.382c.213.127.439.254.683.382a22.316 22.316 0 001.644.781c.307.133.63.268.971.406a61.694 61.694 0 002.255.858c.412.149.843.303 1.293.46.697.24 1.369.487 2.017.741a41.22 41.22 0 011.868.785c.598.27 1.172.547 1.722.831.55.285 1.076.578 1.579.879.502.301.981.609 1.438.928.456.317.889.644 1.3.979s.799.679 1.165 1.031c.365.354.709.715 1.032 1.086a15.268 15.268 0 011.68 2.342 15.174 15.174 0 011.184 2.581c.157.45.296.912.414 1.385.118.472.218.956.298 1.45s.143 1 .187 1.517.069 1.045.076 1.585c.002.673-.033 1.343-.099 2.003zm68.924-10.362a37.004 37.004 0 01-.511 3.621c-.224 1.163-.5 2.28-.824 3.354-.325 1.073-.698 2.104-1.117 3.089s-.882 1.928-1.388 2.826a27.06 27.06 0 01-3.5 4.877 26.937 26.937 0 01-4.324 3.86c-.779.56-1.586 1.077-2.416 1.555s-1.684.913-2.558 1.309-1.767.75-2.677 1.064-1.836.589-2.775.823c-.938.234-1.891.43-2.851.585a36.49 36.49 0 01-5.843.465 37.55 37.55 0 01-3.169-.132c-1.039-.087-2.061-.217-3.063-.39s-1.982-.388-2.942-.645c-.959-.257-1.896-.554-2.809-.893s-1.801-.718-2.662-1.136c-.861-.419-1.696-.877-2.502-1.374a27.214 27.214 0 01-4.468-3.441 26.856 26.856 0 01-5.159-6.814 28.286 28.286 0 01-1.255-2.691c-.376-.931-.71-1.896-.999-2.893s-.533-2.026-.73-3.088-.348-2.155-.448-3.279-.152-2.278-.152-3.464.049-2.344.145-3.474c.097-1.13.24-2.232.429-3.305s.424-2.117.702-3.129c.279-1.013.603-1.996.969-2.946.366-.95.775-1.869 1.226-2.754s.941-1.738 1.473-2.556 1.103-1.602 1.712-2.35a26.525 26.525 0 014.102-4.047c.756-.6 1.548-1.161 2.373-1.683s1.685-1.004 2.577-1.445c.891-.441 1.814-.842 2.77-1.2s1.94-.674 2.955-.947a35.354 35.354 0 013.132-.686 38.36 38.36 0 013.298-.417 42.015 42.015 0 013.457-.141c1.125 0 2.227.048 3.303.143 1.077.095 2.129.236 3.154.422 1.025.187 2.024.417 2.996.691.971.274 1.914.592 2.828.95a28.29 28.29 0 015.12 2.634 26.46 26.46 0 012.274 1.664c.726.591 1.417 1.218 2.073 1.88a26.74 26.74 0 013.504 4.371c.51.793.981 1.616 1.413 2.469.433.853.825 1.735 1.177 2.645s.662 1.847.931 2.811c.268.963.493 1.952.675 2.965s.319 2.05.411 3.109c.093 1.06.14 2.142.14 3.244a43.26 43.26 0 01-.177 3.894z"/></g></svg>